<?xml version="1.0" encoding="utf-8"?>
<!-- Generator: Adobe Illustrator 24.2.1, SVG Export Plug-In . SVG Version: 6.00 Build 0)  -->
<svg version="1.1" id="Layer_1" xmlns="http://www.w3.org/2000/svg" xmlns:xlink="http://www.w3.org/1999/xlink" x="0px" y="0px"
	 viewBox="0 0 64 64" style="enable-background:new 0 0 64 64;" xml:space="preserve">
<g>
	<path d="M46,47.2c-3.3,0-6,2.7-6,6s2.7,6,6,6s6-2.7,6-6S49.3,47.2,46,47.2z M46,57.2c-2.2,0-4-1.8-4-4s1.8-4,4-4s4,1.8,4,4
		S48.2,57.2,46,57.2z"/>
	<path d="M16,47.2c-3.3,0-6,2.7-6,6s2.7,6,6,6s6-2.7,6-6S19.3,47.2,16,47.2z M16,57.2c-2.2,0-4-1.8-4-4s1.8-4,4-4s4,1.8,4,4
		S18.2,57.2,16,57.2z"/>
	<path d="M31,31.2c-1.7,0-3,1.3-3,3s1.3,3,3,3s3-1.3,3-3S32.7,31.2,31,31.2z M31,35.2c-0.6,0-1-0.4-1-1s0.4-1,1-1c0.6,0,1,0.4,1,1
		S31.6,35.2,31,35.2z"/>
	<path d="M60.6,59l-4.4-1.8c-0.5-0.2-0.7-0.7-0.6-1.2c0.4-1.3,0.5-2.7,0.3-4.1c-0.6-4.5-4.4-8.2-9.2-8.6c-1.4-0.1-2.8-0.9-3.6-2
		L42.9,41c-0.6-0.7-0.9-1.6-0.9-2.5V37c0-0.8-0.3-1.5-0.8-2l-1.5-1.7l14-21.7c0.9-1.4,1.3-2.9,1.3-4.5C55,5,54.2,3,52.7,1.5
		l-0.8-0.8L32.1,25.1L11.5,2.4c-1.2-1.3-3.3-1.6-4.8-0.6L5.6,2.7C4.6,3.3,4,4.4,4,5.6c0,0.6,0.2,1.2,0.5,1.7l16.7,29.8
		c0.2,0.3,0.3,0.5,0.5,0.8l-2.9,3.5c-0.9,1.1-2.2,1.8-3.5,1.9c-4.7,0.5-8.6,4.1-9.2,8.5C5.6,55,6.7,58.1,9,60.4
		c1.9,1.9,4.4,2.9,7,2.9c0.6,0,1.1,0,1.7-0.1c1.6-0.3,3.2-1,4.5-2c0.4-0.3,1-0.3,1.3,0.1l1.2,1.2c0.6,0.6,1.4,0.9,2.2,0.9
		c1.7,0,3.1-1.4,3.1-3.1c0-0.8-0.3-1.6-0.8-2.2l-2.3-2.7c-0.7-0.8-0.8-1.7-0.9-2.4c-0.1-1.7-0.6-3.4-1.4-4.8
		c-0.7-1.1-0.6-2.7,0.2-3.6l0.9-1.1c1.1-1.3,2.8-2.1,4.6-2.1h2.7c0,0,0.1,0,0.1,0c1.6,0.7,3,1.7,4.1,3l0.2,0.2
		c0.8,0.9,0.9,2.5,0.3,3.5c-1.3,2-1.8,4.4-1.5,6.8c0.6,4.3,4,7.8,8.3,8.5c0.5,0.1,1.1,0.1,1.6,0.1h13.8c1.2,0,2.2-1,2.2-2.2
		C62,60.1,61.5,59.3,60.6,59z M52,3.8c0.6,1,1,2.1,1,3.3c0,1.2-0.4,2.4-1,3.5L38.3,31.8l-4.8-5.2L52,3.8z M11.4,5.3l1,1.1l-1.2,1.2
		l-0.9-1.2L11.4,5.3z M13.8,7.9l1,1.1l-1.5,1.5l-0.9-1.2L13.8,7.9z M16.2,10.5l1,1.1l-1.7,1.7l-0.9-1.2L16.2,10.5z M18.6,13.1l1,1.1
		l-2,2L16.7,15L18.6,13.1z M20.9,15.7l1,1.1l-2.2,2.2l-0.9-1.2L20.9,15.7z M23.3,18.3l1,1.1L21.9,22l-0.9-1.2L23.3,18.3z M25.7,21
		l1,1.1l-2.5,2.5c-0.4-0.3-0.8-0.6-1.1-1L25.7,21z M28.1,23.6l1,1.1c-0.8,0.5-1.8,0.8-2.7,0.7L28.1,23.6z M24.1,42l-0.9,1.1
		c-1.3,1.6-1.5,4.1-0.4,6c0.7,1.2,1.1,2.5,1.2,3.8c0.1,1.4,0.5,2.6,1.3,3.6l2.3,2.7c0.2,0.2,0.3,0.6,0.3,0.9c0,0.6-0.5,1.1-1.1,1.1
		c-0.3,0-0.6-0.1-0.8-0.3l-1.2-1.2c-1.1-1.1-2.8-1.2-4-0.2c-1,0.8-2.3,1.4-3.6,1.6c-2.6,0.4-5.1-0.4-7-2.2s-2.7-4.3-2.3-6.9
		c0.5-3.6,3.6-6.4,7.4-6.8c1.9-0.2,3.7-1.2,4.9-2.6l2.9-3.5c0.4,0.2,0.9,0.4,1.4,0.5l2.3,0.4C25.9,40.4,24.9,41.1,24.1,42z
		 M59.8,61.2H46c-0.4,0-0.9,0-1.3-0.1c-3.4-0.5-6.2-3.3-6.6-6.8c-0.3-1.9,0.1-3.8,1.2-5.4c1.1-1.7,0.8-4.3-0.5-5.8l-0.2-0.2
		c-2-2.3-4.7-3.9-7.7-4.4l-5.8-1c-0.9-0.1-1.7-0.7-2.1-1.5L6.2,6.3C6.1,6.1,6,5.8,6,5.6c0-0.5,0.3-1,0.7-1.3l1.2-0.8
		c0.3-0.2,0.6-0.3,0.9-0.3c0.5,0,0.9,0.2,1.2,0.5L7.7,6.1l13.7,18.6c1.1,1.5,2.9,2.5,4.7,2.6c0.2,0,0.3,0,0.5,0
		c1.4,0,2.7-0.4,3.8-1.2l9.3,10.2c0.2,0.2,0.3,0.4,0.3,0.7v1.5c0,1.4,0.5,2.7,1.3,3.7l0.2,0.3c1.2,1.5,3.1,2.5,5,2.7
		c3.8,0.4,6.9,3.3,7.4,6.9c0.1,1.1,0.1,2.2-0.2,3.3c-0.4,1.5,0.3,3.1,1.8,3.6l4.4,1.8c0.1,0,0.1,0.1,0.1,0.2
		C60,61.2,59.9,61.2,59.8,61.2z"/>
</g>
</svg>
