<?xml version="1.0" encoding="utf-8"?>
<!-- Generator: Adobe Illustrator 24.2.1, SVG Export Plug-In . SVG Version: 6.00 Build 0)  -->
<svg version="1.1" id="Layer_1" xmlns="http://www.w3.org/2000/svg" xmlns:xlink="http://www.w3.org/1999/xlink" x="0px" y="0px"
	 viewBox="0 0 64 64" style="enable-background:new 0 0 64 64;" xml:space="preserve">
<g>
	<path d="M54.7,53.7c0.8-0.8,1.3-1.9,1.3-3.1v-1.3l-0.7-0.2c-0.4-0.2-0.9-0.3-1.3-0.5V4c0-1.7-1.3-3-3-3h-8c-2.8,0-5,2.2-5,5v25
		c0,1.1,0.9,2,2,2h6v11.6C32.5,36.3,24,21.5,24,5.2V4c0-1.7-1.3-3-3-3H11C9.3,1,8,2.3,8,4v7.4c0,22.1,16.6,40.5,38,43.2v0.8
		c0,4.2,3.4,7.6,7.6,7.6c1.3,0,2.4-1.1,2.4-2.4c0-0.6-0.3-1.3-0.7-1.7C54.5,58,54,56.9,54,55.8v-1.5C54.3,54.1,54.5,53.9,54.7,53.7z
		 M32,38c2.2,0,4,1.8,4,4s-1.8,4-4,4c-3.3,0-6-2.7-6-6c0-0.6,0-1.3,0.1-1.9l0.6-4.8c0.8-1.3,1.3-2.7,1.3-4.3c0-0.2,0-0.4,0-0.5
		c1.5,2.7,3.2,5.3,5.2,7.7C32.8,36,32.4,36,32,36h-2v2H32z M32,48c3.3,0,6-2.7,6-6c0-0.3,0-0.6-0.1-1c4.6,4.2,10,7.5,16.1,9.7
		c0,0.6-0.3,1.2-0.7,1.6c-0.5,0.5-1.1,0.7-1.7,0.7c-7.2,0-13.9-1.8-19.8-5C31.9,48,31.9,48,32,48z M40,6c0-1.7,1.3-3,3-3h5.6
		C48.2,3.7,48,4.4,48,5.2V30c0,0.6-0.4,1-1,1h-7V6z M48,32.8c1.2-0.4,2-1.5,2-2.8V5.2c0-0.9,0.5-1.7,1.2-2.2C51.7,3.1,52,3.5,52,4
		v43.8c-1.4-0.6-2.7-1.3-4-2V32.8z M25.4,23l-4.9-4.9c1-0.5,2-1.2,2.7-2.1C23.8,18.4,24.5,20.7,25.4,23z M10,4c0-0.6,0.4-1,1-1h10
		c0.6,0,1,0.4,1,1v1.2c0,2.7,0.2,5.4,0.7,8.1c-1.1,2.3-3.4,3.7-6,3.7C13,17,10,14,10,10.3V4z M16.7,19c0.6,0,1.1-0.1,1.7-0.2
		l5.8,5.8c1.2,1.2,1.8,2.7,1.8,4.4c0,3.3-2.7,6-6,6c-2.2,0-4-1.8-4-4s1.8-4,4-4h2v-2h-2c-2.8,0-5.2,2-5.8,4.6
		c-2-4.1-3.4-8.7-3.9-13.4C11.9,17.9,14.2,19,16.7,19z M18.7,36.9C19.1,37,19.6,37,20,37c1.6,0,3.1-0.5,4.4-1.3l-0.3,2.2
		C24,38.6,24,39.3,24,40c0,1.1,0.2,2.1,0.6,3C22.4,41.2,20.5,39.1,18.7,36.9z M53.9,60.3c0.1,0.1,0.1,0.2,0.1,0.3
		c0,0.2-0.2,0.4-0.4,0.4c-3.1,0-5.6-2.5-5.6-5.6v-0.6c1.2,0.1,2.4,0.2,3.6,0.2c0.1,0,0.3,0,0.4,0v0.8C52,57.5,52.7,59.1,53.9,60.3z"
		/>
	<path d="M15,11c1.7,0,3-1.3,3-3s-1.3-3-3-3s-3,1.3-3,3S13.3,11,15,11z M15,7c0.6,0,1,0.4,1,1s-0.4,1-1,1s-1-0.4-1-1S14.4,7,15,7z"
		/>
	<circle cx="45" cy="50" r="1"/>
</g>
</svg>
