<?xml version="1.0" encoding="utf-8"?>
<!-- Generator: Adobe Illustrator 18.0.0, SVG Export Plug-In . SVG Version: 6.00 Build 0)  -->
<!DOCTYPE svg PUBLIC "-//W3C//DTD SVG 1.1//EN" "http://www.w3.org/Graphics/SVG/1.1/DTD/svg11.dtd">
<svg version="1.1" id="Layer_1" xmlns="http://www.w3.org/2000/svg" xmlns:xlink="http://www.w3.org/1999/xlink" x="0px" y="0px"
	 viewBox="168.8 26.9 387.5 499.9" enable-background="new 168.8 26.9 387.5 499.9" xml:space="preserve">
<title>Artboard 16</title>
<g>
	<path fill="#FFFFFF" d="M343.9,401.6v-85.9c0,0,0-0.4,0-0.6L327.3,73.5c-1.9-26-23.6-46.5-49.8-46.5c-10.2,0-18.8,7.8-19.9,18
		l-21.4,260.1c-0.3,3.3,1.3,6.5,4.2,8.1l42.6,25.3v17.3l-33.2-19.1c-4.2-2.4-9.3-1-11.8,3.2c-0.7,1.3-1.2,2.7-1.2,4.3v57.5h-2.3
		c-36.2,0-65.7,28-65.7,62.6s29.5,62.6,65.7,62.6c23.3,0.1,45-11.9,57.2-31.8c10.2,18.1,28.8,30.1,49.5,31.6h4.3
		c34.5,0,62.6-28,62.6-62.6c0-1.4,0-2.7-0.1-4.2C405.3,426.8,377.2,401.3,343.9,401.6z M283,464.3c-1,25.9-22.6,46.2-48.5,45.3
		c-25,1.7-46.7-17.1-48.6-42.1c-1.7-25,17.1-46.7,42.1-48.6c2.2-0.1,4.3-0.1,6.5,0h11.2c4.7,0,8.6-3.9,8.6-8.6v-51.5l28.8,16.7v87.2
		c0,0.4,0,0.7,0,1.2S283,464,283,464.3z M377.7,496.3c-9.3,9.3-22.2,14.1-35.4,13.2c-24.2-2.2-42.4-22.7-42-46.9V333.4
		c0-3-1.6-5.9-4.2-7.5l-42.1-25l21-254.7c0.1-1.3,1.2-2.3,2.6-2.3c17.3,0,31.5,13.4,32.7,30.6l16.5,241.7v94.1
		c0,4.7,3.9,8.6,8.6,8.6h8.6c24.2-0.4,44.7,18,46.9,42C391.8,474.1,386.9,487.1,377.7,496.3L377.7,496.3z"/>
	<path fill="#FFFFFF" d="M234.4,437c-15.1,0-27.3,12.2-27.3,27.3s12.2,27.3,27.3,27.3c15.1,0,27.3-12.2,27.3-27.3
		C261.9,449.2,249.5,437,234.4,437z M234.4,474.5c-5.6,0-10.1-4.6-10.1-10.1s4.6-10.1,10.1-10.1c5.6,0,10.1,4.6,10.1,10.1
		c0.1,5.6-4.3,10.2-10.1,10.4h-0.1v-0.3H234.4z"/>
	<path fill="#FFFFFF" d="M345.5,437c-15.1,0-27.3,12.2-27.3,27.3s12.2,27.3,27.3,27.3s27.3-12.2,27.3-27.3S360.6,437,345.5,437z
		 M345.5,474.5c-5.6,0-10.1-4.6-10.1-10.1c0-5.6,4.6-10.1,10.1-10.1c5.6,0,10.1,4.6,10.1,10.1c0.1,5.6-4.3,10.2-10.1,10.4h-0.1v-0.3
		H345.5z"/>
	<circle fill="#FFFFFF" cx="291.7" cy="277.9" r="10.4"/>
	<path fill="#FFFFFF" d="M547.6,230.3l3-157.4c0-25.5-20.6-46-46-46h-89.5c-4.7,0-8.6,3.9-8.6,8.6s3.9,8.6,8.6,8.6h49.2V64h-49.2
		c-4.7,0-8.6,3.9-8.6,8.6s3.9,8.6,8.6,8.6h49.2v19.9h-49.2c-4.7,0-8.6,3.9-8.6,8.6s3.9,8.6,8.6,8.6h49.2v19.4h-49.2
		c-4.7,0-8.6,3.9-8.6,8.6c0,4.7,3.9,8.6,8.6,8.6h49.2v19.9h-49.2c-4.7,0-8.6,3.9-8.6,8.6s3.9,8.6,8.6,8.6h49.2V212h-49.2
		c-4.7,0-8.6,3.9-8.6,8.6s3.9,8.6,8.6,8.6h49.2v19.9h-49.2c-4.7,0-8.6,3.9-8.6,8.6c0,4.7,3.9,8.6,8.6,8.6h49.2v11.5
		c0,1.2,0.3,2.3,0.7,3.5c14.4,33.1,19.7,69.3,15.4,105.1L469.2,478c-2.7,24,14.4,45.7,38.4,48.5c24,2.7,45.7-14.4,48.5-38.4
		c0.1-1.7,0.3-3.5,0.3-5.2l-8.9-157.4C545.7,293.6,545.7,261.9,547.6,230.3z M512.6,509.5c-14.7,0-26.5-11.8-26.5-26.5
		c0-1.2,0-2.2,0.1-3.3l11.2-91.2c4.7-38.3-0.7-77.2-16-112.8V44.2h23c15.8,0,28.8,12.9,28.8,28.8l-3,156.9
		c-1.9,32.2-1.9,64.4,0,96.5l8.8,156.6C539.1,497.7,527.3,509.5,512.6,509.5z"/>
</g>
</svg>
