<?xml version="1.0" encoding="utf-8"?>
<!-- Generator: Adobe Illustrator 18.0.0, SVG Export Plug-In . SVG Version: 6.00 Build 0)  -->
<!DOCTYPE svg PUBLIC "-//W3C//DTD SVG 1.1//EN" "http://www.w3.org/Graphics/SVG/1.1/DTD/svg11.dtd">
<svg version="1.1" id="Layer_1" xmlns="http://www.w3.org/2000/svg" xmlns:xlink="http://www.w3.org/1999/xlink" x="0px" y="0px"
	 viewBox="191.2 203.7 117.8 96.8" enable-background="new 191.2 203.7 117.8 96.8" xml:space="preserve">
<path fill="#A97140" d="M261.1,259.1c-2.8-2.5-6.8-3.9-11.1-3.9s-8.3,1.4-11.1,3.9c-3.4,3-5.2,7.7-5.2,13.4
	c0,12.4,14.3,26.9,14.9,27.6c0.4,0.4,0.9,0.6,1.4,0.6s1-0.2,1.4-0.6c0.6-0.6,14.9-15.1,14.9-27.6
	C266.3,266.7,264.5,262.1,261.1,259.1z M250,282.1c-5.7,0-10.2-4.6-10.2-10.4s4.6-10.4,10.2-10.4s10.2,4.6,10.2,10.4
	C260.2,277.4,255.7,282.1,250,282.1z"/>
<g>
	<path fill="#A97140" d="M195.3,218.9h5.2v2.4h-8.1v-14.6h3V218.9z"/>
	<path fill="#A97140" d="M211.4,206.7v10.1c0,1.5-0.4,2.7-1.3,3.5s-2,1.2-3.5,1.2c-1.6,0-2.8-0.4-3.6-1.2c-0.8-0.8-1.2-2-1.2-3.5
		v-10h3v10.1c0,0.8,0.1,1.4,0.4,1.8c0.3,0.4,0.8,0.5,1.5,0.5c0.7,0,1.2-0.2,1.4-0.5c0.3-0.4,0.4-0.9,0.4-1.7v-10.1H211.4z"/>
	<path fill="#A97140" d="M223.6,216.4c-0.1,1.7-0.5,2.9-1.4,3.8c-0.9,0.9-2.1,1.3-3.7,1.3c-1.7,0-2.9-0.5-3.8-1.6
		c-0.9-1.1-1.3-2.6-1.3-4.7v-2.5c0-2,0.5-3.6,1.4-4.6c0.9-1.1,2.2-1.6,3.8-1.6c1.6,0,2.8,0.4,3.6,1.3s1.3,2.2,1.4,3.8h-3
		c0-1-0.2-1.7-0.5-2.1c-0.3-0.4-0.8-0.6-1.6-0.6c-0.8,0-1.3,0.3-1.7,0.8c-0.3,0.6-0.5,1.5-0.5,2.7v2.8c0,1.5,0.2,2.4,0.5,3
		c0.3,0.5,0.9,0.8,1.7,0.8c0.8,0,1.3-0.2,1.6-0.6s0.5-1.1,0.5-2.1H223.6z"/>
	<path fill="#A97140" d="M229.5,215.7l-1.2,1.5v4.2h-3v-14.6h3v6.4l0.9-1.6l2.7-4.8h3.6l-4.2,6.4l4.3,8.2h-3.5L229.5,215.7z"/>
	<path fill="#A97140" d="M241.2,213.3l2.2-6.6h3.2l-3.9,9.3v5.3h-3V216l-3.9-9.3h3.2L241.2,213.3z"/>
	<path fill="#A97140" d="M260.2,215.4h-4.6v6h-3v-14.6h8.1v2.5h-5.1v3.7h4.6V215.4z"/>
	<path fill="#A97140" d="M266.8,216h-1.5v5.3h-3v-14.6h4.7c1.5,0,2.6,0.4,3.4,1.1s1.2,1.9,1.2,3.3c0,1.9-0.7,3.3-2.1,4.1l2.6,6v0.1
		H269L266.8,216z M265.4,213.5h1.7c0.6,0,1-0.2,1.3-0.6c0.3-0.4,0.4-0.9,0.4-1.6c0-1.5-0.6-2.2-1.7-2.2h-1.7V213.5z"/>
	<path fill="#A97140" d="M280.8,218.3h-4l-0.8,3h-3.1l4.6-14.6h2.7l4.6,14.6h-3.2L280.8,218.3z M277.4,215.9h2.7l-1.4-5.2
		L277.4,215.9z"/>
	<path fill="#A97140" d="M296.3,221.3h-2.9l-4.3-9.6v9.6h-3v-14.6h3l4.3,9.6v-9.6h2.9V221.3z"/>
	<path fill="#A97140" d="M302.8,215.7l-1.2,1.5v4.2h-2.9v-14.6h2.9v6.4l0.9-1.6l2.7-4.8h3.6l-4.2,6.4l4.3,8.2h-3.5L302.8,215.7z"/>
	<path fill="#A97140" d="M193.2,246v-14.6h4.5c1.5,0,2.7,0.3,3.5,1c0.8,0.7,1.2,1.7,1.2,3c0,0.7-0.2,1.4-0.5,1.9
		c-0.3,0.5-0.8,0.9-1.3,1.2c0.7,0.2,1.2,0.6,1.5,1.1s0.5,1.3,0.5,2.1c0,1.4-0.4,2.5-1.2,3.2c-0.8,0.7-1.9,1.1-3.4,1.1H193.2z
		 M196.1,237.5h1.5c1.2,0,1.7-0.6,1.7-1.8c0-0.7-0.1-1.1-0.4-1.4c-0.3-0.3-0.7-0.4-1.3-0.4h-1.6V237.5z M196.1,239.6v3.9h1.9
		c0.5,0,0.9-0.2,1.2-0.5c0.3-0.3,0.4-0.8,0.4-1.4c0-1.3-0.5-2-1.4-2H196.1z"/>
	<path fill="#A97140" d="M211.7,243h-4l-0.8,3h-3.1l4.6-14.6h2.7l4.6,14.6h-3.2L211.7,243z M208.3,240.5h2.7l-1.4-5.2L208.3,240.5z"
		/>
	<path fill="#A97140" d="M221.4,240.6h-1.5v5.3h-3v-14.6h4.7c1.5,0,2.6,0.4,3.4,1.1s1.2,1.9,1.2,3.3c0,1.9-0.7,3.3-2.1,4.1l2.6,6
		v0.1h-3.2L221.4,240.6z M219.9,238.2h1.7c0.6,0,1-0.2,1.3-0.6c0.3-0.4,0.4-0.9,0.4-1.6c0-1.5-0.6-2.2-1.7-2.2h-1.7V238.2z"/>
	<path fill="#A97140" d="M228.4,246v-14.6h4.5c1.5,0,2.7,0.3,3.5,1c0.8,0.7,1.2,1.7,1.2,3c0,0.7-0.2,1.4-0.5,1.9
		c-0.3,0.5-0.8,0.9-1.3,1.2c0.7,0.2,1.2,0.6,1.5,1.1s0.5,1.3,0.5,2.1c0,1.4-0.4,2.5-1.2,3.2c-0.8,0.7-1.9,1.1-3.4,1.1H228.4z
		 M231.3,237.5h1.5c1.2,0,1.7-0.6,1.7-1.8c0-0.7-0.1-1.1-0.4-1.4c-0.3-0.3-0.7-0.4-1.3-0.4h-1.6V237.5z M231.3,239.6v3.9h1.9
		c0.5,0,0.9-0.2,1.2-0.5c0.3-0.3,0.4-0.8,0.4-1.4c0-1.3-0.5-2-1.4-2H231.3z"/>
	<path fill="#A97140" d="M247.4,239.7h-4.6v3.9h5.4v2.4h-8.4v-14.6h8.4v2.5h-5.4v3.5h4.6V239.7z"/>
	<path fill="#A97140" d="M254.4,240.6h-1.5v5.3H250v-14.6h4.7c1.5,0,2.6,0.4,3.4,1.1c0.8,0.8,1.2,1.9,1.2,3.3c0,1.9-0.7,3.3-2.1,4.1
		l2.6,6v0.1h-3.2L254.4,240.6z M252.9,238.2h1.7c0.6,0,1-0.2,1.3-0.6c0.3-0.4,0.4-0.9,0.4-1.6c0-1.5-0.6-2.2-1.7-2.2h-1.7V238.2z"/>
	<path fill="#A97140" d="M267.5,242.1c0-0.6-0.2-1-0.5-1.3c-0.3-0.3-0.9-0.6-1.7-0.9c-1.5-0.6-2.5-1.2-3.2-2s-1-1.6-1-2.6
		c0-1.2,0.4-2.2,1.3-3c0.9-0.7,2-1.1,3.3-1.1c0.9,0,1.7,0.2,2.4,0.6c0.7,0.4,1.2,0.9,1.6,1.6c0.4,0.7,0.6,1.5,0.6,2.3h-2.9
		c0-0.7-0.1-1.2-0.4-1.6s-0.7-0.5-1.3-0.5c-0.5,0-0.9,0.2-1.2,0.5c-0.3,0.3-0.4,0.7-0.4,1.2c0,0.4,0.2,0.8,0.5,1.1
		c0.3,0.3,0.9,0.7,1.7,1c1.4,0.5,2.5,1.1,3.1,1.9s1,1.7,1,2.9c0,1.3-0.4,2.3-1.2,3c-0.8,0.7-1.9,1.1-3.3,1.1c-0.9,0-1.8-0.2-2.6-0.6
		c-0.8-0.4-1.4-0.9-1.8-1.7c-0.4-0.7-0.7-1.6-0.7-2.6h3c0,0.8,0.2,1.5,0.5,1.8s0.9,0.6,1.6,0.6C267,243.8,267.5,243.2,267.5,242.1z"
		/>
	<path fill="#A97140" d="M282.7,246h-2.9v-6.3h-4.4v6.3h-2.9v-14.6h2.9v5.9h4.4v-5.9h2.9V246z"/>
	<path fill="#A97140" d="M295.4,240c0,2-0.5,3.5-1.4,4.6c-0.9,1.1-2.2,1.6-3.9,1.6c-1.6,0-2.9-0.5-3.9-1.6c-0.9-1.1-1.4-2.6-1.4-4.5
		v-2.5c0-2,0.5-3.6,1.4-4.7c0.9-1.1,2.2-1.7,3.9-1.7c1.6,0,2.9,0.6,3.8,1.7c0.9,1.1,1.4,2.7,1.4,4.7V240z M292.4,237.5
		c0-1.3-0.2-2.3-0.6-2.9c-0.4-0.6-1-1-1.7-1c-0.8,0-1.4,0.3-1.7,0.9s-0.6,1.6-0.6,2.8v2.6c0,1.3,0.2,2.2,0.6,2.8
		c0.4,0.6,1,0.9,1.8,0.9c0.8,0,1.3-0.3,1.7-0.9c0.4-0.6,0.6-1.5,0.6-2.8V237.5z"/>
	<path fill="#A97140" d="M300.4,240.8v5.1h-3v-14.6h5c1.4,0,2.6,0.4,3.5,1.3c0.9,0.9,1.3,2.1,1.3,3.5s-0.4,2.6-1.3,3.4
		c-0.8,0.8-2,1.2-3.5,1.2H300.4z M300.4,238.4h2c0.6,0,1-0.2,1.3-0.6c0.3-0.4,0.5-0.9,0.5-1.6c0-0.7-0.2-1.3-0.5-1.7
		c-0.3-0.4-0.7-0.7-1.3-0.7h-2.1V238.4z"/>
</g>
</svg>
