<?xml version="1.0" encoding="utf-8"?>
<!-- Generator: Adobe Illustrator 18.0.0, SVG Export Plug-In . SVG Version: 6.00 Build 0)  -->
<!DOCTYPE svg PUBLIC "-//W3C//DTD SVG 1.1//EN" "http://www.w3.org/Graphics/SVG/1.1/DTD/svg11.dtd">
<svg version="1.1" id="Layer_1" xmlns="http://www.w3.org/2000/svg" xmlns:xlink="http://www.w3.org/1999/xlink" x="0px" y="0px"
	 viewBox="124.6 0.3 250.8 399.3" enable-background="new 124.6 0.3 250.8 399.3" xml:space="preserve">
<g>
	<g>
		<path fill="#A97140" d="M217.6,219.8c-17.4,24.5-26.2,48.5-26.2,71.5c0,28.3,12.1,57,23.4,71.7c1.6,2.1,4.1,3.3,6.6,3.3
			c1.8,0,3.6-0.6,5.1-1.7c3.6-2.8,4.3-8,1.6-11.7c-8-10.5-19.9-35.5-19.9-61.6c0-19.5,7.8-40.3,23.1-61.8c2.7-3.8,1.8-8.9-1.9-11.6
			C225.4,215.2,220.3,216.1,217.6,219.8z M303,192.6c71.6-58,77.7-101.8,69.7-128.5c-10.5-34.9-51.1-59.4-106-63.7
			c-3.4-0.2-6.6,1.5-8.1,4.6l-8.9,17.7L240.8,5c-1.5-3.1-5.3-4.8-8.8-4.5c-3.5,0.3-6.5,2.8-7.3,6.3l-9.1,36.5l-9.2-30.5
			c-1.3-4.4-5.9-6.9-10.3-5.6c-39.3,11.6-65,35.3-70.5,65c-4.8,26,4.1,67.7,70.7,120.6c-18.6,23.9-38.3,58.7-38.3,98.7
			c0,34.6,14,70.1,30.4,91.7H183c-4.6,0-8.3,3.7-8.3,8.3c0,4.6,3.7,8.3,8.3,8.3h133.3c4.6,0,8.3-3.7,8.3-8.3c0-4.6-3.7-8.3-8.3-8.3
			H311c16.4-21.5,30.4-57.1,30.4-91.7C341.4,251.3,321.6,216.5,303,192.6z M142.1,75.1C146,53.7,164.4,36,193,25.7l15.4,51.4
			c1.1,3.6,4.4,6,8.2,5.9c3.8-0.1,7-2.7,7.9-6.3l11.2-44.8l6.6,13.2c1.4,2.8,4.3,4.6,7.4,4.6c3.2,0,6-1.8,7.4-4.6l13.8-27.5
			c44.4,4.8,77.8,24.7,85.8,51.4c9.4,31.5-14.8,71.9-68.3,114.1h-77.6C160.8,144.3,136.4,106.1,142.1,75.1z M288.6,383h-77.7
			c-17.5-14.3-36.1-54-36.1-91.7c0-37.1,19.7-69.9,37.3-91.7h75.4c17.6,21.8,37.3,54.6,37.3,91.7C324.7,328.9,306,368.7,288.6,383z"
			/>
	</g>
</g>
</svg>
