<?xml version="1.0" encoding="utf-8"?>
<!-- Generator: Adobe Illustrator 18.0.0, SVG Export Plug-In . SVG Version: 6.00 Build 0)  -->
<!DOCTYPE svg PUBLIC "-//W3C//DTD SVG 1.1//EN" "http://www.w3.org/Graphics/SVG/1.1/DTD/svg11.dtd">
<svg version="1.1" id="Layer_1" xmlns="http://www.w3.org/2000/svg" xmlns:xlink="http://www.w3.org/1999/xlink" x="0px" y="0px"
	 viewBox="50 53.3 400 293.3" enable-background="new 50 53.3 400 293.3" xml:space="preserve">
<g>
	<g>
		<path fill="#A97140" d="M425.2,88.3h-14.8c4.1-5.9,9.7-14.7,13.4-20.6c1.4-2.3,1.7-5.1,0.6-7.5s-3.1-4.3-5.7-4.9
			c-22.9-5.7-48,1.7-63.9,18.9c-2.9,3.1-7.5,8-13.4,14.2h-233c-32.2,0-58.3,26.2-58.3,58.3c0,4.6,3.7,8.3,8.3,8.3h200
			c4.6,0,8.3-3.5,8.3-8.1c0.1-0.2,2.8-4.5,23.5-7.6C243,184.5,178.6,240.6,120.3,272.9c-10.3,5.7-17.4,15.6-19.6,27.1
			c-2.2,11.5,0.9,23.3,8.5,32.4c7.5,9,18.6,14.2,30.2,14.2c6.8,0,13.5-1.8,19.4-5.2c50.8-29.2,147.7-106.9,219-204.8
			c8.8,0.2,17.3,0.4,24.9,0.7c8.4,0.3,15.9,0.5,22,0.6h0.4c6.6,0,12.9-2.6,17.5-7.3c4.7-4.7,7.3-10.9,7.3-17.6
			C450,99.5,438.9,88.3,425.2,88.3z M166.7,296.6c-4.6,0-8.3-3.7-8.3-8.3c0-4.6,3.7-8.3,8.3-8.3c4.6,0,8.3,3.7,8.3,8.3
			C175,292.9,171.3,296.6,166.7,296.6z M283.3,205c-4.6,0-8.3-3.7-8.3-8.3c0-4.6,3.7-8.3,8.3-8.3c4.6,0,8.3,3.7,8.3,8.3
			C291.7,201.3,287.9,205,283.3,205z M309.4,120.7c-25,1.6-49.8,5.2-57.2,17.7H67.5c3.9-19,20.7-33.3,40.8-33.3h216.8
			C320.2,110,314.9,115.2,309.4,120.7z M366.7,113.3c-4.6,0-8.3-3.7-8.3-8.3c0-4.6,3.7-8.3,8.3-8.3s8.3,3.7,8.3,8.3
			C375,109.6,371.3,113.3,366.7,113.3z M430.9,118.9c-1.5,1.5-3.6,2.4-5.8,2.4v8.3l-0.1-8.3c-6.1-0.1-13.5-0.3-21.8-0.6
			c-4.4-0.1-9.1-0.3-14-0.4c3.5-5.1,6.8-10.2,10.1-15.3h25.9c4.5,0,8.1,3.6,8.1,8.1C433.3,115.3,432.5,117.4,430.9,118.9z"/>
	</g>
</g>
</svg>
