<?xml version="1.0" encoding="utf-8"?>
<!-- Generator: Adobe Illustrator 18.0.0, SVG Export Plug-In . SVG Version: 6.00 Build 0)  -->
<!DOCTYPE svg PUBLIC "-//W3C//DTD SVG 1.1//EN" "http://www.w3.org/Graphics/SVG/1.1/DTD/svg11.dtd">
<svg version="1.1" id="Layer_1" xmlns="http://www.w3.org/2000/svg" xmlns:xlink="http://www.w3.org/1999/xlink" x="0px" y="0px"
	 viewBox="50.1 120.1 499.6 366.6" enable-background="new 50.1 120.1 499.6 366.6" xml:space="preserve">
<g>
	<g>
		<path fill="#FFFFFF" d="M195.9,403.3c-5.8,0-10.4,4.6-10.4,10.4c0,5.8,4.6,10.4,10.4,10.4c5.8,0,10.4-4.6,10.4-10.4
			S201.6,403.3,195.9,403.3z M519,163.8h-18.5c5.1-7.5,12.1-18.5,16.7-25.8c1.8-2.9,2.1-6.4,0.8-9.4c-1.3-3.1-3.9-5.4-7.1-6.1
			c-29-7.3-59.6,1.8-79.9,23.6c-3.6,3.9-9.4,10-16.8,17.8H123c-40.3,0-72.9,32.8-72.9,72.9c0,5.8,4.6,10.4,10.4,10.4h250
			c5.8,0,10.4-4.4,10.4-10.1c0.1-0.3,3.5-5.6,29.4-9.5c-59,56.4-139.5,126.6-212.4,166.9c-12.9,7.1-21.8,19.5-24.5,33.9
			c-2.8,14.5,1.1,29.1,10.6,40.5v0.1c9.6,11.6,23.6,17.8,37.8,17.8c8.4,0,16.7-2.1,24.2-6.5c63.5-36.5,184.6-133.6,273.6-255.9
			c11,0.3,21.6,0.6,31.1,0.9c10.5,0.4,19.9,0.6,27.5,0.8h0.5c8.1,0,15.9-3.1,21.8-8.9c6-5.9,9.3-13.8,9.3-22.1
			C550,177.7,536.1,163.8,519,163.8z M302.8,226.3H71.9c4.9-23.8,25.9-41.6,51-41.6h271c-6.1,6.3-12.8,12.9-19.6,19.6
			C343,206.2,312,210.7,302.8,226.3z M472,168.7c-8.5,13.6-17.2,26.8-26.1,38.9c0,0,0,0.1-0.1,0.1
			C358.5,329.3,238.3,426.1,175.5,462c-11.9,6.9-26.9,4.1-35.8-6.5v-0.1c-5.4-6.5-7.6-15-6.1-23.3c1.6-8.3,6.8-15.4,14.1-19.5
			c124.8-69,270.4-222.4,298.3-252.5c11.6-12.5,27.9-19.4,44.5-19.4c-5,7.6-9.4,14.1-10.6,15.6c-0.6,0.6-1.1,1.3-1.6,2
			C476.5,161.8,474.3,165.2,472,168.7L472,168.7z M526.1,202c-2,1.9-4.5,2.6-7.4,2.9c-7.6-0.1-16.9-0.4-27.3-0.8
			c-5.5-0.1-11.4-0.4-17.5-0.5c0.1-0.1,0.1-0.1,0.1-0.2c4.2-6.1,8.3-12.5,12.2-18.8c0,0,0-0.1,0.1-0.1h32.4
			c5.6,0,10.3,4.6,10.3,10.2C529.1,197.5,528.1,200,526.1,202z M445.9,174.2c-5.8,0-10.4,4.6-10.4,10.4s4.6,10.4,10.4,10.4
			s10.4-4.6,10.4-10.4C456.3,178.8,451.6,174.2,445.9,174.2z M341.6,288.8c-5.8,0-10.4,4.6-10.4,10.4s4.6,10.4,10.4,10.4
			c5.8,0,10.4-4.6,10.4-10.4C352.1,293.4,347.4,288.8,341.6,288.8z"/>
	</g>
</g>
</svg>
