<?xml version="1.0" encoding="utf-8"?>
<!-- Generator: Adobe Illustrator 18.0.0, SVG Export Plug-In . SVG Version: 6.00 Build 0)  -->
<!DOCTYPE svg PUBLIC "-//W3C//DTD SVG 1.1//EN" "http://www.w3.org/Graphics/SVG/1.1/DTD/svg11.dtd">
<svg version="1.1" id="Layer_1" xmlns="http://www.w3.org/2000/svg" xmlns:xlink="http://www.w3.org/1999/xlink" x="0px" y="0px"
	 viewBox="50 53.3 400 293.4" enable-background="new 50 53.3 400 293.4" xml:space="preserve">
<g>
	<g>
		<path fill="#A97140" d="M166.7,280c-4.6,0-8.3,3.7-8.3,8.3c0,4.6,3.7,8.3,8.3,8.3c4.6,0,8.3-3.7,8.3-8.3S171.3,280,166.7,280z
			 M425.2,88.4h-14.8c4.1-6,9.7-14.8,13.4-20.6c1.4-2.3,1.7-5.1,0.6-7.5c-1-2.5-3.1-4.3-5.7-4.9c-23.2-5.8-47.7,1.4-63.9,18.9
			c-2.9,3.1-7.5,8-13.4,14.2h-233c-32.2,0-58.3,26.2-58.3,58.3c0,4.6,3.7,8.3,8.3,8.3h200c4.6,0,8.3-3.5,8.3-8.1
			c0.1-0.2,2.8-4.5,23.5-7.6C243,184.5,178.6,240.7,120.3,272.9c-10.3,5.7-17.4,15.6-19.6,27.1c-2.2,11.6,0.9,23.3,8.5,32.4l0,0.1
			c7.7,9.3,18.9,14.2,30.2,14.2c6.7,0,13.4-1.7,19.4-5.2c50.8-29.2,147.7-106.9,218.9-204.7c8.8,0.2,17.3,0.5,24.9,0.7
			c8.4,0.3,15.9,0.5,22,0.6h0.4c6.5,0,12.7-2.5,17.4-7.1c4.8-4.7,7.4-11,7.4-17.7C450,99.5,438.9,88.4,425.2,88.4z M252.2,138.4
			H67.5c3.9-19,20.7-33.3,40.8-33.3h216.8c-4.9,5-10.2,10.3-15.7,15.7C284.4,122.3,259.6,125.9,252.2,138.4z M387.6,92.3
			c-6.8,10.9-13.8,21.4-20.9,31.1c0,0,0,0.1-0.1,0.1c-69.8,97.3-166,174.7-216.2,203.5c-9.5,5.5-21.5,3.3-28.6-5.2l0-0.1
			c-4.3-5.2-6.1-12-4.9-18.6c1.3-6.6,5.4-12.3,11.3-15.6c99.8-55.2,216.3-177.9,238.6-202c9.3-10,22.3-15.5,35.6-15.5
			c-4,6.1-7.5,11.3-8.5,12.5c-0.5,0.5-0.9,1-1.3,1.6C391.2,86.8,389.4,89.5,387.6,92.3C387.6,92.3,387.6,92.3,387.6,92.3z
			 M430.9,119c-1.6,1.5-3.6,2.1-5.9,2.3c-6.1-0.1-13.5-0.3-21.8-0.6c-4.4-0.1-9.1-0.3-14-0.4c0.1-0.1,0.1-0.1,0.1-0.2
			c3.4-4.9,6.6-10,9.8-15c0,0,0-0.1,0.1-0.1h25.9c4.5,0,8.2,3.7,8.2,8.2C433.3,115.4,432.5,117.4,430.9,119z M366.7,96.7
			c-4.6,0-8.3,3.7-8.3,8.3c0,4.6,3.7,8.3,8.3,8.3s8.3-3.7,8.3-8.3C375,100.4,371.3,96.7,366.7,96.7z M283.3,188.4
			c-4.6,0-8.3,3.7-8.3,8.3c0,4.6,3.7,8.3,8.3,8.3c4.6,0,8.3-3.7,8.3-8.3C291.7,192.1,287.9,188.4,283.3,188.4z"/>
	</g>
</g>
</svg>
