<?xml version="1.0" encoding="utf-8"?>
<!-- Generator: Adobe Illustrator 18.0.0, SVG Export Plug-In . SVG Version: 6.00 Build 0)  -->
<!DOCTYPE svg PUBLIC "-//W3C//DTD SVG 1.1//EN" "http://www.w3.org/Graphics/SVG/1.1/DTD/svg11.dtd">
<svg version="1.1" id="Layer_1" xmlns="http://www.w3.org/2000/svg" xmlns:xlink="http://www.w3.org/1999/xlink" x="0px" y="0px"
	 viewBox="122.1 62.8 481.4 499.5" enable-background="new 122.1 62.8 481.4 499.5" xml:space="preserve">
<title>picto_vecto</title>
<circle fill="#FFFFFF" cx="284.9" cy="289.6" r="7.4"/>
<path fill="#FFFFFF" d="M603.4,251.8c-0.2-0.8-0.5-1.5-0.8-2.2c0,0,0,0,0-0.5c-0.5-0.7-1.2-1.3-2-1.9
	c-51.4-33-100.1-69.9-145.8-110.5l16,0.5l0,0c1.3,0,2.5-0.2,3.7-0.8l63.2-35.1c3.2-1.9,4.4-5.9,2.7-9.1l0,0l-14.3-26
	c-1.9-3.2-5.9-4.4-9.1-2.7l0,0l-63.2,35.1c-1,0.7-2,1.5-2.5,2.5l-12.1,21.1c-23.3-21.1-40.4-37.9-46.5-45.2
	c-2.4-2.9-6.7-3.2-9.4-0.7c-2.9,2.4-3.2,6.7-0.7,9.4c32.4,33.7,67.1,65.2,103.6,94.4L399,130.5c-3.2-12.8-16.2-20.7-29-17.5
	s-20.7,16.2-17.5,29c1,4,3,7.8,6.1,10.8l-27,44.8l-1-0.5c-8.4-3.5-18.4,0.2-22.2,8.4c-3.2,7.6-0.7,16.3,6.2,20.7L291,265.6
	l-25.6-14.8c-3.2-1.9-7.4-0.8-9.3,2.4l0,0L239.4,282c-1.9,3.2-0.8,7.4,2.5,9.3l0,0l12.3,6.7l-4.9,8.3l-11.5-6.7
	c-9.1-5.2-20.7-2.2-26,6.7l-1.9,3l0,0c-2.4,4-3,8.9-2,13.5c-4.6,1.3-8.4,4.4-10.8,8.6l-1.9,3c-2.4,4-3,8.9-2,13.5
	c-4.6,1.3-8.4,4.4-10.8,8.6l-1.9,3c-2.4,4-3,8.9-2,13.5c-4.6,1.3-8.4,4.4-10.8,8.6l-1.9,3c-2.4,4-3,8.9-2,13.5
	c-4.7,1.9-8.4,5.4-10.4,9.9l-1.9,3l0,0c-2.4,4-3,8.9-2,13.5c-4.6,1.3-8.4,4.4-10.8,8.6l-1.9,3l0,0c-5.2,9.1-2.2,20.7,6.7,26l9.4,5.4
	l-6.7,11.1c-1.9,3.2-0.8,7.4,2.4,9.3l0,0c4.9,2.9,6.6,9.1,3.7,14.2c-1.3,2.4-3.5,4-6.2,4.7c-2.7,0.7-5.4,0.3-7.8-1
	c-3.2-1.9-7.4-0.8-9.3,2.5c-0.5,0.7-0.7,1.5-0.8,2.4l-6.4,44c-0.5,3.7,2,7.1,5.7,7.6c1.9,0.2,3.5-0.2,5.1-1.3l35.1-27.3
	c0.7-0.5,1.2-1.2,1.7-2l23.6-40.4l9.4,5.4c9.1,5.2,20.7,2.2,26-6.7l1.9-3c2.4-4,3-8.9,2-13.5c4.6-1.3,8.4-4.4,10.8-8.6l2-3.5
	c2.4-4,3-8.9,2-13.5c4.7-1.3,8.9-4.4,11.5-8.8l1.9-3c2.4-4,3-8.9,2-13.5c4.6-1.3,8.4-4.4,10.8-8.6l1.9-3c2.4-4,3-8.9,2-13.5
	c4.6-1.3,8.4-4.4,10.8-8.6l1.9-3c2.4-4,3-8.9,2-13.5c4.6-1.3,8.4-4.4,10.8-8.4l1.9-3c5.2-9.1,2.2-20.7-6.7-26l-12.1-7.1l5.1-8.8
	l11.8,6.7c1.7,1,3.7,1.2,5.6,0.5c4.7-1.7,10.1-1.2,14.5,1.3l134.8,79.4c-1.3,18,12.1,33.9,30.3,35.4c3,0.2,6.2,0,9.3-0.7h0.7
	c9.1-2,17-7.8,21.7-15.8l0,0c3.7-6.6,5.2-14.2,4-21.7c4.4-25.4,12.5-50.1,23.8-73.1l5.2,2.4c2.2,1,4.4,1.5,6.7,1.5
	c9.3-0.2,16.9-7.8,16.7-17c0-6.6-3.9-12.5-9.9-15.2l-1.3-0.7c11.1-15.5,23.4-30.3,36.6-44.2l0,0c0.2-0.2,0.5-0.5,0.7-0.8
	s0.2-0.7,0.3-1c0.5-0.8,0.7-1.9,0.5-2.9c0-0.2,0-0.5,0-0.7l0,0L603.4,251.8z M461.4,109.7l55.6-31l7.8,14.2l-55.6,31l-15.7-0.5
	L461.4,109.7z M531.2,286.7l-5.2-2.4c3-1,5.7-1.7,8.3-2.4C533,283.5,532.2,285.2,531.2,286.7z M366.7,131.3c1.5-2.5,3.9-4.2,6.7-4.9
	c0.8-0.2,1.9-0.3,2.7-0.3c5.7,0.2,10.3,5.1,10.1,10.8c-0.2,5.7-5.1,10.3-10.8,10.1s-10.3-5.1-10.1-10.8
	C365.3,134.5,365.8,132.8,366.7,131.3z M369.9,159.8c1.9,0.5,3.9,0.7,5.7,0.7h2.9c-2.2,1.9-4,4.2-5.6,6.7l-22.6,39.1l-6.1-2.7
	L369.9,159.8z M326.9,232.4l6.1,2.7l-2.7,4.7c-2.4,4-3.5,8.8-3.5,13.5c-2.9-1-6.2,0.2-7.8,2.7l-11.5,18.9l-4.7-2.7L326.9,232.4z
	 M339.7,277.1L339.7,277.1l29.5,17.2l2,1l0,0l43.1,25.1c0.5,0.3,0.8,0.5,1.3,0.7c1.2,1,2.5,2,3.9,2.7l29.7,17.4
	c12.8,7.4,29.3,3,36.7-9.8l12.8-21.9l15.2,6.7c-6.7,13.5-11.5,25.6-14.2,32.5c-16.3-2-32.9,3-45.2,14.2l-135.8-80.2l7.9-13
	L339.7,277.1L339.7,277.1z M410.2,287.2c-2.4,4-3.5,8.8-3.5,13.5l-10.1-5.9c4-2.4,7.4-5.7,9.8-9.8l7.8-13.5l4.2,1.9L410.2,287.2z
	 M159.1,524.5l-20.7,16.2l2.9-19.5c3,0.3,6.1,0.2,9.1-0.7c12.6-3.4,20.2-16.3,16.9-29.2c-1-3.9-3-7.2-5.7-10.1l3.5-6.1l17,9.8
	L159.1,524.5z M219.2,480.3l-1.9,3c-1.5,2.7-4.9,3.5-7.6,2l-44-25.4l0,0L151,451c-2.7-1.5-3.5-4.9-2-7.6l1.9-3
	c1.5-2.7,4.9-3.5,7.6-2l0,0l59.3,34.4C220.2,474.4,220.9,477.8,219.2,480.3L219.2,480.3z M233.9,455l-1.9,3c-1.5,2.7-4.9,3.5-7.6,2
	l0,0l-59.3-34.4c-2.7-1.5-3.5-4.9-2-7.6l1.9-2.9c1.5-2.7,4.9-3.5,7.6-2l0,0l59.2,34.2C234.6,449,235.6,452.4,233.9,455
	C234.1,455,234.1,455,233.9,455L233.9,455z M248.7,429.8l-1.9,3c-1.5,2.7-4.9,3.5-7.6,2l0,0L180,400.4c-2.7-1.5-3.5-4.9-2-7.6l0,0
	l1.9-3c0.7-1.3,2-2.2,3.4-2.5h1.3c1,0,1.9,0.3,2.7,0.7l59.3,34C249.4,423.5,250.2,426.9,248.7,429.8L248.7,429.8L248.7,429.8z
	 M263.4,404.5l-1.9,3c-1.5,2.7-4.9,3.5-7.6,2l0,0l-59.3-34.4c-2.7-1.5-3.5-4.9-2-7.6l1.9-3c1-1.7,2.9-2.7,4.9-2.7
	c1,0,1.9,0.3,2.7,0.7l59.3,34.4C264,398.3,264.9,401.8,263.4,404.5L263.4,404.5L263.4,404.5z M278,379.2l-1.9,3
	c-1.5,2.7-4.9,3.5-7.6,2l0,0l-59.3-34.4c-2.7-1.5-3.5-4.9-2-7.6l0,0l1.9-3c1-1.7,2.9-2.7,4.9-2.7c1,0,1.9,0.3,2.7,0.7l59.3,34.4
	C278.7,373,279.7,376.3,278,379.2C278.2,379,278.2,379,278,379.2L278,379.2z M290.7,346.2c2.7,1.5,3.5,4.9,2,7.6l0,0l-1.9,3
	c-1.5,2.7-4.9,3.5-7.6,2l-59.3-34.4c-2.7-1.5-3.5-4.9-2-7.6l0,0l2-2.9c1.5-2.7,4.9-3.5,7.6-2l0,0L290.7,346.2z M261.2,313.5l4.9-8.4
	l13.5,7.4l-5.2,8.4L261.2,313.5z M480.9,426.2c-9.4-5.6-12.5-17.7-6.9-27.1c1.5-2.7,3.9-5.1,6.4-6.6l7.6,36.2
	C485.5,428.4,483.1,427.6,480.9,426.2z M507.9,419c-1.7,2.7-4,5.1-6.7,6.7l-7.8-36.4c2.5,0.3,5.1,1.2,7.2,2.4
	c9.4,5.6,13,17.5,7.6,27.3H507.9z M513.8,385.3c-2-2-4.2-3.5-6.7-5.1c-6.9-4-15.2-5.4-22.9-3.7H484h-0.3h-1.3
	c-8.6,2.2-15.8,7.9-20.2,15.5c0,0.3-0.3,0.8-0.7,1.3L329.6,316c-6.7-4-14.8-5.2-22.6-3.4l-39.8-22.4l0,0l-12.1-6.7l9.9-17
	l187.6,110.4c2.7,1.7,6.2,1,8.4-1.3c4.9-5.6,22.1-18.5,41.5-12.6c3.5,1,7.2-0.8,8.4-4.4c4.6-12.6,9.8-24.9,15.8-37.1l8.6,3.9
	c-9.6,19-16.7,39.1-21.2,59.8L513.8,385.3z M562.5,319.4c-0.8,1.7-2.7,2.4-4.4,1.7L322.2,215.9c-1.7-0.8-2.5-2.7-1.7-4.4
	c0.5-1.2,1.7-2,3-2c0.5-0.2,0.8-0.2,1.3,0l235.9,105.2c1.7,0.7,2.7,2.5,2,4.2c0,0.2-0.2,0.3-0.2,0.5H562.5z M552.6,296.5l-9.1-4
	c3.5-5.2,7.2-10.3,11.5-15c1.7-2,2.2-4.9,1-7.2c-1.2-2.4-3.5-4-6.2-3.9c-9.8,0.7-19.4,2.5-28.6,5.6l8.1-13.8
	c7.4-12.8,3-29.3-9.8-36.9l0,0L490,204c-12.8-7.4-29.3-3-36.9,9.8l0,0l-17.9,30.3l-4.2-1.9l18.2-31c7.4-12.8,3-29.3-9.8-36.9l0,0
	L410,157.1c-5.4-3-11.8-4.2-17.9-3.2c1.7-1.5,3.4-3.4,4.6-5.4c0.5-1,1-1.9,1.5-2.9l188.1,109.2c-12.1,13.1-23.3,27-33.5,41.5
	L552.6,296.5z"/>
</svg>
