<?xml version="1.0" encoding="utf-8"?>
<!-- Generator: Adobe Illustrator 18.0.0, SVG Export Plug-In . SVG Version: 6.00 Build 0)  -->
<!DOCTYPE svg PUBLIC "-//W3C//DTD SVG 1.1//EN" "http://www.w3.org/Graphics/SVG/1.1/DTD/svg11.dtd">
<svg version="1.1" id="Layer_1" xmlns="http://www.w3.org/2000/svg" xmlns:xlink="http://www.w3.org/1999/xlink" x="0px" y="0px"
	 viewBox="0 0 200 200" enable-background="new 0 0 200 200" xml:space="preserve">
<g>
	<g>
		<rect x="158.6" y="98.2" fill="#FFFFFF" width="3.6" height="3.6"/>
		<rect x="165.7" y="98.2" fill="#FFFFFF" width="3.6" height="3.6"/>
		<polygon fill="#FFFFFF" points="155,101.8 155.1,101.8 155.1,98.2 155,98.2 151.5,98.2 151.4,98.2 151.4,101.8 151.5,101.8 		"/>
		<polygon fill="#FFFFFF" points="147.9,101.8 148,101.8 148,98.2 147.9,98.2 144.4,98.2 144.3,98.2 144.3,101.8 144.4,101.8 		"/>
		<polygon fill="#FFFFFF" points="140.8,101.8 140.9,101.8 140.9,98.2 140.8,98.2 137.3,98.2 137.2,98.2 137.2,101.8 137.3,101.8 		
			"/>
		<polygon fill="#FFFFFF" points="133.7,101.8 133.8,101.8 133.8,98.2 133.7,98.2 130.2,98.2 130.1,98.2 130.1,101.8 130.2,101.8 		
			"/>
		<polygon fill="#FFFFFF" points="73.4,101.8 73.4,101.8 77,101.8 77,101.8 77,101.8 77,101.8 77,98.2 76.9,98.2 76.9,98.2 
			73.4,98.2 73.4,98.2 73.3,98.2 73.3,101.8 73.4,101.8 		"/>
		<polygon fill="#FFFFFF" points="176.3,45.1 176.3,41.6 176.3,41.5 172.7,41.5 172.7,41.6 172.7,45.1 172.7,45.1 176.3,45.1 		"/>
		<polygon fill="#FFFFFF" points="176.3,52.2 176.3,48.7 176.3,48.6 172.7,48.6 172.7,48.7 172.7,52.2 172.7,52.2 176.3,52.2 		"/>
		<polygon fill="#FFFFFF" points="176.3,38 176.3,34.5 176.3,34.5 172.7,34.5 172.7,34.5 172.7,38 172.7,38 176.3,38 		"/>
		<polygon fill="#FFFFFF" points="176.3,59.3 176.3,55.8 176.3,55.7 172.7,55.7 172.7,55.8 172.7,59.3 172.7,59.3 176.3,59.3 		"/>
		<polygon fill="#FFFFFF" points="176.3,30.9 176.3,27.4 176.3,27.4 172.7,27.4 172.7,27.4 172.7,30.9 172.7,31 176.3,31 		"/>
		<polygon fill="#FFFFFF" points="176.3,23.8 176.3,20.3 176.3,20.3 172.7,20.3 172.7,20.3 172.7,23.8 172.7,23.9 176.3,23.9 		"/>
		<polygon fill="#FFFFFF" points="176.3,66.3 176.3,62.8 176.3,62.8 172.7,62.8 172.7,62.8 172.7,66.3 172.7,66.4 176.3,66.4 		"/>
		<polygon fill="#FFFFFF" points="176.3,87.6 176.3,84.1 176.3,84.1 172.7,84.1 172.7,84.1 172.7,87.6 172.7,87.6 176.3,87.6 		"/>
		<polygon fill="#FFFFFF" points="176.3,80.5 176.3,77 176.3,77 172.7,77 172.7,77 172.7,80.5 172.7,80.6 176.3,80.6 		"/>
		<polygon fill="#FFFFFF" points="176.3,73.4 176.3,69.9 176.3,69.9 172.7,69.9 172.7,69.9 172.7,73.4 172.7,73.5 176.3,73.5 		"/>
		<polygon fill="#FFFFFF" points="176.3,101.8 176.3,101.8 176.3,98.3 176.3,98.2 176.3,98.2 172.8,98.2 172.8,98.2 172.7,98.2 
			172.7,98.3 172.7,101.8 172.7,101.8 176.3,101.8 		"/>
		<polygon fill="#FFFFFF" points="176.3,94.7 176.3,91.2 176.3,91.1 172.7,91.1 172.7,91.2 172.7,94.7 172.7,94.7 176.3,94.7 		"/>
		<rect x="30.8" y="98.2" fill="#FFFFFF" width="3.6" height="3.6"/>
		<rect x="37.9" y="98.2" fill="#FFFFFF" width="3.6" height="3.6"/>
		<polygon fill="#FFFFFF" points="108.9,101.8 112.4,101.8 112.4,101.8 112.4,101.8 112.4,98.2 112.4,98.2 112.4,98.2 108.9,98.2 
			108.9,98.2 108.8,98.2 108.8,101.8 108.9,101.8 		"/>
		<polygon fill="#FFFFFF" points="116,101.8 119.5,101.8 119.5,101.8 119.6,101.8 119.6,98.2 119.5,98.2 119.5,98.2 116,98.2 
			116,98.2 115.9,98.2 115.9,101.8 116,101.8 		"/>
		<polygon fill="#FFFFFF" points="101.8,101.8 101.9,101.8 105.3,101.8 105.3,101.8 105.3,101.8 105.4,101.8 105.4,98.2 105.3,98.2 
			105.3,98.2 105.3,98.2 101.9,98.2 101.8,98.2 101.8,98.2 101.7,98.2 101.7,101.8 101.8,101.8 		"/>
		<polygon fill="#FFFFFF" points="94.7,101.8 94.8,101.8 98.1,101.8 98.2,101.8 98.2,101.8 98.3,101.8 98.3,98.2 98.2,98.2 
			98.2,98.2 98.1,98.2 94.8,98.2 94.7,98.2 94.7,98.2 94.6,98.2 94.6,101.8 94.7,101.8 		"/>
		<polygon fill="#FFFFFF" points="87.6,101.8 91.1,101.8 91.1,101.8 91.2,101.8 91.2,98.2 91.1,98.2 91.1,98.2 87.6,98.2 87.6,98.2 
			87.6,98.2 87.6,101.8 87.6,101.8 		"/>
		<polygon fill="#FFFFFF" points="80.5,101.8 84,101.8 84,101.8 84.1,101.8 84.1,98.2 84,98.2 84,98.2 80.5,98.2 80.5,98.2 
			80.4,98.2 80.4,101.8 80.5,101.8 		"/>
		<polygon fill="#FFFFFF" points="55.6,101.8 55.7,101.8 55.7,98.2 55.6,98.2 52.1,98.2 52,98.2 52,101.8 52.1,101.8 		"/>
		<polygon fill="#FFFFFF" points="48.5,101.8 48.6,101.8 48.6,98.2 48.5,98.2 45,98.2 44.9,98.2 44.9,101.8 45,101.8 		"/>
		<polygon fill="#FFFFFF" points="69.8,101.8 69.9,101.8 69.9,98.2 69.8,98.2 66.3,98.2 66.2,98.2 66.2,101.8 66.3,101.8 		"/>
		<polygon fill="#FFFFFF" points="62.7,101.8 62.8,101.8 62.8,98.2 62.7,98.2 59.2,98.2 59.1,98.2 59.1,101.8 59.2,101.8 		"/>
		<polygon fill="#FFFFFF" points="77,59.3 77,59.3 77,59.3 77,55.8 77,55.7 77,55.7 73.4,55.7 73.4,55.7 73.4,55.8 73.4,59.3 
			73.4,59.3 73.4,59.3 		"/>
		<polygon fill="#FFFFFF" points="77,52.2 77,52.2 77,52.2 77,48.7 77,48.6 77,48.6 73.4,48.6 73.4,48.6 73.4,48.7 73.4,52.2 
			73.4,52.2 73.4,52.2 		"/>
		<polygon fill="#FFFFFF" points="77,66.4 77,66.4 77,66.3 77,62.8 77,62.8 77,62.8 73.4,62.8 73.4,62.8 73.4,62.8 73.4,66.3 
			73.4,66.4 73.4,66.4 		"/>
		<polygon fill="#FFFFFF" points="77,80.6 77,80.6 77,80.5 77,77 77,77 77,77 73.4,77 73.4,77 73.4,77 73.4,80.5 73.4,80.6 
			73.4,80.6 		"/>
		<polygon fill="#FFFFFF" points="77,73.5 77,73.5 77,73.4 77,69.9 77,69.9 77,69.9 73.4,69.9 73.4,69.9 73.4,69.9 73.4,73.4 
			73.4,73.5 73.4,73.5 		"/>
		<polygon fill="#FFFFFF" points="77,23.9 77,23.9 77,23.8 77,20.3 77,20.3 77,20.3 73.4,20.3 73.4,20.3 73.4,20.3 73.4,23.8 
			73.4,23.9 73.4,23.9 		"/>
		<polygon fill="#FFFFFF" points="77,45.1 77,45.1 77,45.1 77,41.6 77,41.5 77,41.5 73.4,41.5 73.4,41.5 73.4,41.6 73.4,45.1 
			73.4,45.1 73.4,45.1 		"/>
		<polygon fill="#FFFFFF" points="77,38 77,38 77,38 77,34.5 77,34.5 77,34.5 73.4,34.5 73.4,34.5 73.4,34.5 73.4,38 73.4,38 
			73.4,38 		"/>
		<polygon fill="#FFFFFF" points="77,31 77,31 77,30.9 77,27.4 77,27.4 77,27.4 73.4,27.4 73.4,27.4 73.4,27.4 73.4,30.9 73.4,31 
			73.4,31 		"/>
		<polygon fill="#FFFFFF" points="77,87.6 77,87.6 77,87.6 77,84.1 77,84.1 77,84.1 73.4,84.1 73.4,84.1 73.4,84.1 73.4,87.6 
			73.4,87.6 73.4,87.6 		"/>
		<polygon fill="#FFFFFF" points="77,94.7 77,94.7 77,94.7 77,91.2 77,91.1 77,91.1 73.4,91.1 73.4,91.1 73.4,91.2 73.4,94.7 
			73.4,94.7 73.4,94.7 		"/>
		<polygon fill="#FFFFFF" points="27.3,30.9 27.3,27.4 27.3,27.4 23.7,27.4 23.7,27.4 23.7,30.9 23.7,31 27.3,31 		"/>
		<polygon fill="#FFFFFF" points="27.3,38 27.3,34.5 27.3,34.5 23.7,34.5 23.7,34.5 23.7,38 23.7,38 27.3,38 		"/>
		<polygon fill="#FFFFFF" points="27.3,45.1 27.3,41.6 27.3,41.5 23.7,41.5 23.7,41.6 23.7,45.1 23.7,45.1 27.3,45.1 		"/>
		<polygon fill="#FFFFFF" points="27.3,23.8 27.3,20.3 27.3,20.3 23.7,20.3 23.7,20.3 23.7,23.8 23.7,23.9 27.3,23.9 		"/>
		<polygon fill="#FFFFFF" points="27.3,52.2 27.3,48.7 27.3,48.6 23.7,48.6 23.7,48.7 23.7,52.2 23.7,52.2 27.3,52.2 		"/>
		<polygon fill="#FFFFFF" points="27.3,59.3 27.3,55.8 27.3,55.7 23.7,55.7 23.7,55.8 23.7,59.3 23.7,59.3 27.3,59.3 		"/>
		<polygon fill="#FFFFFF" points="27.3,66.3 27.3,62.8 27.3,62.8 23.7,62.8 23.7,62.8 23.7,66.3 23.7,66.4 27.3,66.4 		"/>
		<polygon fill="#FFFFFF" points="27.3,80.5 27.3,77 27.3,77 23.7,77 23.7,77 23.7,80.5 23.7,80.6 27.3,80.6 		"/>
		<polygon fill="#FFFFFF" points="27.3,94.7 27.3,91.2 27.3,91.1 23.7,91.1 23.7,91.2 23.7,94.7 23.7,94.7 27.3,94.7 		"/>
		<polygon fill="#FFFFFF" points="27.3,87.6 27.3,84.1 27.3,84.1 23.7,84.1 23.7,84.1 23.7,87.6 23.7,87.6 27.3,87.6 		"/>
		<polygon fill="#FFFFFF" points="27.3,73.4 27.3,69.9 27.3,69.9 23.7,69.9 23.7,69.9 23.7,73.4 23.7,73.5 27.3,73.5 		"/>
		<polygon fill="#FFFFFF" points="27.3,101.8 27.3,101.8 27.3,98.3 27.3,98.2 27.2,98.2 27.2,98.2 23.7,98.2 23.7,98.2 23.7,98.3 
			23.7,101.8 23.7,101.8 23.7,101.8 		"/>
		<polygon fill="#FFFFFF" points="126.6,45.1 126.7,45.1 126.7,45.1 126.7,41.6 126.7,41.5 126.6,41.5 123,41.5 123,41.5 123,41.6 
			123,45.1 123,45.1 123,45.1 		"/>
		<polygon fill="#FFFFFF" points="126.6,52.2 126.7,52.2 126.7,52.2 126.7,48.7 126.7,48.6 126.6,48.6 123,48.6 123,48.6 123,48.7 
			123,52.2 123,52.2 123,52.2 		"/>
		<polygon fill="#FFFFFF" points="126.6,38 126.7,38 126.7,38 126.7,34.5 126.7,34.5 126.6,34.5 123,34.5 123,34.5 123,34.5 123,38 
			123,38 123,38 		"/>
		<polygon fill="#FFFFFF" points="126.6,59.3 126.7,59.3 126.7,59.3 126.7,55.8 126.7,55.7 126.6,55.7 123,55.7 123,55.7 123,55.8 
			123,59.3 123,59.3 123,59.3 		"/>
		<polygon fill="#FFFFFF" points="126.6,31 126.7,31 126.7,30.9 126.7,27.4 126.7,27.4 126.6,27.4 123,27.4 123,27.4 123,27.4 
			123,30.9 123,31 123,31 		"/>
		<polygon fill="#FFFFFF" points="126.6,23.9 126.7,23.9 126.7,23.8 126.7,20.3 126.7,20.3 126.6,20.3 123,20.3 123,20.3 123,20.3 
			123,23.8 123,23.9 123,23.9 		"/>
		<polygon fill="#FFFFFF" points="126.6,66.4 126.7,66.4 126.7,66.3 126.7,62.8 126.7,62.8 126.6,62.8 123,62.8 123,62.8 123,62.8 
			123,66.3 123,66.4 123,66.4 		"/>
		<polygon fill="#FFFFFF" points="126.6,87.6 126.7,87.6 126.7,87.6 126.7,84.1 126.7,84.1 126.6,84.1 123,84.1 123,84.1 123,84.1 
			123,87.6 123,87.6 123,87.6 		"/>
		<polygon fill="#FFFFFF" points="126.6,80.6 126.7,80.6 126.7,80.5 126.7,77 126.7,77 126.6,77 123,77 123,77 123,77 123,80.5 
			123,80.6 123,80.6 		"/>
		<polygon fill="#FFFFFF" points="126.6,73.5 126.7,73.5 126.7,73.4 126.7,69.9 126.7,69.9 126.6,69.9 123,69.9 123,69.9 123,69.9 
			123,73.4 123,73.5 123,73.5 		"/>
		<polygon fill="#FFFFFF" points="123,101.8 123,101.8 126.6,101.8 126.7,101.8 126.7,101.8 126.7,101.8 126.7,98.2 126.6,98.2 
			126.6,98.2 123.1,98.2 123.1,98.2 123,98.2 123,101.8 123,101.8 		"/>
		<polygon fill="#FFFFFF" points="126.6,94.7 126.7,94.7 126.7,94.7 126.7,91.2 126.7,91.1 126.6,91.1 123,91.1 123,91.1 123,91.2 
			123,94.7 123,94.7 123,94.7 		"/>
	</g>
	<path fill="#FFFFFF" d="M111.8,53.7c0-3.4-0.9-5.9-2.7-7.5c-1.8-1.6-4.3-2.4-7.4-2.4H88.1v31.5h6V63.7h7.1c3.4,0,6.1-0.8,7.9-2.3
		C110.8,60,111.8,57.3,111.8,53.7z M104.4,57.6c-0.9,0.8-2.2,1.3-3.8,1.3h-6.4V48.7h6.4c1.6,0,2.9,0.4,3.8,1.2
		c0.9,0.8,1.4,2.1,1.4,3.9C105.8,55.5,105.3,56.8,104.4,57.6z"/>
	<path fill="#FFFFFF" d="M149.7,23.5C149.7,23.5,149.7,23.5,149.7,23.5c-0.1,0-3.7-0.1-5.8,0.7c-1.4,0.5-4.3,2.2-6.3,5.2
		c-0.1,0.2-0.3,0.4-0.5,0.5c-0.2,0.2-0.4,0.4-0.6,0.7c-0.2,0.4-0.4,1.3-0.5,1.8c0,0.1-0.1,0.2-0.1,0.3c-0.5,1.9-0.4,5.9-0.4,7.3
		c0,0.2,0,0.3,0,0.4c0,0.3,0.1,0.5,0.1,0.9c0.1,0.5,0.2,1.1,0.2,2V52c-0.2,0.2-1.4,1.1-1.9,1.8c-0.5,0.8-0.4,1.1-0.2,1.4l0,0
		c0,0,0.1,0.1,0.1,0.1l2.1-0.5c0.1,1.4,0.5,15.2,0.2,18.5c0,0.5,0,0.6-0.1,0.8c-0.1,0.2-0.1,0.5-0.2,1.2c-0.1,1.5,0,3.1,0.2,4.5
		c0.2,0.9,0.4,1.2,0.7,1.5c0.1,0.2,0.3,0.3,0.4,0.6c0.1,0.3,0.4,1.1,0.8,2c0.5,1.3,1.1,3,1.6,3.9c0.7,1.4,0.9,1.8,1.4,1.9
		c0.1,0.4,0.5,1.3,0.8,1.7c0.4,0.5,4.6,1.9,7.9,1.9c0,0,0,0,0,0c0,0,0,0,0,0c3.3,0,7.5-1.4,7.9-1.9c0.3-0.3,0.7-1.3,0.8-1.7
		c0.4-0.1,0.7-0.5,1.4-1.9c0.4-0.9,1.1-2.6,1.6-3.9c0.3-0.9,0.6-1.7,0.8-2c0.1-0.3,0.3-0.4,0.4-0.6c0.3-0.3,0.5-0.6,0.7-1.5
		c0.2-1.4,0.3-3,0.2-4.5c-0.1-0.7-0.1-1-0.2-1.2c-0.1-0.2-0.1-0.3-0.1-0.9c-0.3-3.4,0.2-17.1,0.2-18.5l2.1,0.5c0,0,0.1,0,0.1-0.1
		l0,0c0.1-0.1,0.1-0.3,0.1-0.5c0-0.2-0.1-0.5-0.4-0.9c-0.5-0.7-1.7-1.7-1.9-1.8v-8.6c0-0.9,0.1-1.5,0.2-2c0.1-0.4,0.1-0.6,0.1-0.9
		c0-0.1,0-0.2,0-0.4c0-1.3,0.1-5.4-0.4-7.3c0-0.1-0.1-0.2-0.1-0.3c-0.1-0.6-0.4-1.4-0.5-1.8c-0.1-0.3-0.4-0.5-0.6-0.7
		c-0.2-0.1-0.3-0.3-0.5-0.5c-2-3-4.9-4.7-6.3-5.2C153.4,23.4,149.7,23.5,149.7,23.5C149.7,23.5,149.7,23.5,149.7,23.5z M139.7,76.6
		c-0.5-1.3-1.8-10-2.1-12.7c-0.2-2.7,0-13.3,0-13.1c0,0.2,2.5,8.6,2.7,11.4c0.2,2.7,0.1,13,0,14.8C140.4,76.9,140.3,78.3,139.7,76.6
		z M155.3,85.1c-0.3,1.3-1.1,2-2.1,2.5c-1,0.4-3.4,0.5-3.4,0.5s-2.5,0-3.5-0.5c-1-0.5-1.8-1.2-2.1-2.5c0,0-1.1-6.7-1.1-7.9
		c0-1.2,0.2-1.3,1.2-1.3c1,0,4,0.2,5.5,0.2c1.5,0,4.5-0.2,5.4-0.2c1,0,1.2,0.2,1.2,1.3C156.3,78.4,155.3,85.1,155.3,85.1z
		 M161.7,63.9c-0.2,2.7-1.6,11.4-2.1,12.7c-0.6,1.7-0.6,0.3-0.6,0.3c-0.1-1.8-0.2-12,0-14.8c0.2-2.7,2.7-11.2,2.7-11.4
		C161.7,50.6,161.9,61.2,161.7,63.9z M149.7,44.6L149.7,44.6c11.4,0,11.9,3.6,11.9,3.6c-0.3,1.2-2.7,9.3-2.7,9.3s-0.2,1-1.2,0.6
		c-1.2-0.5-6.5-1.1-8.1-1.1c-1.6,0-6.7,0.7-7.9,1.1c-1,0.4-1.2-0.6-1.2-0.6s-2.3-8.1-2.7-9.3c0,0,0.3-3.6,11.7-3.6l0,0
		C149.5,44.6,149.5,44.6,149.7,44.6C149.6,44.6,149.6,44.6,149.7,44.6z M143.2,35c-0.1-0.1,0-0.9,0.5-2c0.5-1.1,0.9-1.9,1.3-1.8
		c0.3,0-0.2,1.5-0.3,2c-0.1,0.4-0.5,1.8-0.8,1.9C143.5,35.1,143.2,35.1,143.2,35z M155.7,33c0.4,1.1,0.5,1.9,0.5,2s-0.3,0.1-0.7,0
		c-0.3-0.1-0.6-1.4-0.8-1.9c-0.1-0.4-0.5-1.9-0.3-2C154.8,31.1,155.3,31.9,155.7,33z M157.2,26.3c1.7,0.8,4.1,3.6,4.9,4.8
		c0.1,0.1,0.4,0.8,0.1,0.4c-1.2-1-3.9-2.1-4.7-2.7c-0.4-0.3-1.1-1.1-1.4-1.8C155.8,26.4,156,25.7,157.2,26.3z M143.3,27.1
		c-0.3,0.7-1,1.5-1.4,1.8c-0.8,0.6-3.5,1.7-4.7,2.7c-0.4,0.3,0-0.3,0.1-0.4c0.8-1.2,3.2-4,4.9-4.8C143.3,25.7,143.5,26.4,143.3,27.1
		z"/>
	<path fill="#FFFFFF" d="M50.4,93.8L50.4,93.8c7.7,0,12.4-2.6,12.8-2.8h0.7l0-0.1c0,0,1.8-4.8,2.1-7.7c0.2-1.9,0.1-4.1-0.1-6.9
		c-0.1-1.4-0.2-3-0.3-4.8c-0.2-4.8-0.3-20.9-0.3-22.8c0.9,0.5,2.6,0.6,2.7,0.6l0.1,0l0-0.1c0-0.1,0-0.3,0-0.4
		c-0.3-1.1-2.5-1.9-2.9-2.1c0-0.3-0.1-1.3,0-2c0-0.3,0.1-0.7,0.2-1.1c0.2-0.9,0.4-2.1,0.5-3.3c0.1-1.6-0.1-3.2-0.6-5
		c-0.4-1.4-3.2-7.7-3.4-8.1c0-0.1-0.1-0.2-0.1-0.3c-0.2-0.6-0.6-1.6-1.7-2.1c-1.2-0.6-6.9-1.9-9.6-2v0c0,0,0,0-0.1,0c0,0,0,0-0.1,0
		v0c-2.7,0-8.5,1.3-9.6,2c-1.1,0.6-1.5,1.5-1.7,2.1c0,0.1-0.1,0.2-0.1,0.3c-0.2,0.4-2.9,6.7-3.4,8.1c-0.5,1.7-0.7,3.4-0.6,5
		c0.1,1.2,0.3,2.4,0.5,3.3c0.1,0.5,0.2,0.9,0.2,1.1c0.1,0.6,0,1.7,0,2c-0.4,0.2-2.6,1-2.9,2.1c0,0,0,0.1,0,0.2s0,0.2,0,0.2l0,0.1
		l0.1,0c0.1,0,1.9-0.1,2.7-0.6c0,1.8-0.1,18-0.3,22.8c-0.1,1.8-0.2,3.4-0.3,4.8c-0.2,2.8-0.4,5-0.1,6.9c0.4,2.9,2.1,7.6,2.1,7.7
		l0,0.1h0.7c0.2,0.1,1.4,0.7,3.4,1.4c2,0.6,5.2,1.4,9.4,1.4v0C50.3,93.8,50.3,93.8,50.4,93.8C50.3,93.8,50.4,93.8,50.4,93.8z
		 M50.3,25.7L50.3,25.7c0,0,0.7,0.6,0.7,1.1h-0.7h0h-0.7C49.6,26.3,50.3,25.7,50.3,25.7L50.3,25.7L50.3,25.7L50.3,25.7z M39.8,27.9
		c0.2-0.7,0.5-1.1,0.7-1.3c0.3-0.2,1.8-0.9,1.8-0.9s0.7,5.1,0.6,5.1c-0.5,0.1-4.9,2.7-4.9,2.7C38.1,33.2,39.6,28.6,39.8,27.9z
		 M57.7,30.8c0,0,0.6-5.1,0.6-5.1s1.5,0.8,1.8,0.9c0.3,0.2,0.6,0.6,0.7,1.3c0.2,0.7,1.7,5.3,1.8,5.6C62.6,33.5,58.2,30.8,57.7,30.8z
		 M63.8,66.9c0.1,5.5,0.2,9.9,0.2,9.9l-3.3-2.5c0,0,0.2-10.4,0.2-12.9c0-2.5,2.2-14.2,3.1-16.8C64,44.6,63.7,61.4,63.8,66.9z
		 M37.5,41.9c1.1-1.4,5.4-3.9,6.7-4.4c1.2-0.4,3.9-0.5,6-0.5v0c0.1,0,0.1,0,0.2,0c0.1,0,0.1,0,0.2,0v0c2.1,0,4.9,0.1,6,0.5
		c1.2,0.5,5.6,3,6.7,4.4c0,0.1-2.8,12.2-2.8,12.2s-3.8-0.3-10.1-0.3c-6.2,0-10,0.3-10,0.3S37.5,41.9,37.5,41.9z M36.8,66.9
		c0.1-5.5-0.2-22.3-0.2-22.3c1,2.6,3.1,14.3,3.1,16.8c0,2.5,0.2,12.9,0.2,12.9l-3.3,2.5C36.6,76.8,36.7,72.5,36.8,66.9z M50.5,87
		L50.5,87c-3.3,0-8.1-0.6-8.1-0.6s0.1-14.1,0.2-14.1c0.9,0.5,6.8,0.5,8,0.5l0,0c0,0,0,0,0.1,0c0.1,0,0.1,0,0.1,0l0,0
		c1.1,0,6.5,0,7.4-0.5c0,0,0.2,14.1,0.2,14.1S53.8,87,50.7,87l0,0C50.7,87,50.6,87,50.5,87C50.6,87,50.5,87,50.5,87z"/>
	<g>
		<rect x="37.9" y="98.2" fill="#FFFFFF" width="3.6" height="3.6"/>
		<rect x="30.8" y="98.2" fill="#FFFFFF" width="3.6" height="3.6"/>
		<polygon fill="#FFFFFF" points="45,98.2 44.9,98.2 44.9,101.8 45,101.8 48.5,101.8 48.6,101.8 48.6,98.2 48.5,98.2 		"/>
		<polygon fill="#FFFFFF" points="52.1,98.2 52,98.2 52,101.8 52.1,101.8 55.6,101.8 55.7,101.8 55.7,98.2 55.6,98.2 		"/>
		<polygon fill="#FFFFFF" points="59.2,98.2 59.1,98.2 59.1,101.8 59.2,101.8 62.7,101.8 62.8,101.8 62.8,98.2 62.7,98.2 		"/>
		<polygon fill="#FFFFFF" points="66.3,98.2 66.2,98.2 66.2,101.8 66.3,101.8 69.8,101.8 69.9,101.8 69.9,98.2 69.8,98.2 		"/>
		<polygon fill="#FFFFFF" points="126.6,98.2 126.6,98.2 123,98.2 123,98.2 123,98.2 123,98.2 123,101.8 123.1,101.8 123.1,101.8 
			126.6,101.8 126.6,101.8 126.7,101.8 126.7,98.2 126.6,98.2 		"/>
		<polygon fill="#FFFFFF" points="23.7,154.9 23.7,158.4 23.7,158.5 27.3,158.5 27.3,158.4 27.3,154.9 27.3,154.9 23.7,154.9 		"/>
		<polygon fill="#FFFFFF" points="23.7,147.8 23.7,151.3 23.7,151.4 27.3,151.4 27.3,151.3 27.3,147.8 27.3,147.8 23.7,147.8 		"/>
		<polygon fill="#FFFFFF" points="23.7,162 23.7,165.5 23.7,165.5 27.3,165.5 27.3,165.5 27.3,162 27.3,162 23.7,162 		"/>
		<polygon fill="#FFFFFF" points="23.7,140.7 23.7,144.2 23.7,144.3 27.3,144.3 27.3,144.2 27.3,140.7 27.3,140.7 23.7,140.7 		"/>
		<polygon fill="#FFFFFF" points="23.7,169.1 23.7,172.6 23.7,172.6 27.3,172.6 27.3,172.6 27.3,169.1 27.3,169 23.7,169 		"/>
		<polygon fill="#FFFFFF" points="23.7,176.2 23.7,179.7 23.7,179.7 27.3,179.7 27.3,179.7 27.3,176.2 27.3,176.1 23.7,176.1 		"/>
		<polygon fill="#FFFFFF" points="23.7,133.7 23.7,137.2 23.7,137.2 27.3,137.2 27.3,137.2 27.3,133.7 27.3,133.6 23.7,133.6 		"/>
		<polygon fill="#FFFFFF" points="23.7,112.4 23.7,115.9 23.7,115.9 27.3,115.9 27.3,115.9 27.3,112.4 27.3,112.4 23.7,112.4 		"/>
		<polygon fill="#FFFFFF" points="23.7,119.5 23.7,123 23.7,123 27.3,123 27.3,123 27.3,119.5 27.3,119.4 23.7,119.4 		"/>
		<polygon fill="#FFFFFF" points="23.7,126.6 23.7,130.1 23.7,130.1 27.3,130.1 27.3,130.1 27.3,126.6 27.3,126.5 23.7,126.5 		"/>
		<polygon fill="#FFFFFF" points="23.7,98.2 23.7,98.2 23.7,101.7 23.7,101.8 23.7,101.8 27.2,101.8 27.2,101.8 27.3,101.8 
			27.3,101.7 27.3,98.2 27.3,98.2 23.7,98.2 		"/>
		<polygon fill="#FFFFFF" points="23.7,105.3 23.7,108.8 23.7,108.9 27.3,108.9 27.3,108.8 27.3,105.3 27.3,105.3 23.7,105.3 		"/>
		<rect x="165.7" y="98.2" fill="#FFFFFF" width="3.6" height="3.6"/>
		<rect x="158.6" y="98.2" fill="#FFFFFF" width="3.6" height="3.6"/>
		<polygon fill="#FFFFFF" points="91.1,98.2 87.6,98.2 87.6,98.2 87.6,98.2 87.6,101.8 87.6,101.8 87.6,101.8 91.1,101.8 
			91.1,101.8 91.2,101.8 91.2,98.2 91.1,98.2 		"/>
		<polygon fill="#FFFFFF" points="84,98.2 80.5,98.2 80.5,98.2 80.4,98.2 80.4,101.8 80.5,101.8 80.5,101.8 84,101.8 84,101.8 
			84.1,101.8 84.1,98.2 84,98.2 		"/>
		<polygon fill="#FFFFFF" points="98.2,98.2 98.1,98.2 94.7,98.2 94.7,98.2 94.7,98.2 94.6,98.2 94.6,101.8 94.7,101.8 94.7,101.8 
			94.7,101.8 98.1,101.8 98.2,101.8 98.2,101.8 98.3,101.8 98.3,98.2 98.2,98.2 		"/>
		<polygon fill="#FFFFFF" points="105.3,98.2 105.2,98.2 101.9,98.2 101.8,98.2 101.8,98.2 101.7,98.2 101.7,101.8 101.8,101.8 
			101.8,101.8 101.9,101.8 105.2,101.8 105.3,101.8 105.3,101.8 105.4,101.8 105.4,98.2 105.3,98.2 		"/>
		<polygon fill="#FFFFFF" points="112.4,98.2 108.9,98.2 108.9,98.2 108.8,98.2 108.8,101.8 108.9,101.8 108.9,101.8 112.4,101.8 
			112.4,101.8 112.4,101.8 112.4,98.2 112.4,98.2 		"/>
		<polygon fill="#FFFFFF" points="119.5,98.2 116,98.2 116,98.2 115.9,98.2 115.9,101.8 116,101.8 116,101.8 119.5,101.8 
			119.5,101.8 119.6,101.8 119.6,98.2 119.5,98.2 		"/>
		<polygon fill="#FFFFFF" points="144.4,98.2 144.3,98.2 144.3,101.8 144.4,101.8 147.9,101.8 148,101.8 148,98.2 147.9,98.2 		"/>
		<polygon fill="#FFFFFF" points="151.5,98.2 151.4,98.2 151.4,101.8 151.5,101.8 155,101.8 155.1,101.8 155.1,98.2 155,98.2 		"/>
		<polygon fill="#FFFFFF" points="130.2,98.2 130.1,98.2 130.1,101.8 130.2,101.8 133.7,101.8 133.8,101.8 133.8,98.2 133.7,98.2 		
			"/>
		<polygon fill="#FFFFFF" points="137.3,98.2 137.2,98.2 137.2,101.8 137.3,101.8 140.8,101.8 140.9,101.8 140.9,98.2 140.8,98.2 		
			"/>
		<polygon fill="#FFFFFF" points="123,140.7 123,140.7 123,140.7 123,144.2 123,144.3 123,144.3 126.6,144.3 126.6,144.3 
			126.6,144.2 126.6,140.7 126.6,140.7 126.6,140.7 		"/>
		<polygon fill="#FFFFFF" points="123,147.8 123,147.8 123,147.8 123,151.3 123,151.4 123,151.4 126.6,151.4 126.6,151.4 
			126.6,151.3 126.6,147.8 126.6,147.8 126.6,147.8 		"/>
		<polygon fill="#FFFFFF" points="123,133.6 123,133.6 123,133.7 123,137.2 123,137.2 123,137.2 126.6,137.2 126.6,137.2 
			126.6,137.2 126.6,133.7 126.6,133.6 126.6,133.6 		"/>
		<polygon fill="#FFFFFF" points="123,119.4 123,119.4 123,119.5 123,123 123,123 123,123 126.6,123 126.6,123 126.6,123 
			126.6,119.5 126.6,119.4 126.6,119.4 		"/>
		<polygon fill="#FFFFFF" points="123,126.5 123,126.5 123,126.6 123,130.1 123,130.1 123,130.1 126.6,130.1 126.6,130.1 
			126.6,130.1 126.6,126.6 126.6,126.5 126.6,126.5 		"/>
		<polygon fill="#FFFFFF" points="123,176.1 123,176.1 123,176.2 123,179.7 123,179.7 123,179.7 126.6,179.7 126.6,179.7 
			126.6,179.7 126.6,176.2 126.6,176.1 126.6,176.1 		"/>
		<polygon fill="#FFFFFF" points="123,154.9 123,154.9 123,154.9 123,158.4 123,158.5 123,158.5 126.6,158.5 126.6,158.5 
			126.6,158.4 126.6,154.9 126.6,154.9 126.6,154.9 		"/>
		<polygon fill="#FFFFFF" points="123,162 123,162 123,162 123,165.5 123,165.5 123,165.5 126.6,165.5 126.6,165.5 126.6,165.5 
			126.6,162 126.6,162 126.6,162 		"/>
		<polygon fill="#FFFFFF" points="123,169 123,169 123,169.1 123,172.6 123,172.6 123,172.6 126.6,172.6 126.6,172.6 126.6,172.6 
			126.6,169.1 126.6,169 126.6,169 		"/>
		<polygon fill="#FFFFFF" points="123,112.4 123,112.4 123,112.4 123,115.9 123,115.9 123,115.9 126.6,115.9 126.6,115.9 
			126.6,115.9 126.6,112.4 126.6,112.4 126.6,112.4 		"/>
		<polygon fill="#FFFFFF" points="123,105.3 123,105.3 123,105.3 123,108.8 123,108.9 123,108.9 126.6,108.9 126.6,108.9 
			126.6,108.8 126.6,105.3 126.6,105.3 126.6,105.3 		"/>
		<polygon fill="#FFFFFF" points="172.7,169.1 172.7,172.6 172.7,172.6 176.3,172.6 176.3,172.6 176.3,169.1 176.3,169 172.7,169 		
			"/>
		<polygon fill="#FFFFFF" points="172.7,162 172.7,165.5 172.7,165.5 176.3,165.5 176.3,165.5 176.3,162 176.3,162 172.7,162 		"/>
		<polygon fill="#FFFFFF" points="172.7,154.9 172.7,158.4 172.7,158.5 176.3,158.5 176.3,158.4 176.3,154.9 176.3,154.9 
			172.7,154.9 		"/>
		<polygon fill="#FFFFFF" points="172.7,176.2 172.7,179.7 172.7,179.7 176.3,179.7 176.3,179.7 176.3,176.2 176.3,176.1 
			172.7,176.1 		"/>
		<polygon fill="#FFFFFF" points="172.7,147.8 172.7,151.3 172.7,151.4 176.3,151.4 176.3,151.3 176.3,147.8 176.3,147.8 
			172.7,147.8 		"/>
		<polygon fill="#FFFFFF" points="172.7,140.7 172.7,144.2 172.7,144.3 176.3,144.3 176.3,144.2 176.3,140.7 176.3,140.7 
			172.7,140.7 		"/>
		<polygon fill="#FFFFFF" points="172.7,133.7 172.7,137.2 172.7,137.2 176.3,137.2 176.3,137.2 176.3,133.7 176.3,133.6 
			172.7,133.6 		"/>
		<polygon fill="#FFFFFF" points="172.7,119.5 172.7,123 172.7,123 176.3,123 176.3,123 176.3,119.5 176.3,119.4 172.7,119.4 		"/>
		<polygon fill="#FFFFFF" points="172.7,105.3 172.7,108.8 172.7,108.9 176.3,108.9 176.3,108.8 176.3,105.3 176.3,105.3 
			172.7,105.3 		"/>
		<polygon fill="#FFFFFF" points="172.7,112.4 172.7,115.9 172.7,115.9 176.3,115.9 176.3,115.9 176.3,112.4 176.3,112.4 
			172.7,112.4 		"/>
		<polygon fill="#FFFFFF" points="172.7,126.6 172.7,130.1 172.7,130.1 176.3,130.1 176.3,130.1 176.3,126.6 176.3,126.5 
			172.7,126.5 		"/>
		<polygon fill="#FFFFFF" points="172.7,98.2 172.7,98.2 172.7,101.7 172.7,101.8 172.8,101.8 172.8,101.8 176.3,101.8 176.3,101.8 
			176.3,101.7 176.3,98.2 176.3,98.2 176.3,98.2 		"/>
		<polygon fill="#FFFFFF" points="73.4,154.9 73.3,154.9 73.3,154.9 73.3,158.4 73.3,158.5 73.4,158.5 77,158.5 77,158.5 77,158.4 
			77,154.9 77,154.9 77,154.9 		"/>
		<polygon fill="#FFFFFF" points="73.4,147.8 73.3,147.8 73.3,147.8 73.3,151.3 73.3,151.4 73.4,151.4 77,151.4 77,151.4 77,151.3 
			77,147.8 77,147.8 77,147.8 		"/>
		<polygon fill="#FFFFFF" points="73.4,162 73.3,162 73.3,162 73.3,165.5 73.3,165.5 73.4,165.5 77,165.5 77,165.5 77,165.5 77,162 
			77,162 77,162 		"/>
		<polygon fill="#FFFFFF" points="73.4,140.7 73.3,140.7 73.3,140.7 73.3,144.2 73.3,144.3 73.4,144.3 77,144.3 77,144.3 77,144.2 
			77,140.7 77,140.7 77,140.7 		"/>
		<polygon fill="#FFFFFF" points="73.4,169 73.3,169 73.3,169.1 73.3,172.6 73.3,172.6 73.4,172.6 77,172.6 77,172.6 77,172.6 
			77,169.1 77,169 77,169 		"/>
		<polygon fill="#FFFFFF" points="73.4,176.1 73.3,176.1 73.3,176.2 73.3,179.7 73.3,179.7 73.4,179.7 77,179.7 77,179.7 77,179.7 
			77,176.2 77,176.1 77,176.1 		"/>
		<polygon fill="#FFFFFF" points="73.4,133.6 73.3,133.6 73.3,133.7 73.3,137.2 73.3,137.2 73.4,137.2 77,137.2 77,137.2 77,137.2 
			77,133.7 77,133.6 77,133.6 		"/>
		<polygon fill="#FFFFFF" points="73.4,112.4 73.3,112.4 73.3,112.4 73.3,115.9 73.3,115.9 73.4,115.9 77,115.9 77,115.9 77,115.9 
			77,112.4 77,112.4 77,112.4 		"/>
		<polygon fill="#FFFFFF" points="73.4,119.4 73.3,119.4 73.3,119.5 73.3,123 73.3,123 73.4,123 77,123 77,123 77,123 77,119.5 
			77,119.4 77,119.4 		"/>
		<polygon fill="#FFFFFF" points="73.4,126.5 73.3,126.5 73.3,126.6 73.3,130.1 73.3,130.1 73.4,130.1 77,130.1 77,130.1 77,130.1 
			77,126.6 77,126.5 77,126.5 		"/>
		<polygon fill="#FFFFFF" points="77,98.2 77,98.2 73.4,98.2 73.3,98.2 73.3,98.2 73.3,98.2 73.3,101.8 73.4,101.8 73.4,101.8 
			76.9,101.8 76.9,101.8 77,101.8 77,98.2 77,98.2 		"/>
		<polygon fill="#FFFFFF" points="73.4,105.3 73.3,105.3 73.3,105.3 73.3,108.8 73.3,108.9 73.4,108.9 77,108.9 77,108.9 77,108.8 
			77,105.3 77,105.3 77,105.3 		"/>
	</g>
	<path fill="#FFFFFF" d="M111.9,134.5c0-3.4-0.9-5.9-2.7-7.5c-1.8-1.6-4.3-2.4-7.4-2.4H88.2v31.5h6v-11.6h7.1c3.4,0,6.1-0.8,7.9-2.3
		C111,140.8,111.9,138.2,111.9,134.5z M104.5,138.5c-0.9,0.8-2.2,1.3-3.8,1.3h-6.4v-10.2h6.4c1.6,0,2.9,0.4,3.8,1.2
		c0.9,0.8,1.4,2.1,1.4,3.9C105.9,136.3,105.4,137.7,104.5,138.5z"/>
	<g>
		<path fill="#FFFFFF" d="M153.6,151c2.8-0.4,4.8-1.3,5.9-2.4c0.8-0.9,0.6-2,0.6-2c0-0.2-0.3-23.7-0.4-25.2c-0.1-3.7-3.5-5.5-10-5.5
			c-6.5,0-9.9,1.9-10,5.5c0,1.5-0.4,25-0.4,25.2c0,0,0,0.2,0,0.4c0,0.4,0.1,1.1,0.6,1.6c1.1,1.2,3.1,2,5.9,2.4
			c2.1,0.3,3.9,0.3,3.9,0.3C149.7,151.3,151.5,151.3,153.6,151z M149.2,121.2c0-0.5,0.2-0.8,0.5-0.8c0.3,0,0.5,0.4,0.5,0.8
			c0,0.5-0.2,0.8-0.5,0.8C149.4,122,149.2,121.6,149.2,121.2z"/>
		<path fill="#FFFFFF" d="M160.1,170.6l0.3-0.2c1.7-1.4,3.1-2.5,3.1-6l0-12.6c0-0.2,0-0.7,0-0.9c1.2,0.4,2.2,0.2,2.8-0.5
			c0.5-0.6,0.6-1.4,0.2-2.2c-0.1-0.2-0.4-0.2-1.7,0.1c-0.5,0.1-1.1,0.2-1.3,0.2c0-1.9,0-4.8,0-7.8c0-7.2-0.1-16.2,0-19
			c0.2-3.3-0.3-5.6-1.6-6.8c-1-1-4-2.8-12.2-2.8c-8.2,0-11.2,1.7-12.2,2.8c-1.3,1.3-1.8,3.5-1.6,6.9c0.2,2.7,0.1,11.7,0,18.9
			c0,3,0,5.8,0,7.8c-0.2,0-0.8-0.1-1.3-0.2c-1.2-0.2-1.6-0.3-1.7-0.1c-0.2,0.4-0.3,0.7-0.3,1.1c0,0.4,0.1,0.9,0.4,1.2
			c0.6,0.7,1.6,0.8,2.8,0.5c0,0.3,0,0.8,0,0.9l0,12.6c0,3.6,1.4,4.6,3.1,6l0.3,0.2c2.8,2.3,9.2,2.4,10.5,2.4
			C150.9,173,157.4,172.9,160.1,170.6z M162.2,167.5c0,0-0.6,0.9-1.5,1.6c-0.9,0.7-1.8,1.2-1.8,1.2c-0.6-0.8-0.6-1.9,0.5-2.8
			C160.6,166.7,161.6,166.8,162.2,167.5z M155.3,171.5c-0.2,0-2.2,0.3-2.3,0.3c0.1,0,1.4-7.7,1.8-10.9c0,0,1.7-0.3,2.6-0.5
			C157.4,160.4,156.5,168.1,155.3,171.5z M139.4,158.2c-2.1-1.2-2.2-3.5-2.2-5.4l0-0.1c0-0.3,0-0.6,0-1c0-2.9,0.1-9.3,0.3-13.5
			c0.2-4.7,0.5-15.6,0.4-17.8c0-2.1-0.1-3.4,2.4-4.9c2.4-1.5,7.8-2,9.4-2c1.6,0,7,0.5,9.4,2c2.5,1.5,2.4,2.8,2.4,4.9
			c0,2.2,0.3,13.2,0.5,17.8c0.2,4.8,0.3,12.6,0.3,14.5l0,0.1c0,1.9-0.1,4.2-2.2,5.4c-2.3,1.3-6.2,2.1-10.3,2.1
			C145.6,160.4,141.7,159.6,139.4,158.2z M138.6,169.2c-0.9-0.7-1.5-1.6-1.5-1.6c0.6-0.8,1.7-0.9,2.7,0c1.1,0.9,1.2,2,0.5,2.8
			C140.4,170.4,139.5,169.9,138.6,169.2z M144,171.5c-1.1-3.4-2.1-11.1-2.1-11.1c0.9,0.3,2.6,0.5,2.6,0.5c0.4,3.2,1.7,10.9,1.8,10.9
			C146.2,171.8,144.2,171.5,144,171.5z"/>
	</g>
	<path fill="#FFFFFF" d="M44.8,110.7c-3.2,0.3-5.1,2.3-6.3,4.9s-0.9,6.4-0.9,8.9c0,2.5,0.8,4.2,0.8,4.2s-0.2,2.6-0.3,5.7
		c-0.1,0-0.6,0.3-0.6,1.3c-0.1,0.9,0.4,1.3,0.5,1.4c0,0.2,0,0.4,0,0.6c-0.1,4.4,0.2,13.4,0.1,13.5c-1-0.5-2.7-0.7-2.7-0.7
		c-0.1,1.1,2.1,2.5,2.1,2.5c-0.5,4-0.4,6.9-0.3,8.6c0.1,1.7,0.2,4.3,2.8,6.6c2.9,2.6,8,3,10.3,3l0,0h0h0l0,0c2.3,0,7.4-0.4,10.3-3
		c2.6-2.3,2.6-4.9,2.8-6.6c0.1-1.7,0.1-4.6-0.3-8.6c0,0.1,2.3-1.4,2.1-2.5c0,0-1.7,0.1-2.7,0.7c0-0.1,0.2-9.1,0.1-13.5
		c0-0.2,0-0.4,0-0.6c0.1-0.1,0.6-0.5,0.5-1.4c-0.1-1-0.6-1.3-0.6-1.3c-0.1-3.1-0.3-5.7-0.3-5.7s0.8-1.7,0.8-4.2
		c0-2.5,0.3-6.3-0.9-8.9c-1.2-2.7-3.1-4.6-6.3-4.9c-3.2-0.3-3.7-0.3-5.5-0.3c0,0,0,0,0,0c0,0,0,0,0,0
		C48.5,110.4,48,110.4,44.8,110.7z M51,169.5c0,0.2-0.3,0.3-0.7,0.3c-0.4,0-0.7-0.1-0.7-0.3s0.3-0.3,0.7-0.3
		C50.7,169.2,51,169.3,51,169.5z M61.7,165.5c0.2,0.3-0.3,1-1.1,1.6c-0.8,0.6-1.7,0.8-1.9,0.5c-0.2-0.3,0.3-1,1.1-1.6
		C60.6,165.5,61.4,165.2,61.7,165.5z M40.9,166c0.8,0.6,1.3,1.3,1.1,1.6c-0.2,0.3-1.1,0.1-1.9-0.5c-0.8-0.6-1.3-1.3-1.1-1.6
		C39.2,165.2,40.1,165.5,40.9,166z M38.9,128.8l0.8-6.7c0,0,0.5,3.5,0.7,6.1c0.2,2.6,0.1,13.1-0.2,15.5c-0.3,2.3-1.3,10.5-1.3,10.5
		C38.7,148.2,38.9,128.8,38.9,128.8z M61.2,156.2L61.2,156.2c-1,2.1-2.9,3.5-5.6,4.4c-2.3,0.7-4.6,0.8-5.2,0.8
		c-0.6,0-2.9-0.1-5.2-0.8c-2.7-0.9-4.6-2.3-5.6-4.3l0,0l0,0c0.1-0.4,0.9-6.2,1.3-9.2l0-0.1l0.1,0c0,0,0.9,0.4,2.6,0.7
		c1.5,0.3,3.9,0.7,7,0.7c3,0,5.5-0.4,7-0.7c1.6-0.4,2.5-0.7,2.6-0.7l0,0l0,0.1C60.3,150.1,61.1,155.8,61.2,156.2L61.2,156.2z
		 M61.7,128.8c0,0,0.2,19.3,0,25.3c0,0-1-8.2-1.3-10.5c-0.3-2.4-0.5-12.9-0.2-15.5c0.2-2.6,0.7-6.1,0.7-6.1L61.7,128.8z M58.6,117.4
		L58.6,117.4L58.6,117.4c0,0,0.1,2.3,0.2,4.6c0,1.1,0.1,2.3,0.1,3.1c0,0.8,0,1.1,0,1.3c0,0,0,0.1,0,0.1l0,0l0,0c0,0.1,0,0.1,0,0.1
		l0,0l0,0c-2-1.1-8.5-1.1-8.5-1.1c-0.1,0-6.5,0-8.5,1.1l0,0l0,0c0,0,0,0,0-0.1h0l0,0c0-0.1,0-0.4,0-1.4c0-0.9,0.1-2,0.1-3.1
		c0.1-2.3,0.2-4.6,0.2-4.6l0,0c0-0.1,1-2.4,7.8-2.4l0,0h0.1C52,114.9,57,115.1,58.6,117.4z M48.5,114.5v-0.4h3.7l0,0.4H48.5z
		 M59.3,112.9c0.8,0.4,1.2,1,1.1,1.3c-0.2,0.3-0.9,0.2-1.6-0.2c-0.8-0.4-1.2-1-1.1-1.3C57.8,112.4,58.6,112.5,59.3,112.9z M43,112.6
		c0.2,0.3-0.3,0.8-1.1,1.3c-0.7,0.4-1.5,0.5-1.6,0.2c-0.2-0.3,0.3-0.8,1.1-1.3C42.1,112.5,42.8,112.4,43,112.6z"/>
</g>
</svg>
