<?xml version="1.0" encoding="utf-8"?>
<!-- Generator: Adobe Illustrator 18.0.0, SVG Export Plug-In . SVG Version: 6.00 Build 0)  -->
<!DOCTYPE svg PUBLIC "-//W3C//DTD SVG 1.1//EN" "http://www.w3.org/Graphics/SVG/1.1/DTD/svg11.dtd">
<svg version="1.1" id="Layer_1" xmlns="http://www.w3.org/2000/svg" xmlns:xlink="http://www.w3.org/1999/xlink" x="0px" y="0px"
	 viewBox="0 0 200 200" enable-background="new 0 0 200 200" xml:space="preserve">
<g>
	<path fill="#FFFFFF" d="M56.4,63l-22.9,41.8l66.5,73.1l66.5-73.3L143.7,63H56.4z M135.6,71.1l-11.2,28l-17.6-28H135.6z M115.2,99.7
		H84.7l15.1-24.3L115.2,99.7z M93.1,71.1L75.8,98.9l-11-27.8H93.1z M58.2,76.6l9.2,23.1H45.6L58.2,76.6z M47.8,107.9h22.9l17.6,44.1
		L47.8,107.9z M100,160.9l-20.6-52.2l0.2-0.8h40.6l0.2,0.8l0.2,0.2L100,160.9z M112.1,152.1l17.6-44.1h22.7L112.1,152.1z
		 M132.9,99.7l9.2-22.9l12.7,22.9H132.9z"/>
	<rect x="96" y="22.1" fill="#FFFFFF" width="8.2" height="26.5"/>
	
		<rect x="167.8" y="36.3" transform="matrix(-0.6924 -0.7215 0.7215 -0.6924 254.3134 209.8485)" fill="#FFFFFF" width="8.2" height="28.8"/>
	
		<rect x="13.7" y="46.6" transform="matrix(-0.7215 -0.6925 0.6925 -0.7215 13.2685 106.7894)" fill="#FFFFFF" width="28.8" height="8.2"/>
</g>
</svg>
