<?xml version="1.0" encoding="utf-8"?>
<!-- Generator: Adobe Illustrator 18.0.0, SVG Export Plug-In . SVG Version: 6.00 Build 0)  -->
<!DOCTYPE svg PUBLIC "-//W3C//DTD SVG 1.1//EN" "http://www.w3.org/Graphics/SVG/1.1/DTD/svg11.dtd">
<svg version="1.1" id="Layer_1" xmlns="http://www.w3.org/2000/svg" xmlns:xlink="http://www.w3.org/1999/xlink" x="0px" y="0px"
	 viewBox="0 0 200 200" enable-background="new 0 0 200 200" xml:space="preserve">
<g>
	<path fill="#FFFFFF" d="M76.5,103.7c13.4,12.6,2.1,37.9-10.1,47.9c-8,8-21.6,11.1-29.1-0.3c-4.1-7,0-12.6,4.4-18.6
		c2.3-3.1,4.6-6.2,3.6-10.3l6.2-5.2c1.8,0.5,2.8,0.8,3.9-0.8c9.3-10.6,20.4-22.4,17.8-36.1c5.7-7.2,61.6-74.2,66.2-71.1
		c-17,26.3-36.1,52.3-54.1,78.1C79.6,93.9,77.6,98.3,76.5,103.7L76.5,103.7z M77.3,80c2.1-1.8,4.9-1.5,6.7,0.3
		c1.8,2.1,1.5,5.4-0.5,7c-2.1,1.8-4.9,1.5-6.7-0.5C75,84.9,75.3,81.6,77.3,80L77.3,80z M60.8,121.5c-4.6,6.7-9.8,12.1-16,17.5
		c-3.9,4.6-2.1,9.5,3.4,11.6c13.7,3.9,30.4-18.8,24.5-28.6C69.8,117.7,63.7,116.4,60.8,121.5z"/>
	<path fill="#FFFFFF" d="M91.5,83.4c6.7-4.4,71.4-44.8,69.1-49.5c-18,8.5-35.8,18.3-53.4,27.1L91.5,83.4z"/>
	<path fill="#FFFFFF" d="M58.2,83.6c-10.6-15.2-37.4-7.2-49,3.4c-8.8,6.7-13.7,19.8-3.6,28.6c6.2,5.2,12.6,1.8,18.8-1.5
		c3.6-2.1,6.7-4.1,10.8-2.3l5.9-5.4c-0.5-1.8-0.3-2.8,1.5-3.9c8.5-5.7,17.8-12.1,27.6-13.4c0.8-3.1,0.5-5.4-0.3-8.8
		C65.7,82.6,62.1,83.4,58.2,83.6z M38.7,96.5c-7.5,3.9-13.7,8.2-19.8,13.7c-5.2,3.1-9.5,0.5-11.1-5.2c-1.5-13.9,22.9-27.6,32-20.1
		C43.6,88.3,43.8,94.5,38.7,96.5z"/>
	<circle fill="#FFFFFF" cx="80.5" cy="83.6" r="2"/>
	<path fill="#FFFFFF" d="M63.9,170.7C102.6,135.2,141,99.6,179.6,64c2.3-2.1,4.6,0.8,6.4,3.4c4.6,5.9,9,12.4,13.7,18.6
		c0.5,1,0.5,2.1-0.3,2.8c-0.8,0.5-2.1,0.5-2.6-0.3l-11.9-12.6l-2.8,2.8l11.6,12.6c0.8,0.8,0.8,2.1,0,2.6c-0.8,0.8-2.1,0.8-2.8,0
		l-11.6-12.6l-2.8,2.6l11.9,12.6c0.5,0.8,0.5,2.1-0.5,2.8c-0.8,0.8-2.1,0.5-2.6,0l-11.9-12.9l-2.6,2.6l11.6,12.9
		c0.5,0.5,0.5,1.8-0.3,2.6s-2.1,0.8-2.6,0L168,91.9l-3.1,2.6l11.9,12.9c0.5,0.5,0.5,1.8-0.3,2.3c-0.8,0.8-2.1,0.8-2.6,0.3L162.1,97
		l-2.8,2.8l11.6,12.6c0.5,0.8,0.5,2.1,0,2.6c-1,0.8-2.1,0.8-2.8,0l-11.6-12.6l-2.8,2.6l11.6,12.6c0.8,0.8,0.5,2.1-0.3,2.8
		c-0.8,0.8-2.1,0.8-2.6,0l-11.9-12.6l-2.8,2.6l11.9,12.6c0.5,0.8,0.5,2.1-0.3,2.8c-0.8,0.5-2.1,0.5-2.6-0.3L144.8,113l-2.8,2.6
		l11.6,12.9c0.8,0.5,0.5,1.8,0,2.6c-0.8,0.8-2.1,0.5-2.8,0l-11.6-12.9l-3.1,2.8l11.9,12.9c0.5,0.5,0.8,1.5-0.3,2.3
		c-0.8,0.8-2.1,0.8-2.6,0.3l-11.9-12.9l-2.8,2.6l11.9,12.9c0.5,0.5,0.5,1.8-0.3,2.6c-0.8,0.8-2.1,0.5-2.6,0l-11.6-12.9l-3.1,2.8
		l11.9,12.6c0.5,0.8,0.5,2.1-0.5,2.8c-0.5,0.5-1.8,0.5-2.3-0.3l-11.9-12.6l-2.8,2.8l11.6,12.6c0.5,0.8,0.5,2.1,0,2.6
		c-1,0.8-2.1,0.5-2.8,0c-4.1-3.6-6.4-11.1-13.1-5.4c-39.2,33.2-24.5,34.5-33.2,43c-6.2,4.1-14.9-7.7-17.8-11.1
		C61.3,176.4,61.6,172.8,63.9,170.7L63.9,170.7z M69.3,170c2.1-2.3,5.9-2.1,8.2,0.3c2.1,2.3,2.1,6.2-0.3,8.5
		c-2.6,2.1-6.2,1.8-8.5-0.5C66.8,175.9,66.8,172,69.3,170z"/>
	<path fill="#FFFFFF" d="M76,173.1c-0.5-1.8-2.3-2.3-3.9-1.8c-1.5,0.8-2.3,2.6-1.8,4.1c0.8,1.5,2.6,2.3,4.1,1.5
		C76,176.4,76.8,174.6,76,173.1z"/>
</g>
</svg>
