<?xml version="1.0" encoding="utf-8"?>
<!-- Generator: Adobe Illustrator 18.0.0, SVG Export Plug-In . SVG Version: 6.00 Build 0)  -->
<!DOCTYPE svg PUBLIC "-//W3C//DTD SVG 1.1//EN" "http://www.w3.org/Graphics/SVG/1.1/DTD/svg11.dtd">
<svg version="1.1" id="Layer_1" xmlns="http://www.w3.org/2000/svg" xmlns:xlink="http://www.w3.org/1999/xlink" x="0px" y="0px"
	 viewBox="141.7 0 216.7 400" enable-background="new 141.7 0 216.7 400" xml:space="preserve">
<g>
	<g>
		<path fill="#A97140" d="M316.7,33.3c-22.8,0-41.4,18.4-41.6,41.2c0,0.1,0,0.1,0,0.2c0,0,0,0.1,0,0.2c0,0,0,0.1,0,0.1
			c0,0.1,0,0.2,0,0.3c-0.2,9.7,3,19.2,6.2,28.4c4.9,14.4,9.5,27.9,2.9,42.9c-0.6,1.3-0.7,2.6-0.6,3.9c-6.2,10.6-11.6,21.4-15.9,31.7
			c-4.5-4.5-10.8-7.3-17.6-7.3s-13.1,2.8-17.6,7.3c-4.3-10.4-9.7-21.2-15.9-31.7c0.1-1.3,0-2.7-0.6-3.9c-6.7-15-2.1-28.5,2.9-42.9
			c3.1-9,6.2-18.4,6.1-27.9c0-0.3,0.1-0.5,0.1-0.8c0-0.1,0-0.2,0-0.2c0,0,0,0,0,0v0c-0.2-20.3-14.8-37.1-34.1-40.6
			C187.3,14.7,170.4,0,150,0c-4.6,0-8.3,3.7-8.3,8.3s3.7,8.3,8.3,8.3c11.3,0,20.8,7.6,23.8,17.9c-18.4,4.3-32.2,20.8-32.2,40.5
			c0,17.9,11.4,33.1,27.3,38.9c0.1,0.1,0.1,0.2,0.2,0.3c23.3,22.6,54.5,76.5,55.8,102.8c1.4,28.4,16.1,169.5,16.7,175.4
			c0,0.3,0.2,0.5,0.2,0.8c0.1,0.5,0.2,0.9,0.4,1.4c0.2,0.5,0.5,1,0.8,1.5c0.3,0.4,0.5,0.8,0.8,1.1c0.4,0.4,0.8,0.8,1.3,1.1
			c0.4,0.3,0.7,0.5,1.2,0.7c0.6,0.3,1.2,0.4,1.8,0.6c0.3,0.1,0.6,0.3,0.9,0.3c0.3,0,0.6,0,0.8,0c0.3,0,0.6,0,0.9-0.1
			c0.3,0,0.6-0.2,0.9-0.3c0.6-0.1,1.2-0.3,1.8-0.6c0.4-0.2,0.8-0.5,1.1-0.7c0.5-0.3,0.9-0.7,1.3-1.1c0.3-0.3,0.6-0.7,0.8-1.1
			c0.3-0.5,0.6-0.9,0.8-1.5c0.2-0.5,0.3-0.9,0.4-1.4c0-0.3,0.2-0.5,0.2-0.8c0.6-6,15.3-147.1,16.7-175.4
			c1.3-26.2,32.5-80.1,55.8-102.8c0.1-0.1,0.1-0.3,0.3-0.3c15.9-5.9,27.3-21.1,27.3-39C358.3,52,339.6,33.3,316.7,33.3z M183.3,100
			c-13.8,0-25-11.2-25-25s11.2-25,25-25c13.8,0,25,11.2,25,25S197.1,100,183.3,100z M250,309.1c-3.3-33.3-6.6-67.8-7.9-85.5
			c2.5,0.8,5.1,1.4,7.9,1.4s5.4-0.6,7.9-1.4C256.6,241.3,253.3,275.9,250,309.1z M316.7,100c-13.8,0-25-11.2-25-25s11.2-25,25-25
			s25,11.2,25,25S330.4,100,316.7,100z"/>
	</g>
</g>
</svg>
