<?xml version="1.0" encoding="utf-8"?>
<!-- Generator: Adobe Illustrator 18.0.0, SVG Export Plug-In . SVG Version: 6.00 Build 0)  -->
<!DOCTYPE svg PUBLIC "-//W3C//DTD SVG 1.1//EN" "http://www.w3.org/Graphics/SVG/1.1/DTD/svg11.dtd">
<svg version="1.1" id="Layer_1" xmlns="http://www.w3.org/2000/svg" xmlns:xlink="http://www.w3.org/1999/xlink" x="0px" y="0px"
	 viewBox="112.5 26.9 269.5 347.6" enable-background="new 112.5 26.9 269.5 347.6" xml:space="preserve">
<title>Artboard 16</title>
<g>
	<path fill="#A97140" d="M234.3,287.4v-59.7c0,0,0-0.3,0-0.4l-11.5-168C221.5,41.2,206.4,27,188.2,27c-7.1,0-13.1,5.4-13.8,12.5
		l-14.9,180.8c-0.2,2.3,0.9,4.5,2.9,5.6l29.6,17.6v12l-23.1-13.3c-2.9-1.7-6.5-0.7-8.2,2.2c-0.5,0.9-0.8,1.9-0.8,3v40h-1.6
		c-25.2,0-45.7,19.5-45.7,43.5s20.5,43.5,45.7,43.5c16.2,0.1,31.3-8.3,39.8-22.1c7.1,12.6,20,20.9,34.4,22h3
		c24,0,43.5-19.5,43.5-43.5c0-1,0-1.9-0.1-2.9C277,304.9,257.5,287.2,234.3,287.4z M192,331c-0.7,18-15.7,32.1-33.7,31.5
		c-17.4,1.2-32.5-11.9-33.8-29.3c-1.2-17.4,11.9-32.5,29.3-33.8c1.5-0.1,3-0.1,4.5,0h7.8c3.3,0,6-2.7,6-6v-35.8l20,11.6v60.6
		c0,0.3,0,0.5,0,0.8S192,330.8,192,331z M257.8,353.2c-6.5,6.5-15.4,9.8-24.6,9.2c-16.8-1.5-29.5-15.8-29.2-32.6V240
		c0-2.1-1.1-4.1-2.9-5.2l-29.3-17.4l14.6-177.1c0.1-0.9,0.8-1.6,1.8-1.6c12,0,21.9,9.3,22.7,21.3l11.5,168v65.4c0,3.3,2.7,6,6,6h6
		c16.8-0.3,31.1,12.5,32.6,29.2C267.6,337.8,264.2,346.8,257.8,353.2L257.8,353.2z"/>
	<path fill="#A97140" d="M158.2,312c-10.5,0-19,8.5-19,19s8.5,19,19,19s19-8.5,19-19C177.3,320.5,168.7,312,158.2,312z M158.2,338.1
		c-3.9,0-7-3.2-7-7s3.2-7,7-7c3.9,0,7,3.2,7,7c0.1,3.9-3,7.1-7,7.2c0,0-0.1,0-0.1,0V338.1z"/>
	<path fill="#A97140" d="M235.4,312c-10.5,0-19,8.5-19,19s8.5,19,19,19c10.5,0,19-8.5,19-19C254.4,320.5,245.9,312,235.4,312z
		 M235.4,338.1c-3.9,0-7-3.2-7-7c0-3.9,3.2-7,7-7c3.9,0,7,3.2,7,7c0.1,3.9-3,7.1-7,7.2c0,0-0.1,0-0.1,0V338.1z"/>
	<circle fill="#A97140" cx="198" cy="201.4" r="7.2"/>
	<path fill="#A97140" d="M375.9,168.3L378,58.9c0-17.7-14.3-32-32-32h-62.2c-3.3,0-6,2.7-6,6s2.7,6,6,6H318v13.8h-34.2
		c-3.3,0-6,2.7-6,6s2.7,6,6,6H318v13.8h-34.2c-3.3,0-6,2.7-6,6s2.7,6,6,6H318V104h-34.2c-3.3,0-6,2.7-6,6s2.7,6,6,6H318v13.8h-34.2
		c-3.3,0-6,2.7-6,6s2.7,6,6,6H318v13.8h-34.2c-3.3,0-6,2.7-6,6s2.7,6,6,6H318v13.8h-34.2c-3.3,0-6,2.7-6,6s2.7,6,6,6H318v8
		c0,0.8,0.2,1.6,0.5,2.4c10,23,13.7,48.2,10.7,73.1l-7.8,63.6c-1.9,16.7,10,31.8,26.7,33.7c16.7,1.9,31.8-10,33.7-26.7
		c0.1-1.2,0.2-2.4,0.2-3.6l-6.2-109.4C374.6,212.3,374.6,190.3,375.9,168.3z M351.6,362.4c-10.2,0-18.4-8.2-18.4-18.4
		c0-0.8,0-1.5,0.1-2.3l7.8-63.4c3.3-26.6-0.5-53.7-11.1-78.4V38.9h16c11,0,20,9,20,20L363.9,168c-1.3,22.4-1.3,44.8,0,67.1L370,344
		C370,354.2,361.8,362.4,351.6,362.4z"/>
</g>
</svg>
