<?xml version="1.0" encoding="utf-8"?>
<!-- Generator: Adobe Illustrator 18.0.0, SVG Export Plug-In . SVG Version: 6.00 Build 0)  -->
<!DOCTYPE svg PUBLIC "-//W3C//DTD SVG 1.1//EN" "http://www.w3.org/Graphics/SVG/1.1/DTD/svg11.dtd">
<svg version="1.1" id="Layer_1" xmlns="http://www.w3.org/2000/svg" xmlns:xlink="http://www.w3.org/1999/xlink" x="0px" y="0px"
	 viewBox="0 0 549.8 298.8" enable-background="new 0 0 549.8 298.8" xml:space="preserve">
<path fill-rule="evenodd" clip-rule="evenodd" fill="#FFFFFF" d="M53.8,80.6L28,85.2c1.5-1,2.9-2.1,4.3-3.1c2.1-1.6,4.2-3.3,6.3-5.1
	c0.4-0.3,0.7-0.6,1.1-1L62,72C59.5,74.8,56.8,77.6,53.8,80.6"/>
<path fill-rule="evenodd" clip-rule="evenodd" fill="#FFFFFF" d="M85.7,39.3l-0.9,1.9c-0.7,1.4-1.3,2.8-1.8,4.1
	c-0.2,0.5-0.4,0.9-0.7,1.3L82,47l-16.7,3c1.4-1.7,2.8-3.4,4.2-5.1l1.8-2.2l0,0c0.3-0.3,0.5-0.7,0.8-1L85.7,39.3z"/>
<path fill-rule="evenodd" clip-rule="evenodd" fill="#FFFFFF" d="M69.3,63.6l-20.1,3.6c0.8-0.7,1.5-1.5,2.3-2.2
	c2.2-2.2,4.3-4.4,6.4-6.6l18-3.2l-0.2,0.2c-0.4,0.5-0.7,1-1,1.4C72.9,59.2,71.1,61.5,69.3,63.6 M83.1,25.6l7.5-1.3l0.6,0.4l0.4,0.2
	c-0.8,2.1-1.7,4.2-2.6,6.3l-0.2,0.5l-10.8,1.9c0.4-0.6,0.8-1.2,1.2-1.7C80.5,29.7,81.9,27.6,83.1,25.6z M44.1,89.6L44.1,89.6
	L44.1,89.6L44.1,89.6C43,90.5,42,91.2,41,92c-0.9,0.7-1.8,1.3-2.7,1.9c-1.1,0.7-2.1,1.3-3.2,1.8c-0.7,0.4-1.2,0.6-1.6,0.8
	c-0.7,0.4-1.1,0.6-2.5,1.1c-1,0.4-1.7,0.6-2.2,0.9c-0.2-0.3-0.4-0.5-0.6-0.8c-0.8-1-1.7-2.1-2.6-3.2c-0.4-0.5-0.8-1-1.2-1.5
	l19.8-3.6L44.1,89.6z"/>
<path fill-rule="evenodd" clip-rule="evenodd" fill="#FFFFFF" d="M99,8.1c1,1.7,1.8,3.6,2.4,5.3c2.1,5.8,2.3,11.8,1.1,17.9
	c-0.9,4.3-2.7,8.7-4.8,13.1c-1.7,3.6-4.1,8.1-6,11.8c-2.9,5.9-6.5,11.7-9.8,17.5c-2.4,4-4.8,7.9-7.4,11.9c-0.5,0.8-0.8,1-1.3,1.9
	c-0.4,0.7-0.9,1.2-1.3,2c-3.5,4.5-6.3,8.9-10.2,13.3l-2.9,3.2c0.1-0.1,0.2-0.3,0.2-0.4L60,104l0,0c0.3-0.5,0.6-1,0.9-1.5
	c0.3-0.5,0.6-1,0.8-1.4l0,0l0.8-1.4l0,0c0.3-0.5,0.6-1.1,0.9-1.6c0.2-0.4,0.4-0.8,0.7-1.3l0,0l1.3-2.6l0,0c0.4-0.8,0.9-1.7,1.2-2.5
	h0c0.4-0.8,0.8-1.7,1.2-2.6c0.4-0.8,0.7-1.6,1.1-2.5h0c0.4-0.8,0.7-1.6,1-2.5c0.4-1,0.7-1.8,1.1-2.6l0.4-0.9l0.3-0.9v0l0.5-1.2h0
	l1.1-2.6v0l1.1-2.6l0,0l0.9-2.4l0,0l0.9-2.4l0,0c0.4-1.1,0.8-2.1,1.2-3.1h0l0.8-2h0l0.9-2.4h0l0.8-2h0l0.8-2h0
	c0.6-1.5,1.3-3.1,2-4.8c0.7-1.6,1.4-3.3,2.2-4.9c1.4-2.9,2.9-6.3,4.6-10h0c1.6-3.6,3.2-7.3,4.6-11l0,0l0.9-2.2l0,0l0.5-1.4l0,0
	l0.3-0.8c0.2-0.7,0.5-1.4,0.7-2v0c0.2-0.7,0.4-1.3,0.6-1.9h0c0.4-1.3,0.8-2.7,1.2-4.1c0.3-1.4,0.6-2.8,0.8-4.2l0,0v0
	C98.8,9.4,98.9,8.9,99,8.1"/>
<path fill-rule="evenodd" clip-rule="evenodd" fill="#FFFFFF" d="M12.8,120.2c-0.9-2.6-1.1-5.3-1.1-8c0-3.6,0.9-10.1,1.6-13.5
	c0.2-1,0.8-3.1,0.9-4l2.2-8.3l4.9,6.3c0.8,1.1,1.7,2.2,2.6,3.4c0.9,1.1,1.8,2.3,2.6,3.3c0.4,0.5,0.6,0.8,0.7,1.4
	c0.1,0.6,0,1.5-0.3,2.9l0,0c-0.5,2.9-1.1,5.6-2,8.3c-0.8,2.6-1.8,5.2-2.9,7.7c-0.8,2.3,0.5,1.3,1.3,0.4c0.9-1,2.1-3.2,3.2-5.5
	c1.4-3,2.7-6.3,3.1-8.1c0.4-1.9,0.6-3.2,0.6-4.1c0.2-1.5,0.2-1.6,1.9-2.3c1.6-0.6,2-0.8,2.7-1.2c0.4-0.2,0.9-0.4,1.5-0.8h0
	c3.3-1.6,6.8-4.2,10.2-7.1c3.4-2.8,6.6-6,9.1-8.5c4.1-4.1,7.7-7.8,11.1-11.7l0,0c3-3.4,5.9-6.9,8.9-10.7l-1.6,4.3l0,0l0,0.1
	c-1.4,3.8-2.9,7.6-4.4,11.4v0l-1,2.5l0.1,0c-0.1,0.2-0.2,0.4-0.3,0.7l-0.7,1.8l0,0c-0.6,1.6-1.3,3.3-2,4.8c-0.7,1.6-1.4,3.2-2.2,4.7
	c-0.8,1.6-1.6,3.2-2.3,4.7c-0.8,1.5-1.6,3-2.5,4.6c-0.5,0.9-1,1.7-1.5,2.5c-0.5,0.8-1,1.6-1.6,2.5v0l-0.1,0.1l0,0
	c-0.6,1-1.3,1.9-1.8,2.8l0,0l-2,3.3c-1.2,1.6-2.3,3.2-3.4,4.5c-1,1.2-2,2.2-2.9,3c-5.9,5.3-14.9,13.1-23.3,10.7
	c-1.4-0.4-2.8-1.1-4.1-2.1c-0.6-0.5-1.2-1-1.7-1.5C14.5,123.9,13.5,122.4,12.8,120.2"/>
<path fill-rule="evenodd" clip-rule="evenodd" fill="#FFFFFF" d="M3.6,63.3c-6-11.9-4.9-22,5.8-33.5c3.1-3.3,7.8-7.6,11.3-10.7
	l0.1-0.1c-0.7,1.4-1.2,2.6-1.6,3.8c-0.9,2.3-1.8,4.5-4.1,7.9c-1.1,1.5-2.4,3.3-3.7,4.9c-1.1,1.4-2.3,2.7-3.5,3.7
	C7,40.1,6.5,40.7,6.3,41l0,0c-0.9,1.5-0.5,1.9,1.1,1.4h0c0.2-0.1,0.6-0.3,1.1-0.6l0,0c1.5-0.9,4.2-3.1,6.1-5.1h0
	c5.5-6,6.6-8.8,8-12.7c0.8-2,1.6-4.4,3.3-7.6c1.2-1.9,2.6-4.2,4.1-6.3c1.1-1.4,2.2-2.8,3.3-3.9c0.5-0.4,0.9-0.8,1.4-1.2
	c1.6-1.3,3.1-2.3,4.5-3.1C41,1,42.9,0.6,44.7,0.5C48.5,0.3,52.4,1.6,57,4v0c5.7,2.9,10.8,6.2,16,9.6l2.5,1.6l7.7,5
	c-1.5,2.7-3.8,6.5-6.3,10.2c-2.7,4.1-5.6,8.2-7.7,10.7v0l-1.7,2.1c-2,2.5-4,4.9-6.1,7.4c-3.2,3.8-7.4,8.2-11.7,12.5
	c-4.4,4.4-9,8.7-12.8,11.8c-2.1,1.8-4.2,3.5-6.2,5c-2.1,1.6-4.2,3.1-6.4,4.6l0,0c-0.5,0.3-1.5,0.9-2.5,1.4c-0.5,0.2-0.9,0.5-1.3,0.6
	l-2-2.6C16.3,81.2,10,72.3,4,63.8L3.6,63.3z"/>
<path fill-rule="evenodd" clip-rule="evenodd" fill="#FFFFFF" d="M88.2,6l-9.7,7.1l7.1,4.6l1.5,0.9l0.4,0.2v0l4.4,2.8
	c0.3-0.9,0.6-1.7,0.9-2.5c0.4-1.1,0.7-2.2,1-3.3c0.2-0.6,0.4-1.3,0.5-2c0.2-0.6,0.3-1.3,0.5-1.9c0.1-0.5,0.2-1.1,0.4-1.7v0
	c0.1-0.5,0.2-0.9,0.2-1.3l0.1-0.4c0.2-1.4,0.6-3.7-0.2-4.5h0C94.5,3.4,93.3,3.6,92,4C90.5,4.6,89,5.5,88.2,6"/>
<polygon fill="#FFFFFF" points="518.4,160.3 520.8,164.2 549.8,164.2 549.8,145.4 546,145.4 546,158.4 546,160.3 544.1,160.3 "/>
<polygon fill="#FFFFFF" points="491.6,136.3 495.7,131.9 492.3,126.5 487.3,131.7 487.3,136.3 "/>
<polygon fill="#FFFFFF" points="453,160.3 453,164.2 502.1,164.2 502.1,145.4 498.3,145.4 498.3,158.4 498.3,160.3 496.3,160.3 "/>
<rect x="451.6" y="55.3" fill="#FFFFFF" width="3.7" height="3.9"/>
<polygon fill="#FFFFFF" points="490.6,96.4 490.6,40.4 486.8,40.4 486.8,100.5 "/>
<polygon fill="#FFFFFF" points="518.4,111.4 535,93.8 546.4,93.8 546.4,75 542.5,75 542.5,88.1 542.5,90 540.6,90 530.1,90 
	514.9,105.9 "/>
<polygon fill="#FFFFFF" points="404.7,160.3 404.7,164.2 432.4,164.2 442.3,164.2 442.3,145.4 438.4,145.4 438.4,158.4 438.4,160.3 
	436.5,160.3 426.6,160.3 "/>
<path fill="#FFFFFF" d="M376.1,136.3V96.4c4.9-1.7,10.1-2.6,15.7-2.6c1.2,0,2.3,0.1,3.3,0.3c-0.5-0.8-1.1-1.4-1.9-2
	c-1.7-1.3-4-2.1-7.2-2.1c-2.7,0-5.3,0.2-7.8,0.6c-2,0.3-4,0.8-6,1.4v44.2H376.1z"/>
<polygon fill="#FFFFFF" points="338.5,160.3 338.5,164.2 350.2,164.2 376.1,164.2 387.8,164.2 387.8,145.4 383.9,145.4 383.9,158.4 
	383.9,160.3 382,160.3 370.3,160.3 344.4,160.3 "/>
<rect x="337.1" y="90" fill="#FFFFFF" width="3.7" height="3.9"/>
<path fill="#FFFFFF" d="M430.6,107.4c0-11.5-2.4-20-7.1-25.4c0.5,1.2,1,2.6,1.4,3.9c1.3,4.4,1.9,9.7,1.9,15.7v34.6h3.9V107.4z"/>
<path fill="#FFFFFF" d="M257.6,110.9c0-12.5,2.8-17.2,15.3-17.2c1.8,0,3.7,0.1,5.7,0.2v-3.3c-4-0.5-7.9-0.8-11.5-0.8
	c-5.7,0-9,1-10.9,3.2c-1.9,2.3-2.5,6.3-2.5,12.1v18.6h0c0.1,5.1,0.7,8.6,2.4,10.7c0.6,0.3,1.2,0.6,1.9,0.8c-0.3-1.7-0.4-3.5-0.4-5.7
	V110.9z"/>
<path fill="#FFFFFF" d="M312.3,136.3V79.2c-1.3-0.4-2.6-0.7-3.9-1.1v58.1H312.3z"/>
<polygon fill="#FFFFFF" points="290.2,160.3 291.4,164.2 323.8,164.2 323.8,145.4 319.9,145.4 319.9,158.4 319.9,160.3 318,160.3 
	"/>
<path fill="#FFFFFF" d="M241.9,158.8c5.3,4.5,12.9,6.9,23.3,6.9c7.1,0,14.5-1.9,22.1-5.4h-1.8h-1.4l-0.4-1.4l-0.9-2.9
	c-3.7,1.7-7.3,3.1-10.9,4.1c-4.3,1.2-8.4,1.7-12.5,1.7C252.5,161.9,246.7,160.9,241.9,158.8"/>
<rect x="149.6" y="90" fill="#FFFFFF" width="3.7" height="3.9"/>
<path fill="#FFFFFF" d="M188.6,136.3V99.8c6.3-1.9,16.5-3.1,30.8-3.5V73.5c-1.2,0-2.5,0.1-3.9,0.2v16.8v1.9l-1.9,0
	c-7,0.2-13,0.6-18.1,1.1c-4.4,0.5-8,1.1-10.9,1.9v40.9H188.6z"/>
<polygon fill="#FFFFFF" points="150.9,160.3 150.9,164.2 162.6,164.2 188.4,164.2 200.1,164.2 200.1,145.4 196.2,145.4 196.2,158.4 
	196.2,160.3 194.3,160.3 182.6,160.3 156.8,160.3 "/>
<polygon fill="#FFFFFF" points="41.8,160.3 41.8,164.2 98.1,164.2 98.1,144.2 94.2,144.2 94.2,158.4 94.2,160.3 92.3,160.3 "/>
<polygon fill="#FFFFFF" points="115,71.2 115,75 138.5,75 138.5,40.4 134.6,40.4 134.6,69.2 134.6,71.2 132.7,71.2 "/>
<path fill="#FFFFFF" d="M92,62.1h15.2v-3.9H94.1l-0.4,0.9L92,62.1z M82.4,83v-4.1c-0.8,1.4-1.7,2.7-2.5,4.1H82.4z"/>
<polygon fill="#FFFFFF" points="82.4,113.7 121.9,113.7 121.9,92.1 118.1,92.1 118.1,107.9 118.1,109.8 116.2,109.8 78.6,109.8 
	78.6,135.1 82.4,135.1 "/>
<path fill-rule="evenodd" clip-rule="evenodd" fill="#FFFFFF" d="M368,214.2c0.2-1.6,1.5-4.1,2.2-5.6c2.3-5.3,5.1-10.6,7.9-15.7
	c2-3.6,7.7-12.3,7-16.3c-0.4-2.2-3.6-4-4.7-1.4c-1.5,3.6-3.4,7.1-5,10.8c-1.7,3.6-3.3,7.1-4.9,10.7c-2.1,4.6-2.9,6.8-6.4,9.9
	c-2.7,2.5-6.5,5.1-10.7,7.2l-0.5-0.5c-0.1-0.1-0.2-0.3-0.3-0.5c-4.6-6.4-6.6-8.6,2-15.5c4.2-3.4,6.9-2.8,6.7-4.2
	c-0.3-2.4-4.5-3.1-7.4-1.5c-4.7,2.6-7.6,6.1-9.5,10.7c-1.1,2.5-3.5,5.4-5.3,7.7c-1,1.3-1.9,2.4-3,3.7c-0.6,0.7-1,1.3-1.6,1.8
	l-1.6,1.7c-0.8,0.8-5.5,6.3-8.2,5.5c-1.9-2,2.9-12.6,3.8-14.8c0.6-1.5,2.9-5.6,2.7-7.1c-0.3-3.4-5.4-2.2-8.3-3
	c-0.4-1.6,1.2-2.7,1.1-3.8c-0.1-1-2.2-2.1-3.7-1.8l-3.3,6.1c-1.5,2.5-5.4,8.8-7.3,11.4c-3,4-6.6,7.9-10.5,11.4l-4.3,3.3
	c-4.5,3.3-11.9,6.6-13.1-1.1l0.9-0.6c3.3-2,6.1-4.3,9-6.5c1.1-0.8,2.1-1.6,3-2.5c1.9-2.2,10.5-8.9,5.1-12.8
	c-2.5-1.8-6.1-1.6-9.6-0.2c-3.7,1.5-6.1,3.7-7.9,6c-2.8,3.6-5,7.4-5.6,11.6c-1,6.1,2.5,11.4,8.6,12.5c7.5,1.4,15.7-4.5,19.7-8.7
	c2.6-2.8,5.1-5.4,7.3-8.6c1.4-2.1,2.5-4.2,4-6.3c1.5-2,2.5-4.1,4-6.1c2.1-0.4,3.7-0.2,5,0.3c0.8,2.9-7.4,13.1-6,19.4
	c1.2,5.4,7.4,6.9,13.1,2.9c2.8-2,5.3-4.6,7.2-7.1l3.8-5.3c0.6-0.8,1.1-1.8,1.8-2.6l4.9,7c-3.9,1.9-8.6,3.6-12.2,5.9
	c-2.8,1.8-0.5,4.5,1.6,5.6c3.2,1.7,9.7,0,12.2-1.5c3.1-1.8,4.3-4.2,3.6-8.3l0.7-0.4c0.2-0.1,0.4-0.2,0.5-0.3
	c0.4-0.2,0.7-0.4,1.1-0.6c2.6-1.4,5.2-3.2,6.6-4c-0.3,1.7-1.8,5-2.4,7c-1,3.3,1.7,5.6,4.5,5.3c1.3-2.6,3.5-5.5,5.3-7.6
	c2-2.5,3.9-4.8,5.9-7.1c0.1-0.1,14.9-17.4,13.1-10.2c-1.3,5.1-6.6,13.2-2.5,18.8c4.7,6.5,12.1,0.8,15.5-3.2c0.4-0.5,1.2-1.3,1.7-1.6
	c0.4,4,5.6,7.3,10.8,5.1c2.3-1,8-5.4,9.2-7.4c4.3,0,7.7-0.7,11-2.8c0.7-0.5,1.9-1.4,2.4-1.6c-1.1,3.5-4.6,11.3-6.2,15.4
	c-1,2.4-4.3,9.7-3.3,12.1c0.5,1.1,2,2.9,3.3,2.3c1.1-0.5,1.1-2.4,1.3-3.3c0.3-1.1,0.6-2.1,1-3.3c1-2.9,6.2-17.3,7.8-19
	c2.3,2,3,4.2,7.8,3.8c5.4-0.4,8.4-3.9,10.9-6.7c3.4-3.6,8.8-13.2,7.7-17.6c-0.6-2.6-3.3-5-6.6-4.9c-6,0.2-11.7,7.9-14,9.3
	c0.3-1.4,2.2-4.8,2.9-6.8c0.3-1.1,0.8-2.6,0.2-3.8c-0.5-1-1.9-2.2-3.4-1.8c-0.3,0.2-2.5,6.6-2.8,7.5c-0.5,1.3-1,2.5-1.5,3.8
	c-1.6,4.1-8.3,12.3-15.2,13.7c0.3-0.7,1.6-2.2,2.2-3.1c0.7-1,1.3-2.1,1.9-3.2c4.8-8.8,0.2-16.1-8.6-12c-1.6,0.7-2.3,1.5-3.6,2.1
	c-3.7-3.8-10.1,7-11.2,8.9c-3.4,6.1-5.5,7.3-9.1,11.9c-1,1.3-2.3,2.4-3.6,3.5c-10.4,8.9-4-7.4-2.9-10.8c0.7-2.1,2.1-4.6,0.4-6.8
	c-1.2-1.6-3.8-3.6-7.1-3c-5.6,1-14.2,12.6-17.3,17C369.4,212.3,368.6,213.7,368,214.2 M282.1,218.5c1-6.3,11.6-17.7,14.2-15.9
	c1.5,1.1-2.9,5.7-3.7,6.7c-0.6,0.7-1.3,1.2-1.9,1.9c-2.1,2.2-3.8,3.6-6.2,5.5C283.8,217.3,282.8,218.1,282.1,218.5z M464.3,188.6
	c2.2,4.5-12.1,27.8-18.2,21.8c-0.8-0.8-2.2-2.5-1.7-3.6c2.3-4.4,8.2-10.6,12.7-14.3C458.2,191.6,462.2,188.1,464.3,188.6z
	 M422.3,206.8c-7.2-2.1,0-15.3,4.9-16.2c2.8-0.5,3.1,2.3,2.7,4.1C429.2,198.3,425,204.1,422.3,206.8z M419.8,209.6
	c-0.6,1.1-3.6,3.5-5,4.6c-8.4,6.1-4.6-4-3.2-6.9c0.7-1.3,2.2-4.8,3.1-5.7C415.4,206.2,415.1,206.5,419.8,209.6z M340,224.9
	c0.8-1.5,2.8-2.3,5-3.3c1.3-0.6,4.6-2.2,5.8-2.5c-0.4,2-1.7,3.2-3.7,4.1C345,224.2,342.7,224.9,340,224.9z"/>
<path fill-rule="evenodd" clip-rule="evenodd" fill="#FFFFFF" d="M261.2,204.7c0.1-0.8,8.4-16.6,9.9-20.5c1.7-4.6-1.9-6.7-3.6-4.5
	c-1.2,1.6-2.6,4.9-3.4,6.8l-10.9,24.3c-2.5,4-14.3,19.8-18.6,19.4c-3.3-0.3,2.7-13.5,3.3-14.7c0.8-1.7,2.9-5.8,2.8-7.2
	c-0.3-3.4-5.4-2.2-8.3-3c-0.4-1.6,1.2-2.7,1.1-3.8c-0.1-1-2.1-2-3.7-1.8c-0.6,0.6-1.6,3-2.1,4c-3.2,6-8.1,13.3-12.4,18.7
	c-1.6,2-13.1,16.2-13.2,7c0-4.4,2.7-11.1,5-15.3c0.4-0.7,0.9-1.3,1.2-1.9c0.8-1.5-1.6-3.2-2.8-3.5c-1.9-0.5-3.4,2-3.6,2.6
	c-0.8-0.5-0.9-0.8-2.1-1.7c-2-1.4-5.4-2.5-8.4-1.8c-7.9,1.8-15.5,15.9-17.4,21.4c-1.2,3.4-2.1,6.2,1.6,8.9c3.6,2.7,6.9,0,9.6-2.2
	c3.3-2.9,4.9-4.5,7.8-7.4l5.2-6c-0.6,2.5-1.5,4.1-0.9,7.2c0.5,2.7,1.9,4.5,4.3,5.4c2.8,1.1,6,0.3,8.2-1.1
	c5.3-3.1,12.1-12.6,14.7-17.3l5.3-8c2.1-0.4,3.7-0.2,5,0.3c0.5,1.6-1.1,4-1.8,5.3c-2.2,4.3-6.1,11.8-3.3,16.1
	c2.5,4,7.7,3.9,11.8,1.1c0.9-0.6,1.5-1.1,2.3-1.8c3-2.6,3.3-3.5,5.6-5.9c-0.4,2.9-1.2,5.9,1.2,8.3c2.4,2.4,5.4,2.4,8.8,0.4
	c4.2-2.5,8.9-7.6,11.7-11.2c2.1-2.7,7.5-10,6.3-14.4c-0.8-2.7-3.5-4.8-6.8-5C265.9,201.1,263.3,203.5,261.2,204.7 M258.3,211.1
	c3.2,1.2,2-0.3,6.2-3.6c1.2-0.9,5.1-3.7,7.7-3.5c4,4.3-14.2,27.2-19.2,26.2C251.4,227,257.9,213.6,258.3,211.1z M199.3,213.5
	c-0.4,0.9-7.9,9.3-9.6,11.1l-4.3,4.6c-0.9,1-2.1,2-3.1,2.9c-1.4,1.3-6.7,6.5-4.8,0.8c1.8-5.2,4.9-10.2,7.8-14.5
	c1.3-2,6.6-9,10.3-7.6C196.7,211.2,198.7,212.7,199.3,213.5z"/>
<path fill-rule="evenodd" clip-rule="evenodd" fill="#FFFFFF" d="M112.7,196.3c0.9-1.3,0.4-1.2,1.9-2.1c6.2-3.8,17.9-6.1,25.6-7.1
	c8-1,28.9-1.9,30.4,3.8c1.1,4.3-6.7,10.3-10.6,13.1c-6.7,4.8-20.7,12.6-29.3,14.4c1.2-4.2,8.3-19.3,8.9-21.6c0.5-2-2.6-4.4-4.4-3.8
	c-1,0.4-2,4.1-2.4,5.2c-3.9,10.9-8.2,21.8-12.1,32.9l-5.8,16.5c-0.7,2.1,3.2,3.9,4.9,3.2c1.1-0.5,0.9-1.7,1-2.8
	c0.5-4.1,4.8-15.9,6.2-19.7c0.4-1,0.7-1.9,1-2.8c0.3-0.7,0.1-0.8,0.9-1.2c6.4-3.3,19.9-2.7,27-1.9c4.8,0.6,12.1,1.8,9.5,6.4
	c-3.8,6.7-21.4,12.4-30.7,14.7c-1.5,0.4-7.6,1.4-8.2,1.7c-0.2,1.6,2.1,2.4,3.8,2.6c2.1,0.1,4.7-0.3,6.6-0.7
	c9.2-1.8,23.1-6.9,28.9-11.6c1.6-1.3,2-1.5,3.2-3c3.5-4.4,1.2-8.5-3.6-10.8c-7.5-3.5-13.9-3-22.1-3.4c0.5-0.1,5.9-2.5,6.8-2.9
	c2.1-1,4.4-2.2,6.3-3.3c4.5-2.6,10.1-6.3,13.5-9.6c0.8-0.8,1.4-1.4,2.1-2.3c5.2-5.9,4.3-12.4-4.3-15.3c-8.9-3.1-25.3-2.5-36.2-0.4
	c-5.8,1.1-11,2.6-15.8,4.6c-2,0.8-5,2.2-6.4,3.2c-1.2,0.9-0.9,1.7,0.2,2.7C110.1,195.6,111.2,196.5,112.7,196.3"/>
<path fill="#FFFFFF" d="M532.1,139.2l-21.1-34l-0.3-0.5l0.4-0.5l16.7-17.6l0.2-0.3h0.4h10.5V69.2h-45v17.1h8.9h1.9l-1.3,1.4
	l-5.2,5.6l-13.6,14.5l-1.4,1.5v-2.1V34.6h-37.3v17.1h12.2h0.8v0.8v86.2v0.8h-0.8h-10.8v17.1h47.4v-17.1H484h-0.8v-0.8v-8.7v-0.3
	l0.2-0.2l8-8.4l0.7-0.8l0.6,0.9l21.9,35.5h27.8v-17.1h-9.6h-0.5L532.1,139.2z M423.2,100.8c0-5.8-0.6-10.7-1.8-14.9
	c-1.2-4.1-3-7.5-5.3-10.1l0,0c-2.2-2.7-5.5-4.7-9.7-6c-4.3-1.4-9.5-2-15.8-2c-3.8,0-7.7,0.5-11.7,1.6c-4,1.1-8.2,2.6-12.5,4.8
	l-0.9,0.4l-0.3-0.9l-1.4-4.3h-32.5v17.1h12.2h0.8v0.8v51.5v0.8h-0.8h-10.8v17.1h10.8h25.9h10.8v-17.1h-10.8h-0.8v-0.8V89.8v-0.6
	l0.6-0.2c2.5-0.9,5-1.6,7.7-2h0c2.7-0.4,5.4-0.7,8.2-0.7c3.8,0,6.7,1.1,8.9,2.7c2.5,2,3.9,4.7,4.3,7.6c0.2,1.2,0.3,2.7,0.4,4.5
	c0.1,1.8,0.1,3.9,0.1,6.2v49.3h26.9h9.1v-17.1H424h-0.8v-0.8V100.8z M250.2,104.3c0-6.5,0.7-10.9,3.2-13.8c2.4-3,6.5-4.2,13-4.2
	c2.1,0,4.3,0.1,6.6,0.3c2.3,0.2,4.6,0.4,6.9,0.8l0.7,0.1v0.7v48.2v0.6l-0.6,0.2c-2.5,0.8-5,1.4-7.3,1.8c-2.3,0.4-4.4,0.6-6.4,0.6
	c-6.3,0-10.2-1.1-12.7-3.7c-2.5-2.7-3.4-6.8-3.4-12.9l0,0V104.3z M225.9,121.7c0,11.7,2.1,20.9,7.3,27.1c5.1,6.2,13.3,9.5,25.5,9.5
	c3.8,0,7.8-0.6,11.8-1.6h0c4-1.1,8.2-2.7,12.4-4.9l0.9-0.4l0.3,0.9l1.4,4.5h30.9v-17.1h-10.7h-0.8v-0.8V73.2
	c-6.5-1.8-12.8-3.2-19.1-4.1c-6.5-1-12.8-1.4-19.1-1.4c-2.5,0-5.2,0.2-8,0.5c-2.8,0.3-5.7,0.9-8.7,1.5c-7,2-12.1,4.6-15.7,7.8
	c-3.5,3.2-5.6,7-6.7,11.3c-0.8,3.1-1.2,5.4-1.4,7.6c-0.2,2.2-0.3,4.4-0.3,7.1V121.7z M156,139.6h-10.8v17.1H156h25.8h10.8v-17.1H182
	h-0.8v-0.8V93.1v-0.6l0.6-0.2c3.2-1,7.5-1.8,12.7-2.4c4.9-0.6,10.8-0.9,17.5-1.1V67.7c-2.1,0.1-4.4,0.4-6.6,0.8
	c-3.3,0.6-6.5,1.5-8.8,2.3l-0.7,0.3v0c-1.9,0.7-4.6,1.7-7.9,3l0,0l-7.8,2.8l-0.8,0.3l-0.2-0.8l-2.1-7.1h-33v17.1H156h0.8v0.8v51.5
	v0.8H156z M95.7,54.7h12.7h0.8v0.8v12.1H131v-33h-26.4c-0.2,0.6-0.3,1.2-0.5,1.8c-0.3,0.8-0.5,1.6-0.8,2.4c-0.4,1.1-0.9,2.2-1.4,3.4
	c-0.5,1.1-1,2.2-1.5,3.4h0C99,48.3,97.3,51.6,95.7,54.7z M75.8,106.2h38.7V86.3H77.4L77,86.9v0c-0.3,0.4-0.5,0.7-0.6,0.9l0,0l0,0
	l0,0l0,0c-0.6,0.5-2.2,2.9-3.4,4.8c-0.6,0.9-1.1,1.7-1.5,2.1l0,0l0,0c-2.3,3.2-4.6,6.3-7.4,9.4l-1.9,2.1l0,0l-1.8,2l0,0
	c-2,2.2-3.7,4.1-5.4,5.9c-1.6,1.6-3.2,3.2-4.9,4.7v18.6v0.8h-0.8H36.1v18.4h54.6v-18.4H75.8H75v-0.8v-30.5v-0.8H75.8z"/>
<path fill="#FFFFFF" d="M262.6,252.7c-0.8,0.3-1.7,0.5-2.6,0.4c-2.7-0.1-5.4-0.4-8.1-1c-2.7-0.6-5.3-1.4-7.8-2.2
	c-0.5-0.2-1-0.1-1.4,0.1c-0.4,0.2-0.8,0.6-1,1.1c-0.2,0.5-0.1,1,0.1,1.5c0.2,0.5,0.6,0.8,1.2,1c0,0,0,0,0,0c2.5,0.8,5.2,1.6,8,2.1
	c2.8,0.5,5.8,0.8,8.8,1c1.2,0,2.4,0,3.5,0c-0.3-0.9-0.5-1.8-0.6-2.7C262.6,253.4,262.6,253,262.6,252.7 M289,254.5l8.5-0.7l7.6,6
	l38.2-3v-12.4l-0.9,0.1l0,0l-59.9,4.8C284.6,251,286.8,252.8,289,254.5z"/>
<path fill="#FFFFFF" d="M328.6,290.1c0.6-1.5,2.3-2.3,3.8-1.7c1.5,0.6,2.3,2.3,1.7,3.8c-0.6,1.5-2.3,2.3-3.8,1.7
	C328.7,293.3,328,291.6,328.6,290.1 M270.3,252c0.5-1.1,1.8-1.7,2.9-1.3c1.1,0.5,1.7,1.8,1.3,2.9c-0.5,1.1-1.8,1.7-2.9,1.3
	C270.4,254.4,269.9,253.1,270.3,252z M338.8,294.2L338.8,294.2c1.2-3.7-0.7-7.8-4.2-9.2c-10.6-4.2-20.8-9.6-30.4-15.7
	c-9.7-6.2-19-13.1-27.6-20.8c-2.9-2.5-6.5-2.4-8.9,0.1c-1.2,1.2-1.9,3.2-1.7,4.9c0.2,1.7,0.7,3,2.2,4.4c9.2,8.4,19.1,16.1,29.4,22.9
	c10.3,6.8,21,12.7,32.3,17.5C333.5,299.8,337.6,297.9,338.8,294.2z"/>
<path fill-rule="evenodd" clip-rule="evenodd" fill="#FFFFFF" d="M405,51.6v3.6h23v-9h-3.6V48v3.6h-3.6H405z M440.1,7.9h-3.6v1.7
	v3.6h-3.6H431l-11.7,20.3v1.8h1.4h3.6v2l11.8-20.5h4V7.9z M362.1,51.6l2.7,3.6h13.4v-9h-3.6V48v3.6h-3.6H362.1z M332.1,51.6v3.6
	h22.3v-5.4l-2.7-3.6h-1V48v3.6h-3.6H332.1z M377.5,7.9h-3.6v1.7v3.6h-3.6H368l-8.4,10.1l4.1,5.4l9.9-12h3.9V7.9z M291.5,34.4v-8.6
	c0-2.5,0.1-3.5,1.3-5.4c0.3-0.5,0.7-0.9,1.3-1.2h-1.3v-3.6v-1.6c-1.1,0.1-2.1,0.2-2.9,0.5c-0.7,0.2-1.2,0.4-1.3,0.7l0,0
	c-0.3,0.5-0.5,0.9-0.5,1.3c-0.1,0.5-0.1,1.1-0.1,2.1v9.3c0,0.7,0,0.9,0,1.1v0c0,0.2,0,0.3,0,0.6l0,0.2c0,0.4,0.1,1.2,0.3,2v0
	c0.1,0.3,0.2,0.6,0.3,0.8c0.5,0.6,1.1,1.1,1.9,1.5C290.7,34.1,291.1,34.2,291.5,34.4z M283.9,51.4c3.1,2.7,8.2,4.5,16.1,4.5
	c5.6,0,10.5-0.4,14.9-1.2v-9.8c-1.2,0.2-2.4,0.3-3.6,0.4v2.1v3l-3,0.5c-4.6,0.8-9.7,1.3-15.5,1.3C289.3,52.2,286.4,51.9,283.9,51.4z
	 M314.8,22.7V10.5v-2c-1.2-0.2-2.4-0.4-3.6-0.6v7.6v3.6h-3.6h-3.9v3.6H314.8z M231.6,34.7V16.9h1.8v-3.6h-0.6h-0.6h-3h-0.6H228V30
	c0,2.3,0.2,3.7,0.6,4.3c0.2,0.3,1,0.5,2.3,0.5C231.2,34.8,231.4,34.8,231.6,34.7z M262.3,7.9h-3.6v1.7v3.6H255h-1.4V30
	c0,3.8-0.4,7.1-1.2,9.8c-0.9,3-2.3,5.4-4.2,7.3v0c-1.9,1.8-4.3,3.1-7.5,4c-2.8,0.8-6.3,1.2-10.2,1.2c-2.8,0-5.3-0.2-7.6-0.6
	c2.9,2.9,7.6,4.2,14.8,4.2c7.3,0,12.4-1.4,15.2-4.1c2.9-2.7,4.3-7.6,4.3-14.5V16.9h5.1V7.9z M162.5,51.6v3.6h5.1h32.3V37.7h-3.6V48
	v3.6H162.5z M185.5,16.9v-9h-3.6v1.7v3.6h-3.6h-1.4v20.9h1v-3.7v-3.6h2.6v-10H185.5z"/>
<path fill="#FFFFFF" d="M432.9,0.6h-22.3v9h4.7l-6.1,12.3l-6.2-12.3h4v-9h-21.6v9h4l13.5,22.9V39h-5.1v9h23v-9h-5.1v-6.4l13.2-23h4
	V0.6z M370.3,0.6h-21.3v9h4.3L342.7,22l0.1-12.4h3.4v-9h-21.3v9h5.1V39h-5.1v9h22.3v-9h-4.5v-3.7l3-3.3L357.5,48h13.4v-9h-4.2
	L355,23.3l11.3-13.7h3.9V0.6z M307.5,15.5V3.2v-2c-4.3-0.8-9.3-1.2-14.9-1.2c-5.7,0-10.3,1.1-13.3,2.6c-2.9,1.5-5.1,4.1-6.2,6.2
	c-1.1,2.1-1.6,5.2-1.8,7c-0.1,0.9-0.1,1.9-0.1,3v11c0,2.2,0.1,3.7,0.6,6.4c0.6,2.7,1.6,4.5,3.7,6.9c3,3.2,8.3,5.5,17.1,5.5
	c5.6,0,10.5-0.4,14.9-1.2v-9.8c-3.9,0.5-8.1,0.8-12.5,0.8c-5.5,0-7.9-1.9-9.5-3.9c-0.9-1.3-1.2-3.6-1.3-4.6
	c-0.1-0.5-0.1-1.3-0.1-2.1v-9.3c0-2.5,0.1-3.5,1.3-5.4c1.3-1.9,4.5-2.9,9.5-2.9h1.3v5.3H307.5z M255,0.6h-22.8v9h4.9V30
	c0,6.1-1.6,8.4-6.1,8.4c-5.1,0-6.6-2.3-6.6-8.4V9.6h4.9v-9h-22.8v9h5.1V30c0,12.7,4,18.6,19,18.6c7.3,0,12.4-1.4,15.2-4.1
	c2.9-2.7,4.3-7.6,4.3-14.5V9.6h5.1V0.6z M178.2,9.6v-9h-5.1h-12.9h-5.1v9h5.1V39h-5.1v9h5.1h32.3V30.5h-11.2v7.3h-8.3V9.6H178.2z"/>
</svg>
