<?xml version="1.0" encoding="utf-8"?>
<!-- Generator: Adobe Illustrator 18.0.0, SVG Export Plug-In . SVG Version: 6.00 Build 0)  -->
<!DOCTYPE svg PUBLIC "-//W3C//DTD SVG 1.1//EN" "http://www.w3.org/Graphics/SVG/1.1/DTD/svg11.dtd">
<svg version="1.1" id="Layer_1" xmlns="http://www.w3.org/2000/svg" xmlns:xlink="http://www.w3.org/1999/xlink" x="0px" y="0px"
	 viewBox="184.4 23 133.8 355.7" enable-background="new 184.4 23 133.8 355.7" xml:space="preserve">
<g>
	<path fill="#A97140" d="M318.3,306.3c0-6.8-3.7-12.7-9.2-15.9c6.1-13.2,9.2-28.2,9.2-43.7c0-20.1-5.5-39.7-15.4-55.1l-1.5-2.3h-3.4
		c5.8-31.7,16.8-92.2,16.8-95.5c0-39.1-29.2-70.8-65.1-70.8s-65.1,31.8-65.1,70.8c0,8.9,4.1,24.4,4.2,25.1l18.4,70.4h-4.3l-1.5,2.3
		c-9.9,15.4-15.4,34.9-15.4,55.1c0,15.5,3.2,30.5,9.2,43.7c-5.5,3.2-9.2,9.1-9.2,15.9c0,5.3,2.3,10.1,5.9,13.5
		c-3.6,3.4-5.9,8.1-5.9,13.5s2.3,10.1,5.9,13.5c-3.6,3.4-5.9,8.1-5.9,13.5c0,10.2,8.3,18.5,18.5,18.5h95.5
		c10.2,0,18.5-8.3,18.5-18.5c0-5.3-2.3-10.1-5.9-13.5c3.6-3.4,5.9-8.1,5.9-13.5s-2.3-10.1-5.9-13.5
		C315.9,316.4,318.3,311.6,318.3,306.3z M308.3,246.7c0,14.7-3.1,28.9-9.1,41.1h-68.6c-5.9-12.3-9.1-26.4-9.1-41.1
		c0-17.2,4.4-33.9,12.5-47.3h61.9C303.9,212.8,308.3,229.5,308.3,246.7z M198.3,116.4c-1.1-4.1-3.9-16.2-3.9-22.5
		c0-33.5,24.7-60.8,55.1-60.8s55.1,27.3,55.1,60.6c-0.3,3.9-10,57.9-16.9,95.7h-70.4L198.3,116.4z M208.2,199.3h14.3
		c-7.1,14-11,30.4-11,47.3c0,14.5,2.8,28.6,8.1,41.1h-14.7c-5.9-12.3-9.1-26.4-9.1-41.1C195.8,229.4,200.2,212.8,208.2,199.3z
		 M308.3,360.2c0,4.7-3.8,8.5-8.5,8.5h-95.5c-4.7,0-8.5-3.8-8.5-8.5s3.8-8.5,8.5-8.5h95.5C304.4,351.7,308.3,355.5,308.3,360.2z
		 M308.3,333.2c0,4.7-3.8,8.5-8.5,8.5h-95.5c-4.7,0-8.5-3.8-8.5-8.5s3.8-8.5,8.5-8.5h95.5C304.4,324.8,308.3,328.6,308.3,333.2z
		 M204.3,314.8c-4.7,0-8.5-3.8-8.5-8.5s3.8-8.5,8.5-8.5h95.5c4.7,0,8.5,3.8,8.5,8.5s-3.8,8.5-8.5,8.5H204.3z"/>
	
		<rect x="177.3" y="120.7" transform="matrix(0.1243 0.9922 -0.9922 0.1243 316.1416 -106.9105)" fill="#A97140" width="82.7" height="10"/>
	
		<rect x="180.7" y="113.6" transform="matrix(6.979730e-002 0.9976 -0.9976 6.979730e-002 339.8557 -127.322)" fill="#A97140" width="114.9" height="10"/>
	
		<rect x="278.9" y="84.3" transform="matrix(-0.9923 -0.1242 0.1242 -0.9923 549.9301 285.5805)" fill="#A97140" width="10" height="82.7"/>
	
		<rect x="259.3" y="61.1" transform="matrix(0.9976 6.989679e-002 -6.989679e-002 0.9976 8.9344 -18.1843)" fill="#A97140" width="10" height="114.9"/>
</g>
</svg>
