<?xml version="1.0" encoding="utf-8"?>
<!-- Generator: Adobe Illustrator 18.0.0, SVG Export Plug-In . SVG Version: 6.00 Build 0)  -->
<!DOCTYPE svg PUBLIC "-//W3C//DTD SVG 1.1//EN" "http://www.w3.org/Graphics/SVG/1.1/DTD/svg11.dtd">
<svg version="1.1" id="Layer_1" xmlns="http://www.w3.org/2000/svg" xmlns:xlink="http://www.w3.org/1999/xlink" x="0px" y="0px"
	 viewBox="217.5 0.4 314.2 500.1" enable-background="new 217.5 0.4 314.2 500.1" xml:space="preserve">
<g>
	<g>
		<path fill="#FFFFFF" d="M334,275.2c-21.8,30.7-32.8,60.7-32.8,89.5c0,35.4,15.2,71.4,29.3,89.8c2,2.6,5.1,4.1,8.3,4.1
			c2.3,0,4.5-0.8,6.4-2.1c4.5-3.5,5.4-10,2-14.7c-10-13.1-24.9-44.5-24.9-77.1c0-24.4,9.8-50.5,28.9-77.4c3.4-4.8,2.3-11.1-2.4-14.5
			C343.8,269.4,337.4,270.5,334,275.2z M441,241.1c89.7-72.6,97.3-127.5,87.3-160.9c-13.1-43.7-64-74.4-132.7-79.8
			c-4.3-0.3-8.3,1.9-10.1,5.8l-11.1,22.2L363.1,6.2c-1.9-3.9-6.6-6-11-5.6c-4.4,0.4-8.1,3.5-9.1,7.9l-11.4,45.7L320,16
			c-1.6-5.5-7.4-8.6-12.9-7c-49.2,14.5-81.4,44.2-88.3,81.4c-6,32.6,5.1,84.8,88.5,151c-23.3,29.9-48,73.5-48,123.6
			c0,43.3,17.5,87.8,38.1,114.8h-6.8c-5.8,0-10.4,4.6-10.4,10.4c0,5.8,4.6,10.4,10.4,10.4h166.9c5.8,0,10.4-4.6,10.4-10.4
			c0-5.8-4.6-10.4-10.4-10.4H451c20.5-26.9,38.1-71.5,38.1-114.8C489.1,314.6,464.3,271,441,241.1z M239.5,94
			c4.9-26.8,27.9-49,63.7-61.9l19.3,64.4c1.4,4.5,5.5,7.5,10.3,7.4c4.8-0.1,8.8-3.4,9.9-7.9l14-56.1l8.3,16.5
			c1.8,3.5,5.4,5.8,9.3,5.8c4,0,7.5-2.3,9.3-5.8L400.8,22c55.6,6,97.4,30.9,107.4,64.4c11.8,39.4-18.5,90-85.5,142.9h-97.2
			C262.9,180.6,232.4,132.8,239.5,94z M422.9,479.5h-97.3c-21.9-17.9-45.2-67.6-45.2-114.8c0-46.5,24.7-87.5,46.7-114.8h94.4
			c22,27.3,46.7,68.4,46.7,114.8C468.1,411.8,444.7,461.6,422.9,479.5z"/>
	</g>
</g>
</svg>
