<?xml version="1.0" encoding="utf-8"?>
<!-- Generator: Adobe Illustrator 18.0.0, SVG Export Plug-In . SVG Version: 6.00 Build 0)  -->
<!DOCTYPE svg PUBLIC "-//W3C//DTD SVG 1.1//EN" "http://www.w3.org/Graphics/SVG/1.1/DTD/svg11.dtd">
<svg version="1.1" id="Layer_1" xmlns="http://www.w3.org/2000/svg" xmlns:xlink="http://www.w3.org/1999/xlink" x="0px" y="0px"
	 viewBox="124.6 0.3 250.8 399.3" enable-background="new 124.6 0.3 250.8 399.3" xml:space="preserve">
<g>
	<g>
		<path fill="#A97140" d="M303,192.6c71.6-58,77.7-101.8,69.7-128.5c-10.5-34.9-51.1-59.4-106-63.7c-3.4-0.2-6.6,1.5-8.1,4.6
			l-8.9,17.7L240.8,5c-1.5-3.1-5.3-4.8-8.8-4.5c-3.5,0.3-6.5,2.8-7.3,6.3l-9.1,36.5l-9.1-30.5c-1.3-4.4-5.9-6.9-10.4-5.6
			c-39.3,11.6-65,35.3-70.4,65c-4.8,26,4.1,67.7,70.7,120.6c-18.6,23.9-38.3,58.6-38.3,98.6c0,34.6,14,70.1,30.4,91.7H183
			c-4.6,0-8.3,3.7-8.3,8.3c0,4.6,3.7,8.3,8.3,8.3h133.3c4.6,0,8.3-3.7,8.3-8.3c0-4.6-3.7-8.3-8.3-8.3H311
			c16.4-21.5,30.4-57.1,30.4-91.7C341.3,251.3,321.6,216.5,303,192.6z M231.1,229.5c-15.4,21.6-23.1,42.4-23.1,61.8
			c0,26.1,11.9,51.1,19.9,61.6c2.8,3.6,2.1,8.9-1.6,11.7c-1.5,1.1-3.3,1.7-5.1,1.7c-2.5,0-5-1.1-6.6-3.3
			c-11.3-14.7-23.4-43.4-23.4-71.7c0-23,8.8-47,26.2-71.5c2.7-3.7,7.9-4.6,11.6-1.9C232.9,220.5,233.8,225.7,231.1,229.5z
			 M288.5,183h-77.6c-50-38.7-74.5-76.9-68.8-107.9c3.9-21.4,22.3-39.1,50.9-49.4L208.4,77c1.1,3.6,4.4,6,8.2,5.9
			c3.8-0.1,7-2.7,7.9-6.3l11.2-44.8l6.6,13.2c1.4,2.8,4.3,4.6,7.4,4.6c3.2,0,6-1.8,7.4-4.6l13.8-27.5c44.4,4.9,77.8,24.7,85.8,51.4
			C366.1,100.3,341.9,140.8,288.5,183z"/>
	</g>
</g>
</svg>
