<?xml version="1.0" encoding="utf-8"?>
<!-- Generator: Adobe Illustrator 18.0.0, SVG Export Plug-In . SVG Version: 6.00 Build 0)  -->
<!DOCTYPE svg PUBLIC "-//W3C//DTD SVG 1.1//EN" "http://www.w3.org/Graphics/SVG/1.1/DTD/svg11.dtd">
<svg version="1.1" id="Layer_1" xmlns="http://www.w3.org/2000/svg" xmlns:xlink="http://www.w3.org/1999/xlink" x="0px" y="0px"
	 viewBox="0 0 500 500" enable-background="new 0 0 500 500" xml:space="preserve">
<g>
	<g>
		<path fill="#FFFFFF" d="M145.9,375.1c-5.8,0-10.4,4.6-10.4,10.4s4.6,10.4,10.4,10.4c5.8,0,10.4-4.6,10.4-10.4
			S151.6,375.1,145.9,375.1z M469.2,135.4h-18.5c5.1-7.5,12.1-18.5,16.7-25.8c1.8-2.9,2.1-6.4,0.8-9.4c-1.3-3.1-3.9-5.4-7.1-6.1
			c-29-7.3-59.6,1.8-80,23.6c-3.6,3.9-9.4,10-16.8,17.8H72.9c-40.3,0-73,32.8-73,73c0,5.8,4.6,10.4,10.4,10.4h250.2
			c5.8,0,10.4-4.4,10.4-10.1c0.1-0.3,3.5-5.6,29.4-9.5c-59,56.4-139.6,126.7-212.6,167c-12.9,7.1-21.8,19.5-24.5,33.9
			c-2.8,14.5,1.1,29.1,10.6,40.5v0.1c9.6,11.6,23.6,17.8,37.8,17.8c8.4,0,16.7-2.1,24.2-6.5c63.6-36.5,184.7-133.7,273.8-256.1
			c11,0.3,21.6,0.6,31.1,0.9c10.5,0.4,19.9,0.6,27.5,0.8h0.5c8.1,0,15.9-3.1,21.8-8.9c6-5.9,9.3-13.8,9.3-22.1
			C500.2,149.3,486.3,135.4,469.2,135.4z M252.9,197.9H21.8c4.9-23.8,25.9-41.6,51-41.6H344c-6.1,6.3-12.8,12.9-19.6,19.6
			C293.1,177.8,262.1,182.3,252.9,197.9z M422.2,140.3c-8.5,13.6-17.2,26.8-26.1,38.9c0,0,0,0.1-0.1,0.1
			C308.6,301,188.3,397.9,125.4,433.8c-11.9,6.9-26.9,4.1-35.8-6.5v-0.1c-5.4-6.5-7.6-15-6.1-23.3c1.6-8.3,6.8-15.4,14.1-19.5
			c124.9-69.1,270.6-222.6,298.5-252.7c11.6-12.5,27.9-19.4,44.5-19.4c-5,7.6-9.4,14.1-10.6,15.6c-0.6,0.6-1.1,1.3-1.6,2
			C426.7,133.4,424.5,136.8,422.2,140.3L422.2,140.3z M476.3,173.6c-2,1.9-4.5,2.6-7.4,2.9c-7.6-0.1-16.9-0.4-27.3-0.8
			c-5.5-0.1-11.4-0.4-17.5-0.5c0.1-0.1,0.1-0.1,0.1-0.2c4.2-6.1,8.3-12.5,12.2-18.8c0,0,0-0.1,0.1-0.1h32.4
			c5.6,0,10.3,4.6,10.3,10.2C479.3,169.1,478.3,171.6,476.3,173.6z M396.1,145.8c-5.8,0-10.4,4.6-10.4,10.4
			c0,5.8,4.6,10.4,10.4,10.4c5.8,0,10.4-4.6,10.4-10.4C406.5,150.4,401.8,145.8,396.1,145.8z M291.7,260.5
			c-5.8,0-10.4,4.6-10.4,10.4s4.6,10.4,10.4,10.4s10.4-4.6,10.4-10.4C302.2,265.1,297.5,260.5,291.7,260.5z"/>
	</g>
</g>
</svg>
