<?xml version="1.0" encoding="utf-8"?>
<!-- Generator: Adobe Illustrator 18.0.0, SVG Export Plug-In . SVG Version: 6.00 Build 0)  -->
<!DOCTYPE svg PUBLIC "-//W3C//DTD SVG 1.1//EN" "http://www.w3.org/Graphics/SVG/1.1/DTD/svg11.dtd">
<svg version="1.1" id="Layer_1" xmlns="http://www.w3.org/2000/svg" xmlns:xlink="http://www.w3.org/1999/xlink" x="0px" y="0px"
	 viewBox="0 0 500 500" enable-background="new 0 0 500 500" xml:space="preserve">
<title>picto_vecto</title>
<circle fill="#FFFFFF" cx="294.1" cy="289.8" r="7.4"/>
<path fill="#FFFFFF" d="M500,189.2c-0.2-0.8-0.5-1.5-0.8-2.2c0,0,0,0,0-0.5c-0.5-0.7-1.2-1.3-2-1.9c-51.5-33-100.2-70-145.9-110.6
	l16,0.5l0,0c1.3,0,2.5-0.2,3.7-0.8l63.3-35.1c3.2-1.9,4.4-5.9,2.7-9.1l0,0l-14.3-26c-1.9-3.2-5.9-4.4-9.1-2.7l0,0l-63.3,35.1
	c-1,0.7-2,1.5-2.5,2.5l-12.1,21.1c-23.3-21.1-40.4-37.9-46.5-45.2c-2.4-2.9-6.7-3.2-9.4-0.7c-2.9,2.4-3.2,6.7-0.7,9.4
	c32.4,33.7,67.2,65.3,103.7,94.5l-87.3-49.6c-3.2-12.8-16.2-20.7-29-17.5c-12.8,3.2-20.7,16.2-17.5,29c1,4,3,7.8,6.1,10.8l-27,44.8
	l-1-0.5c-8.4-3.5-18.4,0.2-22.2,8.4c-3.2,7.6-0.7,16.3,6.2,20.7L187.3,203l-25.6-14.8c-3.2-1.9-7.4-0.8-9.3,2.4l0,0l-16.7,28.8
	c-1.9,3.2-0.8,7.4,2.5,9.3l0,0l12.3,6.7l-4.9,8.3L134,237c-9.1-5.2-20.7-2.2-26,6.7l-1.9,3l0,0c-2.4,4-3,8.9-2,13.5
	c-4.6,1.3-8.4,4.4-10.8,8.6l-1.9,3c-2.4,4-3,8.9-2,13.5c-4.6,1.3-8.4,4.4-10.8,8.6l-1.9,3c-2.4,4-3,8.9-2,13.5
	c-4.6,1.3-8.4,4.4-10.8,8.6l-1.9,3c-2.4,4-3,8.9-2,13.5c-4.7,1.9-8.4,5.4-10.4,9.9l-1.9,3l0,0c-2.4,4-3,8.9-2,13.5
	c-4.6,1.3-8.4,4.4-10.8,8.6l-1.9,3l0,0c-5.2,9.1-2.2,20.7,6.7,26l9.4,5.4l-6.7,11.1c-1.9,3.2-0.8,7.4,2.4,9.3l0,0
	c4.9,2.9,6.6,9.1,3.7,14.2c-1.3,2.4-3.5,4-6.2,4.7c-2.7,0.7-5.4,0.3-7.8-1c-3.2-1.9-7.4-0.8-9.3,2.5c-0.5,0.7-0.7,1.5-0.8,2.4
	l-6.4,44c-0.5,3.7,2,7.1,5.7,7.6c1.9,0.2,3.5-0.2,5.1-1.3l35.1-27.3c0.7-0.5,1.2-1.2,1.7-2l23.6-40.4l9.4,5.4
	c9.1,5.2,20.7,2.2,26-6.7l1.9-3c2.4-4,3-8.9,2-13.5c4.6-1.3,8.4-4.4,10.8-8.6l2-3.5c2.4-4,3-8.9,2-13.5c4.7-1.3,8.9-4.4,11.5-8.8
	l1.9-3c2.4-4,3-8.9,2-13.5c4.6-1.3,8.4-4.4,10.8-8.6l1.9-3c2.4-4,3-8.9,2-13.5c4.6-1.3,8.4-4.4,10.8-8.6l1.9-3c2.4-4,3-8.9,2-13.5
	c4.6-1.3,8.4-4.4,10.8-8.4l1.9-3c5.2-9.1,2.2-20.7-6.7-26l-12.1-7.1l5.1-8.8l11.8,6.7c1.7,1,3.7,1.2,5.6,0.5
	c4.7-1.7,10.1-1.2,14.5,1.3l134.9,79.5c-1.3,18,12.1,33.9,30.3,35.4c3,0.2,6.2,0,9.3-0.7h0.7c9.1-2,17-7.8,21.7-15.8l0,0
	c3.7-6.6,5.2-14.2,4-21.7c4.4-25.4,12.5-50.2,23.8-73.2l5.2,2.4c2.2,1,4.4,1.5,6.7,1.5c9.3-0.2,16.9-7.8,16.7-17
	c0-6.6-3.9-12.5-9.9-15.2l-1.3-0.7c11.1-15.5,23.4-30.3,36.6-44.2l0,0c0.2-0.2,0.5-0.5,0.7-0.8c0.2-0.3,0.2-0.7,0.3-1
	c0.5-0.8,0.7-1.9,0.5-2.9c0-0.2,0-0.5,0-0.7l0,0L500,189.2z M357.9,47l55.7-31l7.8,14.2l-55.7,31l-15.7-0.5L357.9,47z M427.7,224.1
	l-5.2-2.4c3-1,5.7-1.7,8.3-2.4C429.5,220.9,428.7,222.6,427.7,224.1z M263.1,68.6c1.5-2.5,3.9-4.2,6.7-4.9c0.8-0.2,1.9-0.3,2.7-0.3
	c5.7,0.2,10.3,5.1,10.1,10.8c-0.2,5.7-5.1,10.3-10.8,10.1c-5.7-0.2-10.3-5.1-10.1-10.8C261.7,71.8,262.2,70.1,263.1,68.6z
	 M266.3,97.1c1.9,0.5,3.9,0.7,5.7,0.7h2.9c-2.2,1.9-4,4.2-5.6,6.7l-22.6,39.1l-6.1-2.7L266.3,97.1z M223.2,169.8l6.1,2.7l-2.7,4.7
	c-2.4,4-3.5,8.8-3.5,13.5c-2.9-1-6.2,0.2-7.8,2.7l-11.5,18.9l-4.7-2.7L223.2,169.8z M236,214.5L236,214.5l29.5,17.2l2,1l0,0
	l43.1,25.1c0.5,0.3,0.8,0.5,1.3,0.7c1.2,1,2.5,2,3.9,2.7l29.7,17.4c12.8,7.4,29.3,3,36.7-9.8l12.8-21.9l15.2,6.7
	c-6.7,13.5-11.5,25.6-14.2,32.5c-16.3-2-32.9,3-45.2,14.2L215,220.1l7.9-13L236,214.5L236,214.5z M306.6,224.6
	c-2.4,4-3.5,8.8-3.5,13.5l-10.1-5.9c4-2.4,7.4-5.7,9.8-9.8l7.8-13.5l4.2,1.9L306.6,224.6z M55.3,462.2l-20.7,16.2l2.9-19.5
	c3,0.3,6.1,0.2,9.1-0.7c12.6-3.4,20.2-16.3,16.9-29.2c-1-3.9-3-7.2-5.7-10.1l3.5-6.1l17,9.8L55.3,462.2z M115.4,417.9l-1.9,3
	c-1.5,2.7-4.9,3.5-7.6,2l-44-25.4l0,0l-14.7-8.9c-2.7-1.5-3.5-4.9-2-7.6l1.9-3c1.5-2.7,4.9-3.5,7.6-2l0,0l59.4,34.4
	C116.4,412,117.1,415.4,115.4,417.9L115.4,417.9z M130.1,392.6l-1.9,3c-1.5,2.7-4.9,3.5-7.6,2l0,0l-59.4-34.4
	c-2.7-1.5-3.5-4.9-2-7.6l1.9-2.9c1.5-2.7,4.9-3.5,7.6-2l0,0l59.3,34.2C130.8,386.6,131.8,390,130.1,392.6
	C130.3,392.6,130.3,392.6,130.1,392.6L130.1,392.6z M144.9,367.4l-1.9,3c-1.5,2.7-4.9,3.5-7.6,2l0,0l-59.3-34.4
	c-2.7-1.5-3.5-4.9-2-7.6l0,0l1.9-3c0.7-1.3,2-2.2,3.4-2.5h1.3c1,0,1.9,0.3,2.7,0.7l59.4,34C145.6,361.1,146.4,364.5,144.9,367.4
	L144.9,367.4L144.9,367.4z M159.7,342.1l-1.9,3c-1.5,2.7-4.9,3.5-7.6,2l0,0l-59.4-34.4c-2.7-1.5-3.5-4.9-2-7.6l1.9-3
	c1-1.7,2.9-2.7,4.9-2.7c1,0,1.9,0.3,2.7,0.7l59.4,34.4C160.3,335.8,161.2,339.4,159.7,342.1L159.7,342.1L159.7,342.1z M174.3,316.7
	l-1.9,3c-1.5,2.7-4.9,3.5-7.6,2l0,0l-59.4-34.4c-2.7-1.5-3.5-4.9-2-7.6l0,0l1.9-3c1-1.7,2.9-2.7,4.9-2.7c1,0,1.9,0.3,2.7,0.7
	l59.4,34.4C175,310.5,176,313.8,174.3,316.7C174.5,316.5,174.5,316.5,174.3,316.7L174.3,316.7z M187,283.7c2.7,1.5,3.5,4.9,2,7.6
	l0,0l-1.9,3c-1.5,2.7-4.9,3.5-7.6,2l-59.4-34.4c-2.7-1.5-3.5-4.9-2-7.6l0,0l2-2.9c1.5-2.7,4.9-3.5,7.6-2l0,0L187,283.7z M157.5,251
	l4.9-8.4l13.5,7.4l-5.2,8.4L157.5,251z M377.4,363.8c-9.4-5.6-12.5-17.7-6.9-27.1c1.5-2.7,3.9-5.1,6.4-6.6l7.6,36.2
	C382,366,379.6,365.2,377.4,363.8z M404.4,356.6c-1.7,2.7-4,5.1-6.7,6.7l-7.8-36.4c2.5,0.3,5.1,1.2,7.2,2.4
	c9.4,5.6,13,17.5,7.6,27.3H404.4z M410.3,322.8c-2-2-4.2-3.5-6.7-5.1c-6.9-4-15.2-5.4-22.9-3.7h-0.2h-0.3h-1.3
	c-8.6,2.2-15.8,7.9-20.2,15.5c0,0.3-0.3,0.8-0.7,1.3l-132-77.4c-6.7-4-14.8-5.2-22.6-3.4l-39.8-22.4l0,0l-12.1-6.7l9.9-17L349,314.4
	c2.7,1.7,6.2,1,8.4-1.3c4.9-5.6,22.1-18.5,41.5-12.6c3.5,1,7.2-0.8,8.4-4.4c4.6-12.6,9.8-24.9,15.8-37.1l8.6,3.9
	c-9.6,19-16.7,39.1-21.2,59.9L410.3,322.8z M459.1,256.9c-0.8,1.7-2.7,2.4-4.4,1.7L218.5,153.3c-1.7-0.8-2.5-2.7-1.7-4.4
	c0.5-1.2,1.7-2,3-2c0.5-0.2,0.8-0.2,1.3,0l236.1,105.3c1.7,0.7,2.7,2.5,2,4.2C459.3,256.6,459.1,256.7,459.1,256.9L459.1,256.9
	L459.1,256.9z M449.1,233.9l-9.1-4c3.5-5.2,7.2-10.3,11.5-15c1.7-2,2.2-4.9,1-7.2c-1.2-2.4-3.5-4-6.2-3.9
	c-9.8,0.7-19.4,2.5-28.6,5.6l8.1-13.8c7.4-12.8,3-29.3-9.8-36.9l0,0l-29.5-17.3c-12.8-7.4-29.3-3-36.9,9.8l0,0l-17.9,30.3l-4.2-1.9
	l18.2-31c7.4-12.8,3-29.3-9.8-36.9l0,0l-29.4-17.2c-5.4-3-11.8-4.2-17.9-3.2c1.7-1.5,3.4-3.4,4.6-5.4c0.5-1,1-1.9,1.5-2.9
	l188.3,109.3c-12.1,13.1-23.3,27-33.5,41.5L449.1,233.9z"/>
</svg>
