<?xml version="1.0" encoding="utf-8"?>
<!-- Generator: Adobe Illustrator 18.0.0, SVG Export Plug-In . SVG Version: 6.00 Build 0)  -->
<!DOCTYPE svg PUBLIC "-//W3C//DTD SVG 1.1//EN" "http://www.w3.org/Graphics/SVG/1.1/DTD/svg11.dtd">
<svg version="1.1" id="Layer_1" xmlns="http://www.w3.org/2000/svg" xmlns:xlink="http://www.w3.org/1999/xlink" x="0px" y="0px"
	 viewBox="112.8 62.9 285.8 296.7" enable-background="new 112.8 62.9 285.8 296.7" xml:space="preserve">
<title>picto_vecto</title>
<circle fill="#A97140" cx="209.5" cy="197.4" r="4.4"/>
<path fill="#A97140" d="M398.5,175c-0.1-0.5-0.3-0.9-0.5-1.3c0,0,0,0,0-0.3c-0.3-0.4-0.7-0.8-1.2-1.1
	c-30.5-19.6-59.4-41.5-86.5-65.6l9.5,0.3l0,0c0.8,0,1.5-0.1,2.2-0.5l37.5-20.8c1.9-1.1,2.6-3.5,1.6-5.4c0,0,0,0,0,0l-8.5-15.4
	c-1.1-1.9-3.5-2.6-5.4-1.6c0,0,0,0,0,0l-37.5,20.8c-0.6,0.4-1.2,0.9-1.5,1.5l-7.2,12.5c-13.8-12.5-24-22.5-27.6-26.8
	c-1.4-1.7-4-1.9-5.6-0.4c-1.7,1.4-1.9,4-0.4,5.6c19.2,20,39.8,38.7,61.5,56L277.2,103c-1.9-7.6-9.6-12.3-17.2-10.4
	c-7.6,1.9-12.3,9.6-10.4,17.2c0.6,2.4,1.8,4.6,3.6,6.4l-16,26.6l-0.6-0.3c-5-2.1-10.9,0.1-13.2,5c-1.9,4.5-0.4,9.7,3.7,12.3
	l-14,23.4l-15.2-8.8c-1.9-1.1-4.4-0.5-5.5,1.4c0,0,0,0,0,0l-9.9,17.1c-1.1,1.9-0.5,4.4,1.5,5.5c0,0,0,0,0,0l7.3,4l-2.9,4.9l-6.8-4
	c-5.4-3.1-12.3-1.3-15.4,4l-1.1,1.8l0,0c-1.4,2.4-1.8,5.3-1.2,8c-2.7,0.8-5,2.6-6.4,5.1l-1.1,1.8c-1.4,2.4-1.8,5.3-1.2,8
	c-2.7,0.8-5,2.6-6.4,5.1l-1.1,1.8c-1.4,2.4-1.8,5.3-1.2,8c-2.7,0.8-5,2.6-6.4,5.1l-1.1,1.8c-1.4,2.4-1.8,5.3-1.2,8
	c-2.8,1.1-5,3.2-6.2,5.9l-1.1,1.8l0,0c-1.4,2.4-1.8,5.3-1.2,8c-2.7,0.8-5,2.6-6.4,5.1l-1.1,1.8l0,0c-3.1,5.4-1.3,12.3,4,15.4
	l5.6,3.2l-4,6.6c-1.1,1.9-0.5,4.4,1.4,5.5c0,0,0,0,0,0c2.9,1.7,3.9,5.4,2.2,8.4c-0.8,1.4-2.1,2.4-3.7,2.8c-1.6,0.4-3.2,0.2-4.6-0.6
	c-1.9-1.1-4.4-0.5-5.5,1.5c-0.3,0.4-0.4,0.9-0.5,1.4l-3.8,26.1c-0.3,2.2,1.2,4.2,3.4,4.5c1.1,0.1,2.1-0.1,3-0.8l20.8-16.2
	c0.4-0.3,0.7-0.7,1-1.2l14-24l5.6,3.2c5.4,3.1,12.3,1.3,15.4-4l1.1-1.8c1.4-2.4,1.8-5.3,1.2-8c2.7-0.8,5-2.6,6.4-5.1l1.2-2.1
	c1.4-2.4,1.8-5.3,1.2-8c2.8-0.8,5.3-2.6,6.8-5.2l1.1-1.8c1.4-2.4,1.8-5.3,1.2-8c2.7-0.8,5-2.6,6.4-5.1l1.1-1.8
	c1.4-2.4,1.8-5.3,1.2-8c2.7-0.8,5-2.6,6.4-5.1l1.1-1.8c1.4-2.4,1.8-5.3,1.2-8c2.7-0.8,5-2.6,6.4-5l1.1-1.8c3.1-5.4,1.3-12.3-4-15.4
	L210,220l3-5.2l7,4c1,0.6,2.2,0.7,3.3,0.3c2.8-1,6-0.7,8.6,0.8l80,47.1c-0.8,10.7,7.2,20.1,18,21c1.8,0.1,3.7,0,5.5-0.4h0.4
	c5.4-1.2,10.1-4.6,12.9-9.4l0,0c2.2-3.9,3.1-8.4,2.4-12.9c2.6-15.1,7.4-29.7,14.1-43.4l3.1,1.4c1.3,0.6,2.6,0.9,4,0.9
	c5.5-0.1,10-4.6,9.9-10.1c0-3.9-2.3-7.4-5.9-9l-0.8-0.4c6.6-9.2,13.9-18,21.7-26.2l0,0c0.1-0.1,0.3-0.3,0.4-0.5
	c0.1-0.2,0.1-0.4,0.2-0.6c0.3-0.5,0.4-1.1,0.3-1.7c0-0.1,0-0.3,0-0.4l0,0L398.5,175z M314.2,90.7l33-18.4l4.6,8.4l-33,18.4l-9.3-0.3
	L314.2,90.7z M355.6,195.7l-3.1-1.4c1.8-0.6,3.4-1,4.9-1.4C356.7,193.8,356.2,194.8,355.6,195.7z M258,103.5c0.9-1.5,2.3-2.5,4-2.9
	c0.5-0.1,1.1-0.2,1.6-0.2c3.4,0.1,6.1,3,6,6.4s-3,6.1-6.4,6c-3.4-0.1-6.1-3-6-6.4C257.2,105.4,257.5,104.4,258,103.5z M259.9,120.4
	c1.1,0.3,2.3,0.4,3.4,0.4h1.7c-1.3,1.1-2.4,2.5-3.3,4L248.3,148l-3.6-1.6L259.9,120.4z M234.4,163.5l3.6,1.6l-1.6,2.8
	c-1.4,2.4-2.1,5.2-2.1,8c-1.7-0.6-3.7,0.1-4.6,1.6l-6.8,11.2l-2.8-1.6L234.4,163.5z M242,190L242,190l17.5,10.2l1.2,0.6l0,0
	l25.6,14.9c0.3,0.2,0.5,0.3,0.8,0.4c0.7,0.6,1.5,1.2,2.3,1.6L307,228c7.6,4.4,17.4,1.8,21.8-5.8l7.6-13l9,4c-4,8-6.8,15.2-8.4,19.3
	c-9.7-1.2-19.5,1.8-26.8,8.4l-80.6-47.6l4.7-7.7L242,190L242,190z M283.8,196c-1.4,2.4-2.1,5.2-2.1,8l-6-3.5
	c2.4-1.4,4.4-3.4,5.8-5.8l4.6-8l2.5,1.1L283.8,196z M134.8,336.8l-12.3,9.6l1.7-11.6c1.8,0.2,3.6,0.1,5.4-0.4c7.5-2,12-9.7,10-17.3
	c-0.6-2.3-1.8-4.3-3.4-6l2.1-3.6l10.1,5.8L134.8,336.8z M170.5,310.6l-1.1,1.8c-0.9,1.6-2.9,2.1-4.5,1.2l-26.1-15.1l0,0l-8.8-5.3
	c-1.6-0.9-2.1-2.9-1.2-4.5l1.1-1.8c0.9-1.6,2.9-2.1,4.5-1.2c0,0,0,0,0,0l35.2,20.4C171.1,307.1,171.5,309.1,170.5,310.6L170.5,310.6
	z M179.2,295.6l-1.1,1.8c-0.9,1.6-2.9,2.1-4.5,1.2c0,0,0,0,0,0l-35.2-20.4c-1.6-0.9-2.1-2.9-1.2-4.5l1.1-1.7
	c0.9-1.6,2.9-2.1,4.5-1.2c0,0,0,0,0,0l35.1,20.3C179.6,292,180.2,294,179.2,295.6C179.3,295.6,179.3,295.6,179.2,295.6L179.2,295.6z
	 M188,280.6l-1.1,1.8c-0.9,1.6-2.9,2.1-4.5,1.2c0,0,0,0,0,0l-35.2-20.4c-1.6-0.9-2.1-2.9-1.2-4.5c0,0,0,0,0,0l1.1-1.8
	c0.4-0.8,1.2-1.3,2-1.5h0.8c0.6,0,1.1,0.2,1.6,0.4l35.2,20.2C188.4,276.9,188.9,278.9,188,280.6C188,280.6,188,280.6,188,280.6
	L188,280.6z M196.7,265.6l-1.1,1.8c-0.9,1.6-2.9,2.1-4.5,1.2c0,0,0,0,0,0l-35.2-20.4c-1.6-0.9-2.1-2.9-1.2-4.5l1.1-1.8
	c0.6-1,1.7-1.6,2.9-1.6c0.6,0,1.1,0.2,1.6,0.4l35.2,20.4C197.1,261.9,197.6,264,196.7,265.6C196.7,265.6,196.7,265.6,196.7,265.6
	L196.7,265.6z M205.4,250.6l-1.1,1.8c-0.9,1.6-2.9,2.1-4.5,1.2c0,0,0,0,0,0l-35.2-20.4c-1.6-0.9-2.1-2.9-1.2-4.5l0,0l1.1-1.8
	c0.6-1,1.7-1.6,2.9-1.6c0.6,0,1.1,0.2,1.6,0.4l35.2,20.4C205.8,246.9,206.4,248.9,205.4,250.6C205.5,250.5,205.5,250.5,205.4,250.6
	L205.4,250.6z M212.9,231c1.6,0.9,2.1,2.9,1.2,4.5c0,0,0,0,0,0l-1.1,1.8c-0.9,1.6-2.9,2.1-4.5,1.2l-35.2-20.4
	c-1.6-0.9-2.1-2.9-1.2-4.5c0,0,0,0,0,0l1.2-1.7c0.9-1.6,2.9-2.1,4.5-1.2c0,0,0,0,0,0L212.9,231z M195.4,211.6l2.9-5l8,4.4l-3.1,5
	L195.4,211.6z M325.8,278.5c-5.6-3.3-7.4-10.5-4.1-16.1c0.9-1.6,2.3-3,3.8-3.9L330,280C328.5,279.8,327.1,279.3,325.8,278.5z
	 M341.8,274.2c-1,1.6-2.4,3-4,4l-4.6-21.6c1.5,0.2,3,0.7,4.3,1.4c5.6,3.3,7.7,10.4,4.5,16.2H341.8z M345.3,254.2
	c-1.2-1.2-2.5-2.1-4-3c-4.1-2.4-9-3.2-13.6-2.2h-0.1h-0.2h-0.8c-5.1,1.3-9.4,4.7-12,9.2c0,0.2-0.2,0.5-0.4,0.8L236,213.1
	c-4-2.4-8.8-3.1-13.4-2L199,197.8l0,0l-7.2-4l5.9-10.1L309,249.2c1.6,1,3.7,0.6,5-0.8c2.9-3.3,13.1-11,24.6-7.5
	c2.1,0.6,4.3-0.5,5-2.6c2.7-7.5,5.8-14.8,9.4-22l5.1,2.3c-5.7,11.3-9.9,23.2-12.6,35.5L345.3,254.2z M374.2,215.1
	c-0.5,1-1.6,1.4-2.6,1l-140-62.4c-1-0.5-1.5-1.6-1-2.6c0.3-0.7,1-1.2,1.8-1.2c0.3-0.1,0.5-0.1,0.8,0l140,62.4c1,0.4,1.6,1.5,1.2,2.5
	c0,0.1-0.1,0.2-0.1,0.3L374.2,215.1z M368.3,201.5l-5.4-2.4c2.1-3.1,4.3-6.1,6.8-8.9c1-1.2,1.3-2.9,0.6-4.3
	c-0.7-1.4-2.1-2.4-3.7-2.3c-5.8,0.4-11.5,1.5-17,3.3l4.8-8.2c4.4-7.6,1.8-17.4-5.8-21.9c0,0,0,0,0,0l-17.4-10.2
	c-7.6-4.4-17.4-1.8-21.9,5.8c0,0,0,0,0,0l-10.6,18l-2.5-1.1l10.8-18.4c4.4-7.6,1.8-17.4-5.8-21.9c0,0,0,0,0,0l-17.5-10.2
	c-3.2-1.8-7-2.5-10.6-1.9c1-0.9,2-2,2.7-3.2c0.3-0.6,0.6-1.1,0.9-1.7l111.6,64.8c-7.2,7.8-13.8,16-19.9,24.6L368.3,201.5z"/>
</svg>
