<svg viewBox="0 0 216 64" xmlns="http://www.w3.org/2000/svg">
<path d="M208 1.28C209.782 1.28 211.492 1.988 212.752 3.24824C214.012 4.50849 214.72 6.21775 214.72 8V56C214.72 57.7823 214.012 59.4915 212.752 60.7518C211.492 62.012 209.782 62.72 208 62.72H8C6.21775 62.72 4.50849 62.012 3.24824 60.7518C1.988 59.4915 1.28 57.7823 1.28 56V8C1.28 6.21775 1.988 4.50849 3.24824 3.24824C4.50849 1.988 6.21775 1.28 8 1.28H208ZM208 0H8C5.87827 0 3.84344 0.842855 2.34315 2.34315C0.842855 3.84344 0 5.87827 0 8V56C0 58.1217 0.842855 60.1566 2.34315 61.6569C3.84344 63.1571 5.87827 64 8 64H208C210.122 64 212.157 63.1571 213.657 61.6569C215.157 60.1566 216 58.1217 216 56V8C216 5.87827 215.157 3.84344 213.657 2.34315C212.157 0.842855 210.122 0 208 0Z"/>
<path d="M109.024 34.8C107.681 34.8063 106.369 35.2105 105.255 35.9615C104.141 36.7125 103.275 37.7768 102.765 39.0198C102.255 40.2629 102.125 41.6292 102.391 42.9461C102.657 44.2631 103.307 45.4717 104.259 46.4195C105.211 47.3673 106.423 48.0118 107.741 48.2716C109.06 48.5314 110.425 48.3949 111.666 47.8792C112.907 47.3636 113.967 46.4921 114.712 45.3745C115.458 44.257 115.856 42.9435 115.856 41.6C115.869 40.7007 115.701 39.808 115.362 38.9749C115.023 38.1419 114.52 37.3857 113.882 36.7512C113.245 36.1167 112.486 35.617 111.652 35.2818C110.817 34.9466 109.923 34.7827 109.024 34.8ZM109.024 45.728C108.198 45.7858 107.373 45.5937 106.658 45.1766C105.942 44.7596 105.369 44.1369 105.011 43.3895C104.654 42.6421 104.53 41.8046 104.656 40.9858C104.781 40.1671 105.15 39.4049 105.714 38.7985C106.278 38.192 107.012 37.7693 107.819 37.5852C108.627 37.4012 109.471 37.4644 110.242 37.7665C111.013 38.0687 111.676 38.5959 112.143 39.2795C112.611 39.9632 112.862 40.7717 112.864 41.6C112.89 42.1248 112.81 42.6495 112.63 43.1431C112.45 43.6366 112.173 44.0891 111.815 44.4739C111.457 44.8586 111.026 45.1678 110.546 45.3832C110.067 45.5986 109.55 45.7158 109.024 45.728ZM94.1283 34.8C92.784 34.8032 91.4709 35.2047 90.3548 35.9538C89.2386 36.7029 88.3695 37.766 87.8573 39.0088C87.3451 40.2516 87.2127 41.6184 87.4769 42.9364C87.7411 44.2544 88.39 45.4645 89.3416 46.4139C90.2932 47.3633 91.5049 48.0094 92.8235 48.2705C94.1421 48.5316 95.5086 48.396 96.7502 47.8808C97.9918 47.3657 99.0529 46.4941 99.7994 45.3762C100.546 44.2583 100.944 42.9442 100.944 41.6C100.957 40.7007 100.789 39.808 100.45 38.9749C100.111 38.1419 99.6077 37.3857 98.9703 36.7512C98.3328 36.1167 97.5742 35.617 96.7396 35.2818C95.905 34.9466 95.0115 34.7827 94.1123 34.8H94.1283ZM94.1283 45.728C93.3016 45.789 92.4757 45.5998 91.7581 45.1849C91.0405 44.77 90.4644 44.1486 90.1048 43.4017C89.7453 42.6549 89.6189 41.817 89.7422 40.9973C89.8654 40.1776 90.2326 39.414 90.796 38.8059C91.3593 38.1978 92.0926 37.7734 92.9005 37.5879C93.7084 37.4024 94.5535 37.4644 95.3256 37.7659C96.0978 38.0674 96.7613 38.5943 97.2298 39.2782C97.6983 39.962 97.95 40.7711 97.9523 41.6C97.978 42.1248 97.8985 42.6495 97.7182 43.1431C97.538 43.6366 97.2608 44.0891 96.9029 44.4739C96.545 44.8586 96.1137 45.1678 95.6344 45.3832C95.1551 45.5986 94.6376 45.7158 94.1123 45.728H94.1283ZM76.3843 36.896V39.776H83.2963C83.1879 41.1325 82.624 42.4125 81.6963 43.408C81.0047 44.1124 80.1734 44.6642 79.2558 45.0279C78.3382 45.3917 77.3546 45.5593 76.3683 45.52C74.3314 45.52 72.378 44.7108 70.9377 43.2706C69.4974 41.8303 68.6883 39.8769 68.6883 37.84C68.6883 35.8031 69.4974 33.8497 70.9377 32.4094C72.378 30.9691 74.3314 30.16 76.3683 30.16C78.3167 30.1282 80.1983 30.8705 81.6003 32.224L83.6323 30.192C82.6858 29.2336 81.5567 28.475 80.3116 27.9611C79.0666 27.4471 77.7311 27.1883 76.3843 27.2C74.9619 27.1446 73.5429 27.377 72.2125 27.8831C70.882 28.3893 69.6674 29.1588 68.6415 30.1456C67.6155 31.1324 66.7994 32.3161 66.2418 33.6259C65.6843 34.9357 65.397 36.3445 65.397 37.768C65.397 39.1915 65.6843 40.6003 66.2418 41.9101C66.7994 43.2198 67.6155 44.4036 68.6415 45.3904C69.6674 46.3772 70.882 47.1467 72.2125 47.6528C73.5429 48.159 74.9619 48.3913 76.3843 48.336C77.7538 48.3979 79.1207 48.1657 80.393 47.6551C81.6653 47.1446 82.8134 46.3674 83.7603 45.376C85.4365 43.5343 86.3315 41.1132 86.2563 38.624C86.2614 38.0176 86.2078 37.4121 86.0963 36.816L76.3843 36.896ZM148.88 39.136C148.463 37.9084 147.683 36.8364 146.643 36.0621C145.603 35.2878 144.352 34.8477 143.056 34.8C142.181 34.7983 141.315 34.9761 140.511 35.3224C139.707 35.6688 138.983 36.1763 138.383 36.8136C137.783 37.451 137.321 38.2045 137.024 39.0278C136.727 39.8511 136.602 40.7265 136.656 41.6C136.637 42.4942 136.798 43.3833 137.13 44.2139C137.461 45.0445 137.957 45.7998 138.588 46.4345C139.218 47.0692 139.97 47.5704 140.798 47.9081C141.626 48.2458 142.514 48.4131 143.408 48.4C144.527 48.406 145.631 48.1344 146.619 47.6094C147.608 47.0845 148.45 46.3226 149.072 45.392L146.752 43.792C146.406 44.3692 145.916 44.8467 145.33 45.1777C144.743 45.5086 144.081 45.6817 143.408 45.68C142.715 45.7064 142.03 45.5237 141.442 45.1556C140.855 44.7875 140.391 44.251 140.112 43.616L149.216 39.856L148.88 39.136ZM139.6 41.408C139.568 40.9131 139.634 40.4167 139.796 39.9479C139.958 39.4791 140.212 39.0473 140.543 38.6777C140.873 38.3082 141.275 38.0084 141.723 37.7959C142.171 37.5833 142.657 37.4623 143.152 37.44C143.668 37.406 144.183 37.5243 144.633 37.7803C145.082 38.0363 145.446 38.4187 145.68 38.88L139.6 41.408ZM132.208 48H135.2V28H132.208V48ZM127.312 36.32H127.2C126.749 35.8158 126.197 35.4127 125.579 35.1369C124.962 34.8612 124.293 34.7191 123.616 34.72C121.868 34.8048 120.219 35.5591 119.011 36.8265C117.804 38.094 117.13 39.7774 117.13 41.528C117.13 43.2786 117.804 44.962 119.011 46.2295C120.219 47.4969 121.868 48.2512 123.616 48.336C124.294 48.3474 124.967 48.21 125.586 47.9336C126.205 47.6572 126.756 47.2484 127.2 46.736H127.296V47.712C127.296 50.32 125.904 51.712 123.664 51.712C122.918 51.6945 122.194 51.4555 121.584 51.0252C120.975 50.595 120.507 49.993 120.24 49.296L117.632 50.384C118.123 51.5782 118.96 52.5985 120.034 53.314C121.109 54.0295 122.373 54.4077 123.664 54.4C127.168 54.4 130.064 52.336 130.064 47.312V35.2H127.312V36.32ZM123.888 45.728C122.856 45.637 121.896 45.1628 121.196 44.3987C120.496 43.6346 120.108 42.6361 120.108 41.6C120.108 40.5639 120.496 39.5654 121.196 38.8013C121.896 38.0372 122.856 37.5629 123.888 37.472C124.4 37.4982 124.901 37.6267 125.363 37.8496C125.824 38.0726 126.236 38.3857 126.574 38.7704C126.913 39.1551 127.171 39.6036 127.333 40.0896C127.496 40.5755 127.559 41.0891 127.52 41.6C127.564 42.1131 127.503 42.6297 127.341 43.1186C127.18 43.6075 126.92 44.0586 126.579 44.4444C126.238 44.8303 125.823 45.143 125.357 45.3636C124.892 45.5843 124.387 45.7082 123.872 45.728H123.888ZM162.896 28H155.744V48H158.736V40.416H162.912C163.765 40.4772 164.621 40.3622 165.427 40.078C166.234 39.7937 166.973 39.3464 167.599 38.764C168.224 38.1815 168.724 37.4764 169.065 36.6925C169.406 35.9087 169.582 35.0629 169.582 34.208C169.582 33.3531 169.406 32.5073 169.065 31.7235C168.724 30.9396 168.224 30.2345 167.599 29.652C166.973 29.0695 166.234 28.6223 165.427 28.338C164.621 28.0538 163.765 27.9387 162.912 28H162.896ZM162.896 37.6H158.72V30.784H162.96C163.87 30.784 164.743 31.1456 165.387 31.7892C166.031 32.4328 166.392 33.3058 166.392 34.216C166.392 35.1262 166.031 35.9992 165.387 36.6428C164.743 37.2864 163.87 37.648 162.96 37.648L162.896 37.6ZM181.344 34.72C180.255 34.6549 179.17 34.9094 178.224 35.4523C177.277 35.9953 176.51 36.8029 176.016 37.776L178.672 38.88C178.934 38.3973 179.331 38.0013 179.814 37.7399C180.297 37.4786 180.845 37.3632 181.392 37.408C181.772 37.3636 182.157 37.3953 182.524 37.5013C182.892 37.6073 183.234 37.7853 183.532 38.0251C183.83 38.2649 184.077 38.5616 184.259 38.8979C184.441 39.2343 184.554 39.6035 184.592 39.984V40.192C183.631 39.6832 182.56 39.4194 181.472 39.424C178.608 39.424 175.712 41.024 175.712 43.92C175.741 44.5375 175.892 45.1431 176.159 45.7009C176.425 46.2587 176.8 46.7575 177.263 47.1677C177.725 47.5779 178.265 47.8912 178.851 48.0891C179.436 48.2871 180.056 48.3656 180.672 48.32C181.426 48.3741 182.18 48.2244 182.856 47.8865C183.531 47.5487 184.103 47.0352 184.512 46.4H184.608V48H187.488V40.304C187.488 36.8 184.832 34.768 181.424 34.768L181.344 34.72ZM180.976 45.68C180 45.68 178.64 45.184 178.64 43.984C178.64 42.384 180.336 41.856 181.84 41.856C182.791 41.8325 183.73 42.0646 184.56 42.528C184.46 43.3942 184.051 44.1951 183.407 44.7832C182.763 45.3712 181.928 45.7067 181.056 45.728L180.976 45.68ZM197.984 35.2L194.56 43.872H194.464L190.912 35.2H187.712L193.04 47.328L190 54.064H193.12L201.312 35.2H197.984ZM171.088 48H174.08V28H171.088V48Z" />
<path d="M67.3765 22.832H66.1925V19.632H67.2005C67.6601 19.145 68.0072 18.563 68.2173 17.9271C68.4274 17.2912 68.4954 16.617 68.4165 15.952V11.2H74.8165V19.616H75.8885V22.816H74.7045V20.8H67.3765V22.832ZM69.6005 16C69.6751 17.2906 69.3572 18.5736 68.6885 19.68H73.4885V12.384H69.6005V16ZM85.4565 19.552C84.5211 20.4822 83.2556 21.0043 81.9365 21.0043C80.6173 21.0043 79.3518 20.4822 78.4165 19.552C77.5073 18.5896 77.0008 17.3159 77.0008 15.992C77.0008 14.6681 77.5073 13.3944 78.4165 12.432C78.8775 11.9676 79.4259 11.599 80.03 11.3475C80.6341 11.096 81.2821 10.9665 81.9365 10.9665C82.5909 10.9665 83.2388 11.096 83.8429 11.3475C84.447 11.599 84.9954 11.9676 85.4565 12.432C86.3692 13.3925 86.8782 14.667 86.8782 15.992C86.8782 17.3171 86.3692 18.5915 85.4565 19.552ZM79.3285 18.752C80.0212 19.4418 80.9589 19.8291 81.9365 19.8291C82.914 19.8291 83.8518 19.4418 84.5445 18.752C85.2281 17.9984 85.6067 17.0174 85.6067 16C85.6067 14.9826 85.2281 14.0016 84.5445 13.248C83.8518 12.5582 82.914 12.1709 81.9365 12.1709C80.9589 12.1709 80.0212 12.5582 79.3285 13.248C78.6449 14.0016 78.2662 14.9826 78.2662 16C78.2662 17.0174 78.6449 17.9984 79.3285 18.752ZM93.0885 21.008C92.4279 21.0211 91.7716 20.9005 91.159 20.6532C90.5463 20.406 89.99 20.0373 89.5236 19.5694C89.0572 19.1015 88.6904 18.5441 88.4451 17.9306C88.1998 17.3172 88.0812 16.6605 88.0965 16C88.0812 15.3395 88.1998 14.6828 88.4451 14.0694C88.6904 13.4559 89.0572 12.8985 89.5236 12.4306C89.99 11.9627 90.5463 11.594 91.159 11.3468C91.7716 11.0996 92.4279 10.9789 93.0885 10.992C93.758 10.9754 94.4225 11.1108 95.0321 11.3879C95.6418 11.665 96.1807 12.0767 96.6085 12.592L95.7445 13.424C95.4284 13.0228 95.021 12.7031 94.5561 12.4915C94.0913 12.28 93.5826 12.1828 93.0725 12.208C92.5814 12.1952 92.0927 12.2822 91.6362 12.4638C91.1797 12.6453 90.7648 12.9175 90.4165 13.264C89.7228 14.0221 89.338 15.0124 89.338 16.04C89.338 17.0676 89.7228 18.0579 90.4165 18.816C90.7648 19.1625 91.1797 19.4347 91.6362 19.6163C92.0927 19.7978 92.5814 19.8848 93.0725 19.872C93.6356 19.867 94.1906 19.7366 94.6971 19.4903C95.2036 19.2439 95.6488 18.8879 96.0005 18.448L96.8645 19.312C96.429 19.8402 95.8828 20.2662 95.2645 20.56C94.5815 20.8693 93.8381 21.0224 93.0885 21.008ZM101.888 20.8H100.656V12.384H97.9685V11.2H104.56V12.384H101.888V20.8ZM113.04 11.2L109.408 19.296C109.263 19.7749 108.973 20.1969 108.577 20.5035C108.182 20.8102 107.701 20.9865 107.2 21.008C106.87 21.0038 106.543 20.9331 106.24 20.8L106.56 19.664C106.755 19.7772 106.975 19.8379 107.2 19.84C107.436 19.8577 107.671 19.8018 107.872 19.68C108.065 19.5168 108.214 19.3077 108.304 19.072L108.656 18.304L105.456 11.216H106.912L109.28 16.72L111.584 11.2H113.04ZM114.432 20.8V11.2H121.376V20.8H120.144V12.384H115.664V20.8H114.432ZM123.568 20.8V11.2H124.8V15.312H129.6V11.2H130.832V20.8H129.6V16.464H124.8V20.8H123.568ZM140.896 19.552C139.961 20.4822 138.696 21.0043 137.376 21.0043C136.057 21.0043 134.792 20.4822 133.856 19.552C132.947 18.5896 132.441 17.3159 132.441 15.992C132.441 14.6681 132.947 13.3944 133.856 12.432C134.318 11.9676 134.866 11.599 135.47 11.3475C136.074 11.096 136.722 10.9665 137.376 10.9665C138.031 10.9665 138.679 11.096 139.283 11.3475C139.887 11.599 140.435 11.9676 140.896 12.432C141.809 13.3925 142.318 14.667 142.318 15.992C142.318 17.3171 141.809 18.5915 140.896 19.552ZM134.768 18.752C135.461 19.4418 136.399 19.8291 137.376 19.8291C138.354 19.8291 139.292 19.4418 139.984 18.752C140.668 17.9984 141.047 17.0174 141.047 16C141.047 14.9826 140.668 14.0016 139.984 13.248C139.292 12.5582 138.354 12.1709 137.376 12.1709C136.399 12.1709 135.461 12.5582 134.768 13.248C134.085 14.0016 133.706 14.9826 133.706 16C133.706 17.0174 134.085 17.9984 134.768 18.752ZM147.344 20.8V11.2H150.816C151.537 11.1864 152.236 11.4498 152.768 11.936C153.036 12.168 153.249 12.456 153.393 12.7795C153.536 13.1029 153.607 13.4541 153.6 13.808C153.608 14.2345 153.485 14.6531 153.248 15.008C153.014 15.3527 152.686 15.6244 152.304 15.792C152.769 15.9456 153.176 16.2356 153.472 16.624C153.78 17.016 153.944 17.5017 153.936 18C153.945 18.3689 153.871 18.735 153.722 19.0723C153.573 19.4097 153.351 19.7101 153.072 19.952C152.515 20.4659 151.782 20.7465 151.024 20.736L147.344 20.8ZM148.576 15.312H150.816C151.026 15.3207 151.234 15.2837 151.428 15.2036C151.621 15.1235 151.795 15.0021 151.936 14.848C152.078 14.7196 152.192 14.5639 152.273 14.3903C152.353 14.2167 152.397 14.0287 152.403 13.8376C152.409 13.6465 152.377 13.4561 152.307 13.2778C152.238 13.0996 152.134 12.9371 152 12.8C151.867 12.6488 151.701 12.5288 151.516 12.4486C151.331 12.3684 151.13 12.33 150.928 12.336H148.64L148.576 15.312ZM148.576 19.616H151.056C151.273 19.6233 151.489 19.5826 151.688 19.4968C151.887 19.4111 152.065 19.2824 152.208 19.12C152.491 18.8274 152.651 18.4384 152.656 18.032C152.656 17.6077 152.488 17.2007 152.188 16.9006C151.888 16.6006 151.481 16.432 151.056 16.432H148.624L148.576 19.616Z" />
<path fill-rule="evenodd" clip-rule="evenodd" d="M81.9365 11.1265C81.3032 11.1265 80.6762 11.2518 80.0915 11.4952C79.5075 11.7383 78.9773 12.0946 78.5314 12.5433C77.6512 13.4758 77.1608 14.7096 77.1608 15.992C77.1608 17.2742 77.651 18.5079 78.5311 19.4403C79.4363 20.3396 80.6605 20.8443 81.9365 20.8443C83.2126 20.8443 84.4368 20.3395 85.342 19.4402C86.2256 18.5096 86.7182 17.2753 86.7182 15.992C86.7182 14.7086 86.2254 13.4741 85.3417 12.5435C84.8958 12.0946 84.3655 11.7384 83.7814 11.4952C83.1968 11.2518 82.5698 11.1265 81.9365 11.1265ZM79.9685 11.1998C80.5921 10.9401 81.261 10.8065 81.9365 10.8065C82.612 10.8065 83.2808 10.9401 83.9044 11.1998C84.528 11.4594 85.0941 11.8399 85.57 12.3193L85.5725 12.3218C86.5135 13.312 87.0382 14.6259 87.0382 15.992C87.0382 17.3581 86.5135 18.672 85.5725 19.6622L85.5693 19.6655C84.604 20.6255 83.2979 21.1643 81.9365 21.1643C80.5751 21.1643 79.269 20.6254 78.3036 19.6655L78.3001 19.6619C77.3629 18.6699 76.8408 17.3568 76.8408 15.992C76.8408 14.6272 77.3629 13.3142 78.3002 12.3221L78.3029 12.3192C78.7788 11.8399 79.3449 11.4594 79.9685 11.1998ZM137.376 11.1265C136.743 11.1265 136.116 11.2518 135.532 11.4952C134.948 11.7383 134.417 12.0945 133.971 12.5432C133.091 13.4757 132.601 14.7096 132.601 15.992C132.601 17.2742 133.091 18.5079 133.971 19.4403C134.876 20.3396 136.1 20.8443 137.376 20.8443C138.653 20.8443 139.877 20.3395 140.782 19.4401C141.666 18.5095 142.158 17.2752 142.158 15.992C142.158 14.7086 141.665 13.4742 140.782 12.5435C140.336 12.0947 139.806 11.7384 139.221 11.4952C138.637 11.2518 138.01 11.1265 137.376 11.1265ZM135.409 11.1998C136.032 10.9401 136.701 10.8065 137.376 10.8065C138.052 10.8065 138.721 10.9401 139.344 11.1998C139.968 11.4594 140.534 11.8399 141.01 12.3193L141.012 12.3218C141.953 13.3121 142.478 14.6259 142.478 15.992C142.478 17.3581 141.953 18.672 141.012 19.6622L141.009 19.6655C140.044 20.6255 138.738 21.1643 137.376 21.1643C136.015 21.1643 134.709 20.6254 133.744 19.6655L133.74 19.6619C132.803 18.6699 132.281 17.3568 132.281 15.992C132.281 14.6272 132.803 13.3142 133.74 12.3221L133.743 12.3192C134.219 11.8399 134.785 11.4594 135.409 11.1998ZM94.9659 11.5336C94.3783 11.2664 93.7377 11.136 93.0924 11.152L93.0853 11.1521C92.4464 11.1394 91.8115 11.256 91.2188 11.4952C90.6262 11.7343 90.0881 12.0909 89.637 12.5435C89.1858 12.9961 88.8309 13.5354 88.5937 14.1288C88.3564 14.7222 88.2417 15.3574 88.2564 15.9963L88.2566 16.0037C88.2419 16.6426 88.3564 17.2779 88.5937 17.8712C88.8309 18.4646 89.1858 19.0039 89.637 19.4565C90.0881 19.9091 90.6262 20.2657 91.2188 20.5048C91.8115 20.744 92.4464 20.8607 93.0853 20.848L93.0885 21.008L93.0915 20.848C93.8169 20.8619 94.5362 20.714 95.1971 20.4149C95.75 20.152 96.2431 19.7796 96.6469 19.3207L96.0109 18.6847C95.6641 19.0805 95.2414 19.4035 94.7671 19.6341C94.2396 19.8907 93.6617 20.0266 93.0753 20.032C92.563 20.0451 92.0533 19.9543 91.5771 19.7649C91.1005 19.5754 90.6672 19.2912 90.3036 18.9294L90.2983 18.9241C89.5776 18.1366 89.178 17.1076 89.178 16.04C89.178 14.9724 89.5777 13.9436 90.2984 13.156L90.3035 13.1505C90.6671 12.7887 91.1005 12.5046 91.5771 12.3151C92.0519 12.1263 92.5599 12.0354 93.0706 12.0479C93.6042 12.0225 94.1362 12.1246 94.6224 12.3459C95.0569 12.5436 95.4437 12.8314 95.7574 13.1894L96.3886 12.5816C95.993 12.1374 95.5085 11.7802 94.9659 11.5336ZM93.0885 21.168C92.4075 21.1812 91.7308 21.0565 91.0991 20.8016C90.4664 20.5463 89.892 20.1656 89.4103 19.6824C88.9287 19.1992 88.5498 18.6235 88.2965 17.99C88.0437 17.3577 87.9212 16.6808 87.9364 16C87.9212 15.3192 88.0437 14.6423 88.2965 14.01C88.5498 13.3765 88.9287 12.8008 89.4103 12.3176C89.892 11.8344 90.4664 11.4537 91.0991 11.1984C91.7306 10.9436 92.4072 10.8189 93.0881 10.832C93.7805 10.8154 94.4678 10.9556 95.0984 11.2422C95.73 11.5294 96.2884 11.9559 96.7316 12.4898L96.8265 12.6042L95.7281 13.6619L95.6188 13.523C95.3186 13.1419 94.9315 12.8381 94.4899 12.6371C94.0483 12.4362 93.565 12.3438 93.0804 12.3678L93.0683 12.3684C92.5988 12.3562 92.1318 12.4389 91.6953 12.6124C91.2601 12.7855 90.8644 13.0448 90.532 13.3748C89.8669 14.103 89.498 15.0537 89.498 16.04C89.498 17.0264 89.8669 17.977 90.532 18.7052C90.8644 19.0352 91.2601 19.2945 91.6953 19.4676C92.1318 19.6411 92.5988 19.7243 93.0683 19.7121L93.071 19.712C93.6104 19.7072 94.142 19.5823 94.6271 19.3464C95.1122 19.1104 95.5387 18.7694 95.8755 18.3481L95.9872 18.2084L97.0804 19.3016L96.9879 19.4138C96.5375 19.9601 95.9726 20.4007 95.3331 20.7045L95.3305 20.7058C94.6268 21.0245 93.8609 21.1824 93.0885 21.168ZM152.661 12.0542C152.158 11.5956 151.499 11.3471 150.819 11.36L150.816 11.36H147.504V20.6372L151.022 20.576L151.027 20.576C151.744 20.586 152.437 20.3205 152.964 19.8344L152.967 19.8312C153.228 19.6046 153.436 19.3235 153.576 19.0076C153.716 18.6917 153.784 18.3489 153.777 18.0035L153.776 17.9976C153.783 17.536 153.632 17.086 153.347 16.7228L153.345 16.7212C153.068 16.3583 152.688 16.0874 152.254 15.9439L151.859 15.813L152.24 15.6455C152.594 15.49 152.898 15.2382 153.116 14.9187C153.334 14.591 153.447 14.2045 153.44 13.8108V13.8049C153.447 13.4744 153.381 13.1465 153.246 12.8444C153.112 12.5424 152.913 12.2735 152.664 12.0568L152.661 12.0542ZM152.875 11.8166C152.313 11.3039 151.576 11.026 150.815 11.04H147.184V20.9628L151.022 20.896L151.025 20.896C151.822 20.9064 152.593 20.6113 153.179 20.0712C153.475 19.8141 153.71 19.4952 153.868 19.1371C154.027 18.7792 154.105 18.3908 154.096 17.9995L154.096 18.0024L153.936 18L154.096 17.9965L154.096 17.9995C154.104 17.4659 153.928 16.9459 153.599 16.526C153.354 16.2061 153.039 15.9489 152.681 15.7731C152.957 15.5993 153.195 15.3699 153.381 15.0981L153.382 15.0968C153.636 14.7157 153.768 14.2662 153.76 13.8081L153.76 13.8111L153.6 13.808L153.76 13.8052L153.76 13.8081C153.767 13.4318 153.692 13.0585 153.539 12.7145C153.386 12.3702 153.159 12.0637 152.875 11.8166ZM68.2565 11.04H74.9765V19.456H76.0485V22.976H74.5445V20.96H67.5365V22.992H66.0325V19.472H67.1307C67.5512 19.0124 67.8698 18.4688 68.0654 17.8769C68.2682 17.2633 68.3338 16.6126 68.2576 15.9709L68.2565 15.9615V11.04ZM68.5765 11.36V15.9426C68.6564 16.6278 68.5857 17.3222 68.3692 17.9773C68.1518 18.6354 67.7925 19.2377 67.3168 19.7418L67.2695 19.792H66.3525V22.672H67.2165V20.64H74.8645V22.656H75.7285V19.776H74.6565V11.36H68.5765ZM97.8085 11.04H104.72V12.544H102.048V20.96H100.496V12.544H97.8085V11.04ZM98.1285 11.36V12.224H100.816V20.64H101.728V12.224H104.4V11.36H98.1285ZM111.478 11.04H113.288L109.559 19.3524C109.403 19.8589 109.094 20.3051 108.675 20.63C108.253 20.957 107.74 21.1449 107.207 21.1679L107.198 21.1682C106.846 21.1638 106.499 21.0882 106.176 20.9465L106.049 20.8905L106.462 19.4218L106.641 19.5257C106.811 19.625 107.005 19.6782 107.202 19.68L107.213 19.6801C107.41 19.695 107.608 19.6496 107.779 19.5495C107.946 19.4049 108.076 19.2212 108.155 19.0146L108.159 19.0052L108.481 18.3035L105.209 11.056H107.018L109.278 16.31L111.478 11.04ZM111.691 11.36L109.283 17.13L106.807 11.376H105.704L108.832 18.3045L108.452 19.1342C108.351 19.3931 108.188 19.6227 107.976 19.8021L107.966 19.8104L107.955 19.817C107.726 19.9551 107.46 20.0189 107.194 19.9999C107.011 19.9976 106.831 19.9608 106.662 19.8921L106.433 20.7054C106.678 20.7958 106.937 20.8441 107.198 20.848C107.663 20.827 108.111 20.6626 108.479 20.3771C108.848 20.0907 109.12 19.6967 109.255 19.2495L109.258 19.2398L112.793 11.36H111.691ZM114.272 11.04H121.536V20.96H119.984V12.544H115.824V20.96H114.272V11.04ZM114.592 11.36V20.64H115.504V12.224H120.304V20.64H121.216V11.36H114.592ZM123.408 11.04H124.96V15.152H129.44V11.04H130.992V20.96H129.44V16.624H124.96V20.96H123.408V11.04ZM123.728 11.36V20.64H124.64V16.304H129.76V20.64H130.672V11.36H129.76V15.472H124.64V11.36H123.728ZM79.2156 13.1346C79.9382 12.415 80.9166 12.0109 81.9365 12.0109C82.9564 12.0109 83.9347 12.415 84.6574 13.1346L84.6631 13.1404C85.3734 13.9234 85.7667 14.9428 85.7667 16C85.7667 17.0572 85.3733 18.0765 84.663 18.8595L84.6575 18.8655C83.9348 19.5852 82.9564 19.9891 81.9365 19.9891C80.9166 19.9891 79.9382 19.585 79.2156 18.8654L79.3285 18.752L79.21 18.8595C78.4997 18.0765 78.1062 17.0572 78.1062 16C78.1062 14.9428 78.4997 13.9235 79.21 13.1405L79.2156 13.1346ZM79.4442 18.6415C80.1067 19.2996 81.0026 19.6691 81.9365 19.6691C82.8704 19.6691 83.7663 19.2996 84.4287 18.6415C85.0839 17.9178 85.4467 16.9763 85.4467 16C85.4467 15.0237 85.0839 14.0823 84.4287 13.3585C83.7663 12.7004 82.8704 12.3309 81.9365 12.3309C81.0026 12.3309 80.1067 12.7004 79.4442 13.3585C78.7891 14.0823 78.4262 15.0237 78.4262 16C78.4262 16.9763 78.7891 17.9178 79.4442 18.6415ZM134.656 13.1346C135.378 12.415 136.357 12.0109 137.376 12.0109C138.396 12.0109 139.375 12.415 140.097 13.1346L140.103 13.1404C140.813 13.9234 141.207 14.9428 141.207 16C141.207 17.0572 140.813 18.0765 140.103 18.8595L140.098 18.8655C139.375 19.5852 138.396 19.9891 137.376 19.9891C136.357 19.9891 135.378 19.585 134.656 18.8654L134.768 18.752L134.65 18.8595C133.94 18.0765 133.546 17.0572 133.546 16C133.546 14.9428 133.94 13.9235 134.65 13.1405L134.656 13.1346ZM134.884 18.6415C135.547 19.2996 136.443 19.6691 137.376 19.6691C138.31 19.6691 139.206 19.2996 139.869 18.6415C140.524 17.9178 140.887 16.9763 140.887 16C140.887 15.0237 140.524 14.0822 139.869 13.3585C139.206 12.7004 138.31 12.3309 137.376 12.3309C136.443 12.3309 135.547 12.7004 134.884 13.3585C134.229 14.0822 133.866 15.0237 133.866 16C133.866 16.9763 134.229 17.9178 134.884 18.6415ZM150.926 12.176C151.151 12.1697 151.374 12.2126 151.58 12.3018C151.785 12.3908 151.969 12.5237 152.118 12.6912C152.265 12.8431 152.38 13.0229 152.457 13.2199C152.534 13.4182 152.57 13.63 152.563 13.8426C152.557 14.0552 152.507 14.2643 152.418 14.4574C152.33 14.6483 152.204 14.8197 152.049 14.9617C151.893 15.1304 151.702 15.2633 151.489 15.3514C151.275 15.44 151.045 15.4812 150.813 15.472H148.413L148.484 12.176H150.926ZM151.453 12.5954C151.289 12.5246 151.112 12.4906 150.933 12.4959L150.928 12.496H148.797L148.74 15.152H150.823C151.009 15.1598 151.195 15.127 151.366 15.0558C151.538 14.9846 151.693 14.8767 151.819 14.7397L151.824 14.7344L151.829 14.7295C151.955 14.6155 152.056 14.4773 152.127 14.3232C152.199 14.1691 152.238 14.0023 152.243 13.8326C152.249 13.6629 152.22 13.494 152.158 13.3357C152.097 13.1775 152.004 13.0332 151.886 12.9116L151.88 12.9061C151.762 12.7724 151.616 12.6663 151.453 12.5954ZM69.4405 12.224H73.6485V19.84H68.4048L68.5515 19.5972C69.2035 18.5185 69.5135 17.2676 69.4407 16.0092L69.4402 16L69.4405 12.224ZM69.7605 12.544V15.9954C69.8306 17.2234 69.5541 18.4444 68.9651 19.52H73.3285V12.544H69.7605ZM148.467 16.272H151.056C151.523 16.272 151.971 16.4574 152.301 16.7875C152.631 17.1176 152.816 17.5652 152.816 18.032L152.816 18.0343C152.81 18.4802 152.635 18.9071 152.326 19.2287C152.167 19.4075 151.971 19.5492 151.751 19.6438C151.531 19.7385 151.293 19.7836 151.054 19.776H148.414L148.467 16.272ZM148.782 16.592L148.739 19.456H151.062C151.255 19.4625 151.447 19.4263 151.625 19.3499C151.802 19.2735 151.961 19.1588 152.089 19.014L152.093 19.0089C152.347 18.7458 152.491 18.3962 152.496 18.0308C152.496 17.6494 152.344 17.2836 152.075 17.0138C151.805 16.7437 151.438 16.592 151.056 16.592H148.782Z" />
<path d="M16.8726 52.3175L36.4736 31.9875L16.889 11.6939C16.3659 12.0099 16.0422 12.7414 16.0422 13.699V50.3319C16.0493 51.2894 16.3613 51.9675 16.8726 52.3175Z" />
<path d="M37.1758 31.426L43.0143 25.3696L19.238 11.847C18.8376 11.6057 18.3828 11.4783 17.9197 11.4776L37.1734 31.4236L37.1758 31.426Z" />
<path d="M37.1756 32.5513L17.8608 52.5849C18.3456 52.5932 18.8231 52.462 19.2401 52.2057L43.0634 38.6467L37.1756 32.5513Z" />
<path d="M51.6277 30.2765L43.7156 25.7682L37.7175 31.9899L43.7601 38.2506L51.6253 33.7544C53.2979 32.7992 53.2978 31.2268 51.6277 30.2765Z" />
</svg>
