<?xml version="1.0" encoding="utf-8"?>
<!-- Generator: Adobe Illustrator 24.2.1, SVG Export Plug-In . SVG Version: 6.00 Build 0)  -->
<svg version="1.1" id="Layer_1" xmlns="http://www.w3.org/2000/svg" xmlns:xlink="http://www.w3.org/1999/xlink" x="0px" y="0px"
	 viewBox="0 0 120.5 115.6" style="enable-background:new 0 0 120.5 115.6;" xml:space="preserve">
<path style="fill-rule:evenodd;clip-rule:evenodd;fill:#2E5A90;" d="M52.3,78.9l-25.8-4.8c1.8-0.4,3.5-0.9,5.1-1.4
	c2.5-0.8,5.1-1.6,7.7-2.6c0.5-0.1,0.9-0.3,1.4-0.5L63,73.7C59.7,75.4,56.2,77.1,52.3,78.9"/>
<path style="fill-rule:evenodd;clip-rule:evenodd;fill:#2E5A90;" d="M96.7,51.4l-1.5,1.5c-1.1,1.1-2.2,2.2-3.1,3.2
	c-0.4,0.4-0.7,0.7-1.1,1l-0.4,0.3l-16.7-3.1c1.9-1.1,3.8-2.2,5.7-3.3l2.5-1.4l0,0c0.4-0.2,0.7-0.5,1.1-0.7L96.7,51.4z"/>
<path style="fill-rule:evenodd;clip-rule:evenodd;fill:#9E1D20;" d="M72.8,68.4l-20.1-3.7c1-0.4,1.9-0.9,2.9-1.3
	c2.8-1.3,5.6-2.6,8.3-3.9l18,3.3L81.7,63c-0.6,0.3-1,0.7-1.4,1C77.7,65.6,75.2,67.1,72.8,68.4 M99.1,37.7l7.5,1.4l0.4,0.6l0.3,0.3
	c-1.5,1.7-3.1,3.3-4.6,5l-0.4,0.4l-10.8-2c0.6-0.4,1.2-0.8,1.7-1.2C95.2,40.6,97.3,39.1,99.1,37.7z M40.1,83.9L40.1,83.9L40.1,83.9
	L40.1,83.9c-1.3,0.5-2.5,0.8-3.7,1.2c-1.1,0.3-2.1,0.6-3.2,0.8c-1.3,0.3-2.4,0.5-3.6,0.6c-0.8,0.1-1.3,0.1-1.8,0.2
	c-0.8,0.1-1.2,0.2-2.7,0.2c-1.1,0-1.8,0-2.4,0.1c-0.1-0.4-0.2-0.6-0.3-1C22,84.7,21.5,83.3,21,82c-0.2-0.6-0.4-1.2-0.6-1.8l19.8,3.6
	L40.1,83.9z"/>
<path style="fill-rule:evenodd;clip-rule:evenodd;fill:#0A233F;" d="M120.1,26.9c0.3,1.9,0.4,4,0.4,5.8c-0.1,6.2-2,11.9-5.3,17.1
	c-2.4,3.7-5.6,7.2-9.1,10.6c-2.9,2.8-6.7,6.1-9.8,8.9c-4.8,4.5-10.2,8.7-15.3,12.9c-3.7,2.9-7.3,5.7-11.1,8.5
	c-0.7,0.6-1.1,0.7-1.9,1.3c-0.6,0.5-1.3,0.8-1.9,1.4c-4.9,3-9,6.1-14.2,8.9l-3.8,2c0.1-0.1,0.3-0.2,0.3-0.3l1.5-1.1l0,0
	c0.5-0.4,0.9-0.7,1.4-1.1s0.9-0.7,1.2-1l0,0l1.2-1l0,0c0.5-0.4,0.9-0.8,1.4-1.2c0.3-0.3,0.7-0.6,1.1-1l0,0l2.1-2l0,0
	c0.7-0.6,1.4-1.3,2-1.9l0,0c0.7-0.6,1.3-1.3,2-2c0.7-0.6,1.2-1.3,1.9-2l0,0c0.7-0.6,1.2-1.3,1.8-2c0.7-0.8,1.3-1.4,1.9-2l0.7-0.7
	l0.6-0.7l0,0l0.9-0.9l0,0l1.9-2l0,0l1.9-2l0,0l1.7-1.9l0,0l1.7-1.9l0,0c0.8-0.9,1.5-1.7,2.2-2.5l0,0l1.5-1.6l0,0l1.7-1.9l0,0
	l1.5-1.6l0,0l1.5-1.6l0,0c1.1-1.2,2.3-2.4,3.6-3.8c1.2-1.3,2.5-2.6,3.8-3.8c2.3-2.2,4.9-4.9,7.8-7.7l0,0c2.8-2.8,5.6-5.7,8.2-8.7
	l0,0l1.6-1.7l0,0l1-1.1l0,0l0.6-0.6c0.4-0.6,1-1.1,1.4-1.6l0,0c0.4-0.6,0.8-1.1,1.2-1.6l0,0c0.8-1.1,1.7-2.2,2.6-3.4
	c0.8-1.2,1.5-2.4,2.2-3.7l0,0l0,0C119.5,28.1,119.8,27.6,120.1,26.9"/>
<path style="fill-rule:evenodd;clip-rule:evenodd;fill:#0A233F;" d="M0,101.5c0.1-2.8,0.8-5.3,1.8-7.9c1.3-3.4,4.4-9.1,6.2-12.1
	c0.5-0.9,1.8-2.6,2.2-3.4l5-7l2.4,7.6c0.4,1.3,0.8,2.7,1.2,4.1c0.5,1.3,0.9,2.8,1.3,4c0.2,0.6,0.3,1,0.2,1.6S19.8,89.8,19,91l0,0
	c-1.5,2.5-3,4.9-4.8,7.1c-1.7,2.2-3.5,4.2-5.4,6.2c-1.6,1.9,0,1.4,1.1,0.8c1.2-0.6,3.1-2.3,4.9-4c2.4-2.3,4.7-4.9,5.8-6.5
	c1-1.6,1.7-2.8,2-3.6c0.7-1.3,0.8-1.4,2.6-1.5c1.7,0,2.2,0,2.9-0.2c0.4,0,1-0.1,1.7-0.2l0,0c3.7-0.3,7.8-1.5,12-3.1
	c4.2-1.4,8.3-3.3,11.5-4.8c5.3-2.4,10-4.6,14.5-7l0,0c4-2.1,8-4.4,12.1-6.9l-3,3.5l0,0l0,0.1C74.3,74,71.5,77,68.8,80l0,0L67,82
	l0.1,0c-0.2,0.2-0.3,0.3-0.5,0.5L65.2,84l0,0c-1.1,1.3-2.4,2.6-3.6,3.8c-1.2,1.3-2.4,2.5-3.7,3.6c-1.3,1.2-2.6,2.4-3.8,3.6
	c-1.3,1.1-2.6,2.2-4,3.4c-0.8,0.7-1.5,1.2-2.3,1.8c-0.7,0.6-1.5,1.1-2.4,1.8l0,0l-0.1,0.1l0,0c-0.9,0.7-1.9,1.3-2.7,2l0,0l-3,2.4
	c-1.7,1.1-3.3,2.2-4.8,3c-1.4,0.8-2.6,1.4-3.8,1.8c-7.4,2.9-18.6,7-25.6,1.8c-1.2-0.9-2.2-2-3.1-3.4c-0.4-0.7-0.8-1.4-1.1-2
	C0.3,105.6-0.1,103.8,0,101.5"/>
<path style="fill-rule:evenodd;clip-rule:evenodd;fill:#0A233F;" d="M11.4,45C10,31.8,14.6,22.7,28.6,15.7c4.1-2,10-4.4,14.3-6
	l0.1-0.1c-1.1,1.1-2,2-2.8,3c-1.7,1.8-3.3,3.6-6.6,6c-1.6,1-3.4,2.2-5.2,3.3c-1.5,0.9-3.1,1.7-4.6,2.2c-1.1,0.4-1.8,0.8-2.1,1l0,0
	c-1.4,1.1-1.1,1.6,0.5,1.7l0,0c0.2,0,0.7-0.1,1.2-0.2l0,0c1.7-0.3,5-1.4,7.5-2.6l0,0c7.3-3.7,9.3-5.9,12-9.1c1.5-1.6,3-3.6,5.8-6
	c1.8-1.4,3.9-3,6.1-4.5c1.5-0.9,3-1.8,4.5-2.5c0.6-0.2,1.1-0.4,1.7-0.6c2-0.7,3.7-1.1,5.3-1.3c2-0.2,3.9,0.1,5.6,0.6
	c3.6,1.1,6.8,3.7,10.3,7.6l0,0c4.3,4.7,7.9,9.6,11.6,14.6l1.8,2.4l5.4,7.4c-2.4,2-5.8,4.7-9.5,7.3c-4,2.9-8.1,5.7-11,7.3l0,0
	l-2.3,1.4c-2.8,1.6-5.5,3.2-8.3,4.8c-4.3,2.4-9.8,5.1-15.3,7.6c-5.7,2.6-11.5,5-16.1,6.5c-2.6,0.9-5.2,1.8-7.6,2.5
	c-2.5,0.8-5,1.4-7.6,2.1l0,0c-0.6,0.1-1.7,0.3-2.8,0.4c-0.5,0-1,0.2-1.4,0.1l-1-3.1c-1.1-3.3-3.9-13.8-6.5-23.9L11.4,45z"/>
<path style="fill-rule:evenodd;clip-rule:evenodd;fill:#0A233F;" d="M110.8,21.1l-11.6,3.2l5,6.8l1.1,1.4l0.3,0.3l0,0l3.1,4.2
	c0.6-0.7,1.2-1.4,1.7-2c0.8-0.9,1.4-1.8,2.1-2.7c0.4-0.5,0.8-1.1,1.2-1.7c0.4-0.5,0.7-1.1,1.1-1.6c0.3-0.4,0.6-1,1-1.5l0,0
	c0.3-0.4,0.5-0.8,0.6-1.1l0.2-0.3c0.7-1.2,1.9-3.3,1.4-4.3l0,0c-0.5-0.8-1.7-1.1-3.1-1.2C113.4,20.6,111.7,21,110.8,21.1"/>
</svg>
