<?xml version="1.0" standalone="no"?>
<!DOCTYPE svg PUBLIC "-//W3C//DTD SVG 20010904//EN"
 "http://www.w3.org/TR/2001/REC-SVG-20010904/DTD/svg10.dtd">
<svg version="1.0" xmlns="http://www.w3.org/2000/svg"
 width="968.000000pt" height="968.000000pt" viewBox="0 0 968.000000 968.000000"
 preserveAspectRatio="xMidYMid meet">
<metadata>
Created by potrace 1.14, written by Peter Selinger 2001-2017
</metadata>
<g transform="translate(0.000000,968.000000) scale(0.100000,-0.100000)"
fill="#000000" stroke="none">
<path d="M5255 9469 c-22 -4 -53 -10 -70 -13 -16 -3 -45 -10 -62 -15 -18 -5
-33 -7 -33 -4 0 3 -7 0 -15 -7 -8 -7 -15 -10 -15 -7 0 10 -287 -91 -358 -126
-61 -31 -155 -83 -192 -107 -8 -5 -33 -19 -54 -31 -22 -12 -46 -27 -53 -35 -7
-7 -22 -16 -33 -19 -11 -3 -20 -10 -20 -14 0 -3 -15 -15 -32 -26 -39 -22 -234
-167 -264 -195 -12 -11 -25 -20 -29 -20 -6 0 -72 -50 -125 -96 -55 -47 -269
-264 -335 -338 -39 -44 -79 -90 -90 -102 -11 -12 -42 -48 -70 -80 -98 -116
-263 -274 -360 -347 -78 -57 -135 -95 -135 -89 0 4 -5 -1 -11 -10 -5 -10 -14
-18 -18 -18 -7 0 -163 -90 -186 -107 -6 -5 -46 -26 -90 -48 -44 -22 -83 -44
-86 -48 -3 -5 -10 -9 -15 -9 -5 -1 -38 -14 -74 -30 -36 -17 -83 -37 -105 -45
-22 -8 -49 -19 -60 -24 -80 -35 -291 -99 -380 -114 -16 -3 -39 -8 -50 -12 -38
-11 -107 -4 -143 16 -17 9 -21 18 -17 34 7 21 67 87 80 87 4 0 19 8 33 19 15
10 45 24 67 31 22 7 45 16 50 20 6 4 28 13 50 20 61 19 220 97 318 157 49 29
92 53 98 53 5 0 9 4 9 9 0 5 14 14 30 21 16 7 30 16 30 21 0 5 4 9 9 9 15 0
267 166 341 224 153 120 318 276 443 420 29 33 83 91 120 130 38 39 73 76 78
83 9 10 -222 -73 -296 -106 -49 -22 -243 -100 -256 -103 -8 -2 -17 -6 -20 -11
-3 -4 -14 -9 -25 -11 -10 -3 -45 -16 -76 -30 -112 -50 -133 -59 -143 -61 -30
-7 -445 -210 -510 -249 -22 -14 -58 -35 -80 -46 -59 -33 -237 -151 -258 -172
-10 -10 -21 -18 -25 -18 -4 0 -20 -11 -37 -25 -16 -13 -35 -28 -40 -32 -100
-76 -289 -262 -353 -348 -4 -5 -23 -30 -42 -54 -74 -94 -163 -251 -231 -406
-26 -61 -83 -251 -94 -317 -3 -18 -8 -40 -10 -48 -4 -15 -14 -79 -21 -135 -25
-196 -17 -640 12 -687 4 -5 13 -35 20 -66 8 -31 16 -64 18 -72 2 -8 18 -71 36
-140 17 -69 34 -132 37 -140 3 -8 7 -22 9 -30 2 -8 17 -69 35 -135 17 -66 33
-127 35 -135 2 -8 8 -33 14 -55 6 -22 15 -56 20 -75 5 -19 17 -68 28 -107 11
-40 18 -73 15 -73 -3 0 -1 -6 5 -12 8 -10 21 -55 27 -88 2 -12 27 -106 32
-120 4 -8 8 -23 9 -32 6 -28 91 -328 118 -418 15 -47 28 -94 30 -105 2 -11 22
-76 45 -145 22 -69 41 -129 41 -135 0 -5 7 -23 15 -39 8 -15 13 -32 10 -37 -8
-12 26 -27 55 -24 14 2 25 4 25 5 0 1 20 3 45 5 25 1 65 6 90 10 25 3 61 9 80
12 19 3 85 18 145 34 61 17 119 31 130 33 11 2 20 4 20 5 0 2 9 4 20 7 11 2
61 15 110 29 50 14 97 28 105 30 8 2 60 18 115 35 55 17 107 32 115 34 8 2 41
13 73 24 31 11 57 18 57 15 0 -3 7 0 15 7 8 7 15 10 15 6 0 -4 13 0 30 9 16 8
38 15 50 15 11 0 20 5 20 12 0 6 3 9 6 5 4 -3 34 4 68 17 33 13 63 24 66 24 3
0 19 6 35 12 17 7 35 13 40 14 23 5 183 58 210 70 17 8 48 19 70 26 22 7 46
17 53 23 6 5 12 7 12 4 0 -6 93 29 159 60 18 8 39 16 45 18 13 2 34 11 91 35
22 10 63 25 90 35 28 10 55 21 60 25 6 3 42 19 80 34 39 15 77 32 85 37 8 5
22 12 30 15 39 15 140 59 190 82 30 14 57 26 60 27 14 4 66 28 174 79 65 31
119 56 121 56 2 0 69 32 150 70 81 39 150 70 155 70 4 0 13 7 20 15 7 9 15 14
17 11 4 -4 396 193 523 263 41 23 87 47 103 52 15 6 27 15 27 20 0 5 4 9 10 9
5 0 52 25 105 55 52 30 99 55 105 55 5 0 10 4 10 8 0 4 26 21 58 36 31 16 64
34 72 41 8 7 35 24 60 37 114 63 160 91 166 99 3 5 10 7 15 4 5 -4 9 -3 9 2 0
4 15 14 33 22 17 8 41 22 52 31 11 10 30 21 43 25 12 3 22 11 22 16 0 5 5 9
10 9 6 0 36 16 66 35 30 19 57 35 61 35 3 0 14 6 22 14 9 7 36 24 61 37 25 13
49 27 55 32 28 22 137 87 145 87 4 0 10 3 12 8 2 4 62 46 133 94 72 48 159
108 195 133 36 26 76 54 90 63 14 9 31 22 38 29 8 7 23 18 35 24 11 7 26 16
31 21 6 5 34 25 63 46 180 129 247 178 258 190 8 6 18 12 23 12 6 0 12 4 14 8
2 4 55 48 118 96 63 49 129 101 146 115 17 14 49 40 69 56 21 17 47 38 57 48
10 9 18 15 18 12 0 -2 11 7 25 21 15 15 22 30 18 37 -15 25 -198 273 -210 285
-7 7 -13 17 -13 21 0 4 -10 19 -21 32 -12 13 -29 35 -38 49 -9 14 -64 90 -123
168 -60 79 -108 148 -108 152 0 5 -4 10 -8 12 -5 2 -28 30 -53 63 -24 33 -46
62 -49 65 -3 3 -21 28 -39 55 -19 28 -38 52 -41 55 -3 3 -22 28 -41 55 -18 28
-41 57 -49 65 -8 8 -19 23 -25 32 -25 43 -263 347 -285 365 -8 7 -10 13 -5 13
6 0 6 3 -1 8 -5 4 -41 45 -79 92 -38 47 -72 87 -75 90 -3 3 -29 34 -59 70 -30
36 -64 75 -75 86 -12 12 -48 52 -81 90 -115 131 -311 322 -397 386 -20 15 -43
35 -52 44 -9 8 -16 12 -16 7 0 -4 -4 -3 -8 3 -20 31 -264 165 -329 180 -15 4
-32 9 -38 13 -5 3 -14 6 -20 7 -5 2 -52 11 -104 22 -101 22 -330 28 -406 11z"/>
<path d="M9177 7824 c-1 -1 -31 -5 -67 -9 -36 -4 -74 -9 -85 -11 -11 -2 -40
-7 -65 -10 -42 -5 -95 -18 -130 -31 -8 -4 -18 -6 -21 -5 -4 1 -22 -3 -40 -9
-19 -6 -74 -21 -124 -35 -49 -14 -97 -27 -105 -29 -8 -3 -40 -11 -70 -19 -30
-8 -145 -40 -254 -70 -109 -31 -205 -56 -213 -56 -29 0 -24 -31 14 -79 21 -28
49 -66 63 -86 14 -20 30 -42 35 -48 6 -7 35 -46 65 -87 30 -41 58 -79 63 -85
4 -5 56 -75 116 -155 60 -80 118 -154 128 -165 10 -11 29 -36 43 -55 13 -19
32 -43 42 -53 10 -10 18 -24 18 -32 0 -8 4 -15 9 -15 5 0 31 -33 59 -73 70
-102 73 -104 105 -64 14 18 36 44 49 58 45 49 113 132 122 148 5 9 12 18 15
21 3 3 26 32 51 65 25 33 47 62 50 65 3 3 23 32 45 65 22 33 42 62 45 65 13
12 110 161 110 169 0 5 3 11 8 13 9 4 64 85 82 123 8 17 34 63 58 103 23 40
42 75 42 78 0 2 7 21 16 42 36 81 41 138 15 180 -12 17 -28 32 -36 32 -8 0
-15 4 -15 8 0 8 -55 25 -119 38 -33 6 -120 12 -124 8z"/>
<path d="M9636 7295 c-13 -30 -17 -46 -21 -91 -3 -40 -8 -50 -80 -174 -35 -59
-107 -170 -127 -195 -5 -5 -27 -35 -51 -65 -23 -30 -45 -56 -49 -58 -5 -2 -8
-9 -8 -16 0 -6 -9 -18 -20 -26 -11 -8 -20 -20 -20 -27 0 -7 -4 -13 -8 -13 -4
0 -15 -12 -24 -27 -9 -16 -26 -39 -38 -53 -12 -14 -35 -44 -51 -67 -16 -23
-35 -46 -42 -50 -7 -4 -36 -37 -65 -71 -28 -35 -52 -60 -52 -56 0 5 -8 -3 -17
-16 -15 -22 -52 -63 -163 -180 -19 -20 -64 -70 -100 -111 -36 -40 -72 -81 -80
-89 -8 -9 -69 -74 -135 -145 -114 -123 -706 -717 -1092 -1095 -154 -151 -249
-249 -509 -527 -114 -121 -254 -272 -295 -318 -38 -43 -88 -97 -179 -195 -31
-33 -141 -156 -170 -190 -12 -14 -49 -56 -83 -94 -34 -38 -70 -78 -80 -89 -25
-30 -157 -175 -187 -207 -69 -74 -357 -375 -443 -464 -54 -55 -119 -125 -145
-155 -83 -96 -110 -126 -168 -187 -145 -151 -299 -305 -402 -402 -63 -59 -142
-134 -177 -167 -81 -78 -209 -191 -268 -238 -16 -12 -43 -35 -60 -50 -53 -46
-99 -84 -167 -136 -36 -28 -69 -54 -75 -59 -5 -4 -31 -22 -57 -40 -27 -18 -48
-35 -48 -37 0 -6 23 -2 30 6 3 3 30 18 60 33 56 29 229 120 265 140 11 6 28
17 38 25 9 8 17 10 17 5 0 -5 4 -4 8 1 7 10 109 75 118 75 2 0 43 25 89 55 47
30 88 55 90 55 3 0 26 15 52 33 27 17 57 38 68 45 78 49 139 89 149 97 22 19
75 55 82 55 3 0 16 8 29 18 29 22 45 32 135 89 41 26 77 51 78 55 2 4 8 8 13
8 16 0 139 83 206 140 7 5 16 10 21 10 5 0 17 9 27 20 10 11 24 20 32 20 7 0
13 4 13 8 0 4 15 16 33 26 40 23 181 128 185 139 2 4 10 7 17 7 7 0 15 3 17 8
2 4 59 49 128 101 111 84 160 122 195 150 6 4 49 37 95 72 47 35 87 66 90 69
3 3 28 23 55 45 28 22 52 43 53 47 2 5 8 8 14 8 5 0 15 6 23 13 18 17 44 38
90 72 22 16 42 32 45 35 3 3 30 25 60 50 30 25 57 48 58 53 2 4 10 7 18 7 8 0
14 4 14 8 0 4 21 24 48 45 26 20 59 46 73 59 15 13 44 37 65 53 21 17 48 39
60 50 12 11 35 29 50 40 15 11 35 27 43 35 9 9 39 33 66 55 28 22 55 44 61 50
6 5 33 28 60 50 27 22 59 50 71 62 13 12 29 26 36 30 8 4 42 33 77 63 35 30
73 64 86 75 44 38 158 140 189 170 18 17 65 59 105 95 40 36 85 76 100 90 15
14 58 52 95 85 38 33 79 69 91 80 12 11 57 52 100 90 227 204 594 558 594 573
0 2 17 20 38 41 57 57 142 150 142 156 0 3 8 13 18 23 38 40 82 92 82 97 0 4
29 40 55 69 6 6 33 43 60 81 27 39 52 72 55 75 3 3 10 14 17 25 6 11 36 61 66
110 83 137 119 205 110 205 -4 0 -3 4 2 8 23 16 140 299 161 387 2 6 14 50 28
100 14 49 23 91 21 93 -2 3 0 12 4 21 5 9 12 32 15 51 3 19 8 46 11 60 5 29
11 77 22 170 16 139 7 533 -16 640 -6 31 -8 32 -15 15z"/>
<path d="M7910 6413 c-25 -19 -58 -46 -75 -60 -16 -13 -42 -32 -57 -41 -16 -9
-28 -20 -28 -24 0 -4 -4 -8 -10 -8 -5 0 -18 -8 -28 -17 -11 -10 -32 -27 -47
-38 -16 -11 -49 -36 -74 -56 -103 -80 -178 -135 -204 -153 -16 -9 -27 -19 -25
-22 4 -3 56 -14 143 -30 17 -3 76 -14 132 -25 56 -11 105 -19 110 -18 4 1 15
0 23 -3 13 -5 84 -20 160 -32 14 -3 61 -12 105 -20 44 -8 91 -17 105 -20 14
-2 37 -7 51 -11 22 -5 35 5 115 91 49 53 109 118 134 144 25 26 65 70 89 96
25 27 55 60 67 74 l23 25 -32 37 c-32 38 -65 49 -217 72 -19 3 -46 8 -60 11
-14 3 -41 8 -60 11 -19 4 -44 9 -55 11 -11 3 -33 6 -50 9 -16 2 -62 11 -102
19 -40 8 -76 15 -80 14 -4 0 -28 -16 -53 -36z"/>
<path d="M6645 5526 c-16 -14 -33 -25 -37 -26 -10 0 -132 -73 -139 -83 -3 -5
-8 -8 -10 -7 -7 3 -63 -21 -69 -29 -3 -4 -52 -34 -109 -66 -57 -33 -116 -67
-130 -75 -14 -8 -68 -39 -118 -68 -51 -30 -93 -55 -93 -56 0 -2 6 -3 13 -4 6
0 23 -3 37 -6 14 -2 41 -7 60 -10 19 -3 46 -8 60 -11 24 -6 100 -19 169 -31
18 -3 42 -8 52 -10 45 -10 56 -12 99 -19 52 -9 75 -13 110 -20 20 -4 180 -35
265 -51 46 -8 92 -16 115 -19 14 -2 25 -4 25 -5 0 -1 11 -3 25 -6 14 -2 36 -7
50 -11 14 -3 29 -5 34 -4 4 1 51 -7 104 -19 53 -11 105 -20 116 -20 12 0 106
87 254 237 204 206 231 238 214 244 -18 7 -51 13 -167 34 -16 2 -41 7 -55 10
-38 9 -115 23 -220 41 -43 8 -124 23 -150 29 -14 3 -36 7 -50 9 -40 7 -115 20
-120 21 -3 1 -25 5 -50 9 -43 8 -55 10 -99 20 -10 2 -36 7 -57 10 -22 4 -52 9
-69 12 -22 3 -38 -2 -60 -20z"/>
<path d="M5065 4666 c-68 -33 -163 -78 -315 -149 -41 -19 -113 -53 -160 -75
-47 -22 -112 -52 -145 -66 -188 -85 -219 -101 -182 -103 27 -2 174 -28 190
-34 1 -1 13 -3 27 -4 39 -6 92 -15 120 -21 14 -3 36 -8 50 -10 95 -17 190 -34
215 -39 17 -4 39 -8 50 -10 11 -1 49 -8 85 -15 36 -7 74 -14 85 -16 37 -6 80
-14 105 -20 14 -4 36 -8 50 -10 33 -4 64 -10 128 -23 29 -6 56 -10 60 -9 4 1
18 -2 32 -5 14 -4 36 -9 50 -11 14 -3 34 -7 45 -9 11 -3 63 -12 115 -21 53 -9
109 -20 125 -24 17 -4 35 -8 42 -8 12 1 124 57 133 67 3 3 12 8 20 12 18 8
105 59 250 146 122 74 237 147 247 157 7 6 28 22 48 34 31 19 47 42 28 39 -5
-1 -10 0 -13 1 -3 1 -16 3 -30 5 -14 1 -36 5 -50 8 -14 3 -63 12 -110 21 -47
9 -95 18 -107 20 -11 3 -43 8 -70 12 -26 5 -50 9 -53 9 -10 3 -76 15 -100 19
-31 5 -98 17 -125 23 -34 7 -58 12 -120 22 -33 6 -69 13 -80 15 -11 2 -58 11
-105 20 -79 14 -104 19 -185 32 -16 3 -37 7 -45 9 -8 2 -37 7 -65 11 -27 3
-53 8 -56 10 -4 2 -24 6 -45 9 -22 4 -46 8 -54 10 -8 3 -47 -10 -85 -29z"/>
<path d="M6380 4048 c0 -4 -7 -8 -15 -8 -8 0 -15 -3 -15 -7 0 -5 -23 -19 -50
-32 -28 -14 -50 -28 -50 -32 0 -4 -12 -12 -27 -18 -29 -10 -84 -42 -93 -52 -3
-3 -30 -19 -60 -36 -100 -55 -305 -175 -317 -185 -7 -6 -13 -7 -13 -4 0 4 -12
-1 -27 -12 -16 -10 -50 -30 -78 -44 -27 -15 -88 -47 -135 -72 -47 -26 -105
-56 -130 -68 -25 -12 -46 -26 -48 -30 -2 -4 -12 -8 -23 -8 -10 0 -19 -4 -19
-10 0 -5 -9 -10 -19 -10 -11 0 -21 -3 -23 -7 -4 -9 -88 -53 -103 -54 -5 0 -17
-6 -25 -14 -8 -7 -26 -16 -40 -20 -14 -4 -27 -11 -30 -14 -3 -3 -30 -17 -60
-31 -30 -14 -58 -29 -61 -33 -3 -5 -8 -7 -10 -6 -2 2 -31 -10 -64 -26 -33 -16
-62 -30 -65 -30 -3 -1 -45 -21 -95 -44 -80 -38 -150 -71 -380 -176 -33 -15
-91 -42 -130 -60 -73 -34 -146 -67 -227 -104 -26 -11 -52 -21 -57 -21 -6 0
-11 -5 -11 -12 0 -6 -3 -9 -6 -6 -5 6 -34 -5 -152 -58 -29 -13 -57 -24 -62
-24 -6 0 -18 -4 -28 -9 -9 -5 -44 -20 -77 -32 -33 -12 -69 -26 -80 -31 -12 -5
-27 -10 -35 -12 -8 -2 -23 -6 -32 -10 -9 -4 -22 -9 -30 -10 -7 -2 -26 -8 -43
-15 -54 -23 -184 -68 -217 -77 -5 -1 -10 -3 -13 -4 -3 -1 -8 -3 -12 -5 -5 -1
-15 -5 -23 -8 -17 -7 -186 -57 -213 -62 -10 -2 -27 -7 -37 -10 -25 -8 -65 -17
-180 -40 -93 -18 -161 -28 -277 -40 -28 -3 -66 -8 -85 -11 -73 -11 -114 -14
-233 -18 -97 -3 -130 -8 -154 -22 -32 -19 -39 -29 -93 -139 -37 -74 -149 -261
-177 -295 -11 -14 -24 -30 -28 -35 -44 -58 -176 -207 -245 -279 -49 -49 -88
-94 -88 -98 0 -4 -3 -8 -8 -8 -4 0 -46 -37 -93 -82 -48 -46 -104 -97 -125
-115 -22 -18 -51 -42 -66 -55 -57 -49 -72 -61 -122 -92 -95 -60 -177 -89 -190
-67 -14 22 20 66 189 248 17 18 48 53 70 79 22 26 49 56 60 68 11 11 67 80
124 151 56 72 110 139 119 150 10 11 31 40 47 64 17 24 37 54 45 66 79 116
140 213 140 223 0 6 3 12 8 14 7 3 125 195 151 246 21 41 28 104 16 157 -6 31
-41 144 -77 249 -11 32 -21 63 -22 70 -1 6 -4 16 -8 21 -3 6 -13 37 -23 70
-21 77 -19 72 -35 125 -8 25 -14 47 -15 50 -15 55 -32 110 -61 198 -38 115
-37 112 -48 157 -4 17 -11 39 -16 50 -11 25 -77 240 -86 279 l-7 29 -26 -30
c-14 -17 -48 -63 -76 -102 -27 -40 -55 -77 -60 -84 -6 -7 -21 -29 -35 -49 -14
-21 -28 -38 -32 -38 -5 0 -8 -4 -8 -10 0 -8 -57 -90 -138 -198 -9 -13 -28 -43
-41 -65 -13 -23 -26 -44 -30 -47 -8 -7 -61 -88 -61 -95 0 -3 -10 -16 -23 -31
-21 -24 -68 -100 -83 -134 -4 -8 -15 -26 -24 -40 -18 -27 -58 -98 -128 -230
-25 -47 -50 -88 -55 -91 -5 -3 -8 -9 -8 -13 1 -6 -93 -196 -128 -260 -12 -20
-20 -37 -20 -39 1 -1 -13 -33 -31 -72 -35 -76 -109 -261 -115 -285 -2 -8 -8
-27 -14 -43 -18 -47 -58 -208 -67 -267 -2 -19 -7 -46 -10 -60 -10 -42 -13
-340 -3 -373 5 -16 11 -48 15 -71 3 -22 10 -48 14 -57 5 -9 6 -19 3 -23 -3 -3
-2 -6 3 -6 5 0 10 -9 11 -20 1 -11 9 -35 17 -52 9 -17 16 -37 16 -45 0 -7 5
-13 10 -13 6 0 10 -9 10 -20 0 -11 3 -20 8 -20 4 0 20 -26 35 -58 57 -115 189
-267 296 -339 31 -21 58 -41 61 -44 10 -11 136 -67 195 -87 56 -18 93 -27 235
-52 52 -9 361 -7 405 3 11 2 42 8 68 11 27 4 57 9 67 11 9 2 33 6 51 9 67 11
91 17 202 47 61 16 119 31 127 33 16 3 85 24 110 33 8 4 17 7 20 8 88 26 289
98 431 154 58 22 109 41 113 41 11 0 228 110 294 149 29 17 55 31 58 31 3 0
10 5 17 10 7 6 46 32 87 57 41 26 77 51 78 55 2 4 8 8 12 8 19 0 199 132 208
153 2 4 8 7 13 7 6 0 20 10 33 23 32 30 65 57 72 57 2 0 15 9 27 21 12 12 60
48 106 81 89 64 101 73 132 100 10 10 23 18 29 18 6 0 10 5 10 10 0 6 6 10 14
10 8 0 16 4 18 8 2 5 35 31 73 60 88 65 80 59 145 112 30 25 63 52 73 60 11 8
24 20 31 25 6 6 40 35 76 65 36 30 72 61 81 70 9 8 34 29 54 45 21 17 73 64
116 105 76 74 231 218 338 316 88 80 381 380 486 498 33 37 83 91 110 120 28
29 69 76 92 103 24 28 55 64 70 80 16 17 60 65 98 108 39 43 79 87 90 99 11
12 76 84 144 161 69 77 134 149 145 161 12 12 40 43 63 70 23 27 54 63 69 79
14 17 45 55 68 85 22 30 50 64 61 76 11 12 34 39 52 60 51 62 81 97 108 125
18 18 21 26 10 26 -8 0 -15 -4 -15 -9z"/>
<path d="M3255 3880 c-23 -9 -46 -17 -58 -19 -4 0 -24 -8 -45 -17 -20 -8 -44
-17 -52 -20 -8 -2 -53 -17 -100 -35 -47 -17 -89 -32 -95 -33 -23 -5 -330 -108
-339 -113 -5 -4 -19 -8 -30 -9 -12 -1 -65 -15 -118 -32 -54 -16 -98 -28 -98
-25 0 3 -6 1 -12 -5 -12 -9 -36 -16 -102 -28 -16 -3 -36 -9 -45 -13 -15 -9 0
-14 74 -27 17 -2 55 -9 85 -15 30 -6 66 -12 80 -14 14 -2 48 -9 75 -15 28 -5
64 -12 80 -15 17 -2 44 -7 60 -10 27 -5 76 -14 295 -55 30 -6 66 -12 80 -15
14 -2 25 -4 25 -5 0 -1 11 -4 25 -5 38 -6 67 -11 160 -28 109 -21 130 -25 160
-32 14 -3 39 -7 55 -10 17 -2 41 -7 55 -9 39 -8 192 -36 225 -42 17 -2 41 -7
55 -10 14 -3 39 -8 55 -10 17 -3 41 -7 55 -11 14 -3 34 -8 45 -10 11 -2 32 -5
48 -8 15 -3 42 -7 60 -10 17 -3 43 -8 57 -12 14 -3 43 -7 65 -9 21 -3 43 -8
48 -13 5 -5 33 4 63 19 30 16 54 27 54 25 0 -2 29 12 64 30 35 18 67 31 70 28
3 -4 6 -1 6 5 0 7 5 12 10 12 6 0 42 16 80 34 39 19 70 32 70 28 0 -4 4 -2 8
4 5 8 183 99 212 109 18 6 46 19 50 24 3 3 45 26 93 50 48 24 86 45 84 47 -5
5 -33 11 -87 20 -19 3 -66 12 -105 19 -38 8 -88 17 -110 20 -22 4 -57 11 -79
16 -21 6 -40 8 -43 5 -3 -3 -14 -1 -25 5 -10 6 -36 12 -56 14 -20 2 -50 6 -67
10 -47 9 -77 15 -115 20 -19 3 -55 10 -80 15 -25 5 -56 12 -70 14 -14 3 -36 7
-50 10 -57 11 -157 28 -185 32 -16 2 -52 8 -80 14 -27 6 -65 13 -84 16 -18 3
-43 8 -55 10 -29 7 -58 12 -156 30 -47 9 -92 18 -101 19 -9 2 -32 6 -50 9 -29
5 -74 13 -154 29 -11 3 -29 1 -40 -3z"/>
<path d="M1647 3033 c-3 -2 2 -26 10 -51 15 -47 109 -314 120 -342 4 -8 7 -17
7 -20 9 -38 31 -107 38 -116 5 -7 56 -10 150 -8 79 1 143 3 143 4 0 0 25 3 55
6 107 9 125 11 165 17 22 4 67 9 100 12 33 3 67 7 75 10 8 2 32 6 54 10 21 3
41 7 45 9 3 3 26 7 51 11 25 4 47 8 51 10 3 2 19 7 35 9 16 3 70 17 119 31 50
14 97 27 105 30 8 2 27 8 43 14 15 6 38 13 50 15 58 11 179 64 152 67 -25 2
-126 19 -145 24 -8 3 -33 7 -55 10 -22 4 -49 8 -60 10 -11 2 -31 6 -45 9 -14
3 -64 12 -112 20 -126 23 -249 45 -278 51 -14 3 -38 8 -55 10 -16 3 -68 13
-115 21 -47 9 -96 18 -110 20 -14 3 -47 9 -75 14 -27 6 -66 12 -85 14 -19 3
-35 5 -35 6 0 2 -36 9 -75 14 -19 3 -35 5 -35 6 0 1 -13 4 -30 6 -16 2 -50 9
-75 14 -25 5 -61 12 -80 15 -19 3 -49 10 -67 14 -17 5 -34 7 -36 4z"/>
</g>
</svg>
