<?xml version="1.0" encoding="utf-8"?>
<!-- Generator: Adobe Illustrator 18.0.0, SVG Export Plug-In . SVG Version: 6.00 Build 0)  -->
<!DOCTYPE svg PUBLIC "-//W3C//DTD SVG 1.1//EN" "http://www.w3.org/Graphics/SVG/1.1/DTD/svg11.dtd">
<svg version="1.1" id="Layer_1" xmlns="http://www.w3.org/2000/svg" xmlns:xlink="http://www.w3.org/1999/xlink" x="0px" y="0px"
	 viewBox="0 0 200 200" enable-background="new 0 0 200 200" xml:space="preserve">
<path fill="#FFFFFF" d="M142.3,136l14.1,30.3l-15.8-0.4l-9.8,12.4l-12.7-27.2l0,0c-1.5,2.3-4.7,2.9-7,1.4l-5.3-3.6
	c-2.3-1.5-6.1-1.5-8.3,0l-5.3,3.6c-2.3,1.5-5.4,0.9-7-1.4l0,0l-12.7,27.2l-9.8-12.4l-15.8,0.4L61.1,136l-0.5-2.3
	c-0.5-2.7-3.2-5.4-5.9-5.9l-6.3-1.2c-2.7-0.5-4.5-3.2-3.9-5.9l1.3-6.3c0.5-2.7-0.9-6.2-3.2-7.7l-5.3-3.5c-2.3-1.5-2.9-4.7-1.4-7
	l3.6-5.3c1.5-2.3,1.5-6.1,0-8.3l-3.6-5.3c-1.5-2.3-0.9-5.4,1.4-7l5.3-3.5c2.3-1.5,3.7-5,3.2-7.7l-1.3-6.3c-0.5-2.7,1.3-5.4,3.9-5.9
	l6.3-1.2c2.7-0.5,5.4-3.2,5.9-5.9l1.2-6.3c0.5-2.7,3.2-4.5,5.9-3.9l6.3,1.3c2.7,0.5,6.2-0.9,7.7-3.2l3.5-5.3c1.5-2.3,4.7-2.9,7-1.4
	l5.3,3.6c2.3,1.5,6.1,1.5,8.3,0l5.3-3.6c2.3-1.5,5.4-0.9,7,1.4l3.5,5.3c1.5,2.3,5,3.7,7.7,3.2l6.3-1.3c2.7-0.5,5.4,1.3,5.9,3.9
	l1.2,6.3c0.5,2.7,3.2,5.4,5.9,5.9l6.3,1.2c2.7,0.5,4.5,3.2,3.9,5.9l-1.3,6.3c-0.5,2.7,0.9,6.2,3.2,7.7l5.3,3.5
	c2.3,1.5,2.9,4.7,1.4,7l-3.6,5.3c-1.5,2.3-1.5,6.1,0,8.3l3.6,5.3c1.5,2.3,0.9,5.4-1.4,7l-5.3,3.5c-2.3,1.5-3.7,5-3.2,7.7l1.3,6.3
	c0.5,2.7-1.3,5.4-3.9,5.9l-6.3,1.2c-2.7,0.5-5.4,3.2-5.9,5.9L142.3,136z M101.7,131.7c24.9,0,45-20.1,45-45s-20.1-45-45-45
	c-24.9,0-45,20.1-45,45S76.8,131.7,101.7,131.7z M101.7,126.7c-22.1,0-40-17.9-40-40s17.9-40,40-40c22.1,0,40,17.9,40,40
	S123.8,126.7,101.7,126.7z M83.2,87.2c-1,1-0.9,2.6,0,3.5l9.7,9.7c2,2,5.1,2,7.1,0l19.7-19.7c1-1,1-2.6,0-3.5l-1.5-1.5
	c-1-1-2.5-1-3.5,0L98.2,92.2c-1,1-2.6,1-3.5,0l-6.5-6.5c-1-1-2.5-1-3.5,0L83.2,87.2z"/>
</svg>
