<svg xmlns="http://www.w3.org/2000/svg" xmlns:xlink="http://www.w3.org/1999/xlink" 
	 viewBox="0 0 64 64" style="enable-background:new 0 0 64 64;" xml:space="preserve">
<g>
	<path d="M37.8,14.4c-1.5,0-2.8,1-3.1,2.5l-0.1,0.5L33.2,17L31,9.2L29,9.7l1.9,6.7l-6.7-1.9l-0.5,1.9l7.9,2.2l0.4,1.3l-0.5,0.1
		C30,20.4,29,21.7,29,23.2c0,1.8,1.5,3.2,3.2,3.2c1.5,0,2.8-1.2,2.8-2.8c0-0.3,0-0.5-0.1-0.8l-1-3.6l3.6,1c0.2,0.1,0.5,0.1,0.8,0.1
		c1.5,0,2.8-1.2,2.8-2.8C41,15.9,39.5,14.4,37.8,14.4z M32.2,24.4c-0.7,0-1.2-0.6-1.2-1.2c0-0.6,0.4-1.1,0.9-1.2l0.6-0.1l0.5,1.6
		c0,0.1,0,0.1,0,0.2C33,24.1,32.7,24.4,32.2,24.4z M38,18.4l-1.6-0.5l0.1-0.6c0.1-0.6,0.6-0.9,1.2-0.9c0.7,0,1.2,0.6,1.2,1.2
		C39,18.2,38.5,18.5,38,18.4z"/>
	<path d="M61,22.4h-0.7l2.8-9.4l-0.5-0.4C52.8,4.8,40.4,0.4,27.8,0.4H17v8.8c-9.2,1.6-15.2,5.2-15.5,5.3L0.8,15l2.8,7.4H3
		c-1.1,0-2,0.9-2,2v2c0,1.1,0.9,2,2,2V50c-1.2,0.7-2,2-2,3.4c0,0.6,0.2,1.2,0.4,1.8C1.2,55.6,1,56,1,56.4v6h60v-8c1.1,0,2-0.9,2-2
		v-14c0-0.7-0.3-1.2-0.8-1.6c0.5-0.7,0.8-1.5,0.8-2.4c0-1.5-0.8-2.7-2-3.4v-2.6c1.1,0,2-0.9,2-2v-2C63,23.3,62.1,22.4,61,22.4z
		 M19,2.4h8.8c11.9,0,23.6,4,33.1,11.4l-2.6,8.6H55v-6.5l-0.4-0.3c-0.2-0.1-4.1-2.8-11.5-4.9C40.8,7,36.7,4.4,32,4.4
		c-3.7,0-7.1,1.6-9.5,4.1c-1.2,0.1-2.4,0.2-3.5,0.4V2.4z M32,28.4c-6.1,0-11-4.9-11-11s4.9-11,11-11s11,4.9,11,11S38.1,28.4,32,28.4
		z M9.7,22.4l-1.6-4.7c0.7-0.3,1.4-0.5,2.2-0.8l1.4,5.5H9.7z M13.8,22.4l-1.5-6.1c0.6-0.2,1.3-0.4,2-0.5l1.5,6.6H13.8z M17.8,22.4
		l-1.6-7c1-0.2,2-0.4,3-0.5c-0.2,0.8-0.3,1.7-0.3,2.5c0,1.8,0.4,3.5,1,5H17.8z M53,18.7c-1.6-0.9-4.3-2.2-8.2-3.4
		c-0.1-0.7-0.3-1.4-0.5-2.1c4.7,1.5,7.7,3.2,8.7,3.8C53,17,53,18.7,53,18.7z M45,17.4C45,17.4,45,17.4,45,17.4L45,17.4l0,5.1h-1
		C44.6,20.9,45,19.2,45,17.4C45,17.4,45,17.4,45,17.4z M47,18.1c0.7,0.3,1.4,0.6,2,0.8v3.5h-2V18.1z M51,19.9c0.9,0.5,1.6,0.9,2,1.1
		v1.5h-2V19.9z M20.9,10.7c-0.4,0.7-0.8,1.4-1,2.1C12.5,13.7,6.7,16,3.8,17.4l-0.6-1.5C5.4,14.8,12,11.7,20.9,10.7z M4.5,19.3
		C5,19,5.6,18.8,6.3,18.5l1.3,4H5.7L4.5,19.3z M3,24.4h18.1c0.5,0.7,1,1.4,1.6,2H3V24.4z M4.3,51.6l0.7-0.3l0-0.8l0-0.1
		c0-1.1,0.9-2,2-2c0.8,0,1.6,0.5,1.9,1.3l0.3,0.7l0.8,0l0.1,0c1.1,0,2,0.9,2,2s-0.9,2-2,2H3.3c-0.2-0.3-0.3-0.6-0.3-1
		C3,52.6,3.5,51.8,4.3,51.6z M25.7,51.6c0.8,0.3,1.3,1,1.3,1.9c0,0.4-0.1,0.7-0.3,1H20c-1.1,0-2-0.9-2-2s0.9-2,2-2l0.9,0.1l0.3-0.7
		c0.3-0.8,1-1.3,1.9-1.3c1.1,0,2,0.9,2,2l-0.1,0.9L25.7,51.6z M19,48.6c-1.7,0.5-3,2-3,3.9c0,0.7,0.2,1.4,0.6,2h-3.1
		c0.3-0.6,0.6-1.3,0.6-2c0-2-1.5-3.7-3.5-4c-0.2-0.4-0.5-0.7-0.8-1c0.6-0.7,1.4-1.1,2.3-1.1c0.8,0,1.5,0.3,2,0.8l0.8,0.7l0.7-0.8
		c0.4-0.5,0.9-0.7,1.5-0.7c1.1,0,2,0.9,2,2C19,48.5,19,48.5,19,48.6z M27,60.4H3v-4h24V60.4z M29,58.4h24v2H29V58.4z M49,56.4h-2
		v-20H37v8.2c-0.3-0.1-0.6-0.2-1-0.2s-0.7,0.1-1,0.2V34.4h14V56.4z M45,44.4h-2v-2h2V44.4z M45,46.4v2h-2v-2H45z M41,48.4h-2v-2h2
		V48.4z M39,50.4h2v2h-2V50.4z M43,50.4h2v2h-2V50.4z M45,40.4h-2v-2h2V40.4z M41,40.4h-2v-2h2V40.4z M39,42.4h2v2h-2V42.4z
		 M39,54.4h2v2h-2V54.4z M43,54.4h2v2h-2V54.4z M37,47.4c0,0.6-0.4,1-1,1s-1-0.4-1-1s0.4-1,1-1S37,46.9,37,47.4z M35,50.3
		c0.3,0.1,0.6,0.2,1,0.2s0.7-0.1,1-0.2v6.2h-2V50.3z M57,52.4v-2h4v2H57z M57,34.4c0-1.1,0.9-2,2-2s2,0.9,2,2s-0.9,2-2,2
		S57,35.5,57,34.4z M61,38.4v2h-4v-2H61z M61,47.6l-4-2.7v-1.6l4,2.7V47.6z M59.3,42.4H61v1.1L59.3,42.4z M58.7,48.4H57v-1.1
		L58.7,48.4z M59,30.4c-2.2,0-4,1.8-4,4c0,0.9,0.3,1.7,0.8,2.4c-0.5,0.4-0.8,0.9-0.8,1.6v14c0,1.1,0.9,2,2,2h2v6h-4v-2
		c0-1.1-0.9-2-2-2h-2v-24H33v24h-4c0-0.5-0.2-0.9-0.4-1.2c0.3-0.5,0.4-1.1,0.4-1.8c0-1.4-0.8-2.8-2-3.5c-0.2-2-1.9-3.5-4-3.5
		c-0.8,0-1.6,0.3-2.2,0.7c-0.5-1.6-2-2.7-3.8-2.7c-0.9,0-1.7,0.3-2.3,0.8c-0.8-0.5-1.7-0.8-2.7-0.8c-1.6,0-3.1,0.8-4.1,2.1
		c-0.3-0.1-0.6-0.1-0.9-0.1c-0.7,0-1.4,0.2-2,0.5V28.4h20.1c2,1.3,4.4,2,6.9,2s4.9-0.7,6.9-2H59V30.4z M61,26.4H41.4
		c0.6-0.6,1.1-1.3,1.6-2H61V26.4z"/>
	<path d="M11,42.4h18v-10H11V42.4z M27,40.4h-6v-6h6V40.4z M13,34.4h6v6h-6V34.4z"/>
</g>
</svg>
