<?xml version="1.0" encoding="utf-8"?>
<!-- Generator: Adobe Illustrator 24.2.1, SVG Export Plug-In . SVG Version: 6.00 Build 0)  -->
<svg version="1.1" id="Layer_1" xmlns="http://www.w3.org/2000/svg" xmlns:xlink="http://www.w3.org/1999/xlink" x="0px" y="0px"
	 viewBox="0 0 96 96" style="enable-background:new 0 0 96 96;" xml:space="preserve">
<path d="M89.4,28.8v-4.5c0-1.4-0.8-2.6-1.9-3.3l-2-8.5c-0.2-1-0.9-1.9-1.8-2.4c-0.9-0.5-1.9-0.7-2.9-0.5l-41.5,9.9
	c-1,0.2-1.9,0.9-2.4,1.8c-0.5,0.9-0.7,1.9-0.5,3l1.3,5.2c-0.2,0-0.4,0-0.6,0.1c-1.4,0.1-2.7,0.3-3.1,0.3c-1.9,0-4.1,2.2-8.5,6.8
	c-2.6,2.7-5.5,5.8-8.3,8.1c-5.3,4.3-4.9,9.9-3.7,13l-3.3,3.1l-1-1.1l-5.8,5.1l19.9,22.5l5.8-5.1L27.1,80l2.4-2.7
	c2.5,0.1,10.9,0,15.1-3l-0.3-0.3c2,0.1,4.2,0.2,6,0.2c0.3,0,0.7,0,1,0c2.1,0,3.3-1,3.9-1.8c1.3-1.6,1.3-4,1.1-5.4
	c2.5-1.4,2.7-4,2.8-5.6c0-0.3,0-0.5,0.1-0.7c0-0.4,0-0.7-0.2-1c0.9-0.8,1.9-1.9,2.1-3.2c0-0.2,0-0.4,0.1-0.6h24.3
	c2.2,0,3.9-1.8,3.9-3.9v-8c1.9-0.6,3-2.6,2.5-4.6L89.4,28.8z M81.4,12.4c0.2-0.1,0.5,0,0.7,0.1s0.4,0.3,0.4,0.6l1.7,7.3h-36
	L81.4,12.4z M23.5,83L7.6,65l1.3-1.2l15.9,18L23.5,83z M29,74.3l-0.7,0l-3.1,3.5L12.2,63l5-4.7l-0.6-1c-0.1-0.2-3.1-5.8,2.4-10.3
	c3-2.5,6-5.6,8.6-8.4c2.3-2.4,5.4-5.7,6.3-5.9c0.5,0,1.5-0.1,3.4-0.3c3.2-0.3,12.5-1.2,15.1-0.5c-2.8,3.9-10.2,8.9-13.6,8.6
	c-0.8-0.1-2-0.1-2.8,0.7c-0.9,0.9-0.9,2.2-0.8,3.5c0.1,1.7,0.2,3.9-1.2,6.5l2.6,1.4c1.9-3.4,1.7-6.3,1.6-8.2c0-0.4,0-0.8,0-1.1
	c0.1,0,0.2,0,0.4,0c0.1,0,0.2,0,0.3,0V52c0,1.5,0.8,2.7,2,3.4c-0.2,0.4-0.2,0.8-0.2,1.1c0,0.9,0.3,1.7,0.6,2.3
	c-1.5,1.1-2.8,3.3-2.3,7c-1.6,1.3-2.5,3.3-2.6,4.8c-0.1,1.8,1,2.4,1.3,2.5c0.3,0.1,0.8,0.2,1.4,0.3C35.5,74.3,30.9,74.3,29,74.3z
	 M56.1,61.3c-0.1,1.7-0.3,2.8-1.7,3.3c-1.1-0.1-4.6-0.3-7.9-0.3c-2.1,0-3.6,0.1-4.7,0.2c-0.1-2.9,1.5-3.6,2-3.7
	C48.7,60.7,54.2,60.8,56.1,61.3z M52.9,70.5c-0.2,0.3-0.6,0.6-1.5,0.6c-0.3,0-0.6,0-1,0c-4.2,0-9.1-0.5-10.9-0.8
	c0.3-1,1.2-2.6,2.7-2.9c0.6-0.1,1.8-0.2,4.5-0.2c2.5,0,5.3,0.1,6.8,0.2C53.5,68.5,53.4,69.8,52.9,70.5z M55.9,58.2
	c-2-0.3-5.5-0.6-11.6-0.4c-0.3-0.3-0.6-0.8-0.6-1.2c0-0.3,0.3-0.5,0.5-0.7h14C58,56.6,56.8,57.6,55.9,58.2z M86.4,52
	c0,0.5-0.4,0.9-0.9,0.9H42.8c-0.5,0-0.9-0.4-0.9-0.9v-9c4.9-1.5,10.9-6.3,13.3-9.8c0.9-1.3,0.4-2.3,0.2-2.7
	c-1.1-1.8-4.5-2.2-13.5-1.5v-4.7c0-0.5,0.4-0.9,0.9-0.9h42.6c0.5,0,0.9,0.4,0.9,0.9V52z"/>
<polygon points="76.1,30.9 71.2,26.9 66.3,30.9 62.4,27.7 60.5,30 66.3,34.8 71.2,30.8 76.1,34.8 81.9,30 80,27.7 "/>
<polygon points="76.1,38.2 71.2,34.2 66.3,38.2 62.4,34.9 60.5,37.3 66.3,42 71.2,38 76.1,42 81.9,37.3 80,34.9 "/>
<polygon points="76.1,45.4 71.2,41.4 66.3,45.4 62.4,42.2 60.5,44.5 66.3,49.3 71.2,45.3 76.1,49.3 81.9,44.5 80,42.2 "/>
</svg>
