<?xml version="1.0" encoding="utf-8"?>
<!-- Generator: Adobe Illustrator 18.0.0, SVG Export Plug-In . SVG Version: 6.00 Build 0)  -->
<!DOCTYPE svg PUBLIC "-//W3C//DTD SVG 1.1//EN" "http://www.w3.org/Graphics/SVG/1.1/DTD/svg11.dtd">
<svg version="1.1"
	 id="Layer_1" xmlns:dc="http://purl.org/dc/elements/1.1/" xmlns:rdf="http://www.w3.org/1999/02/22-rdf-syntax-ns#" xmlns:sodipodi="http://sodipodi.sourceforge.net/DTD/sodipodi-0.dtd" xmlns:inkscape="http://www.inkscape.org/namespaces/inkscape" xmlns:svg="http://www.w3.org/2000/svg" xmlns:cc="http://creativecommons.org/ns#"
	 xmlns="http://www.w3.org/2000/svg" xmlns:xlink="http://www.w3.org/1999/xlink" x="0px" y="0px" viewBox="0 0 200 200"
	 enable-background="new 0 0 200 200" xml:space="preserve">
<path fill="#FFFFFF" d="M10.9,64.1l146-33.1l-2-8.9c-0.6-2.5-3.1-4.1-5.6-3.6L12.4,49.3c-2.5,0.6-4.1,3.1-3.6,5.6
	C9.5,58,10.2,61.1,10.9,64.1L10.9,64.1z M9.7,41.2L148.2,10c6.6-1.5,13.2,2.7,14.7,9.3l14.5,64.2h-8.7l-6.6-29.1l-146,33.1l9,39.9
	l0.8,3.5c0.3,1.4,1.7,2.3,3.2,2l1.1-0.2v8.5l-0.2,0c-5.5,1.2-10.9-2.2-12.2-7.7L0.3,55.9c-0.7-3.3-0.2-6.4,1.6-9.3
	C3.7,43.8,6.3,42,9.7,41.2L9.7,41.2L9.7,41.2z M45.6,85.8c-6.8,0-12.3,5.5-12.3,12.3V178c0,6.8,5.5,12.3,12.3,12.3h142.1
	c6.8,0,12.3-5.5,12.3-12.3V98.1c0-6.8-5.5-12.3-12.3-12.3L45.6,85.8L45.6,85.8L45.6,85.8z M184.7,121.6c0-5.4,0-10.8,0-16.3
	c0-1.1-0.8-1.9-1.9-1.9c-12.1,0-24.2,0-36.4,0c-1,0-1.9,0.9-1.9,1.9c0,5.4,0,10.8,0,16.3c0,1,0.9,1.9,1.9,1.9c12.1,0,24.2,0,36.4,0
	C183.8,123.5,184.7,122.6,184.7,121.6L184.7,121.6z M157.9,170.9c-1.1,0-1.9-0.9-1.9-1.9v-3.8c0-1,0.9-1.9,1.9-1.9h24.9
	c1,0,1.9,0.9,1.9,1.9v3.8c0,1-0.9,1.9-1.9,1.9H157.9C157.9,170.9,157.9,170.9,157.9,170.9z M123.2,170.9c-1,0-1.9-0.9-1.9-1.9v-3.8
	c0-1.1,0.9-1.9,1.9-1.9h24.9c1,0,1.9,0.9,1.9,1.9v3.8c0,1-0.9,1.9-1.9,1.9H123.2L123.2,170.9z M88.5,170.9c-1,0-1.9-0.9-1.9-1.9
	v-3.8c0-1.1,0.9-1.9,1.9-1.9h24.9c1,0,1.9,0.9,1.9,1.9v3.8c0,1-0.9,1.9-1.9,1.9H88.5L88.5,170.9z M53.8,170.9c-1,0-1.9-0.9-1.9-1.9
	v-3.8c0-1.1,0.9-1.9,1.9-1.9h24.9c1,0,1.9,0.9,1.9,1.9v3.8c0,1-0.9,1.9-1.9,1.9H53.8z"/>
</svg>
