<?xml version="1.0" encoding="utf-8"?>
<!-- Generator: Adobe Illustrator 18.0.0, SVG Export Plug-In . SVG Version: 6.00 Build 0)  -->
<!DOCTYPE svg PUBLIC "-//W3C//DTD SVG 1.1//EN" "http://www.w3.org/Graphics/SVG/1.1/DTD/svg11.dtd">
<svg version="1.1" id="Layer_1" xmlns="http://www.w3.org/2000/svg" xmlns:xlink="http://www.w3.org/1999/xlink" x="0px" y="0px"
	 viewBox="0 0 200 200" enable-background="new 0 0 200 200" xml:space="preserve">
<path fill="#FFFFFF" d="M155,48.4V15c0-2.8-2.2-5-5-5h-20c-2.8,0-5,2.2-5,5v33.4c-12.1,5.7-20,18-20,31.6v105c0,2.8,2.2,5,5,5h60
	c2.8,0,5-2.2,5-5V80C175,66.4,167.1,54.2,155,48.4z M165,180h-50v-37.5h7.5V170c0,1.4,1.1,2.5,2.5,2.5s2.5-1.1,2.5-2.5v-27.5H165
	V180z M165,137.5h-50v-35h50V137.5z M165,97.5h-37.5V82.6V80c0-1.8,0.4-3.5,1.1-5.1c0.6-1.4,1.5-2.6,2.6-3.7c1-1,1-2.6,0-3.5
	c-1-1-2.6-1-3.5,0c-3.3,3.3-5.1,7.7-5.1,12.4v17.5H115V80c0-10.6,6.7-20,16.7-23.5c2-0.7,3.3-2.6,3.3-4.7V20h10v31.7
	c0,2.1,1.3,4,3.3,4.7c10,3.5,16.7,13,16.7,23.5V97.5z"/>
<path fill="#FFFFFF" d="M80,115H30c-1.5,0-2.8,0.6-3.8,1.7s-1.4,2.6-1.1,4l10,65c0.4,2.4,2.5,4.2,4.9,4.2h30c2.5,0,4.6-1.8,4.9-4.2
	l10-65c0.2-1.4-0.2-2.9-1.1-4S81.5,115,80,115z M65.7,180H44.3l-8.5-55h38.3L65.7,180z"/>
<path fill="#FFFFFF" d="M52.9,172.5c0.1,0,0.3,0,0.4,0c1.4-0.2,2.3-1.5,2.1-2.9l-5.4-35c-0.2-1.4-1.5-2.3-2.8-2.1
	c-1.4,0.2-2.3,1.5-2.1,2.9l5.4,35C50.6,171.6,51.7,172.5,52.9,172.5z"/>
</svg>
