<?xml version="1.0" encoding="utf-8"?>
<!-- Generator: Adobe Illustrator 24.2.1, SVG Export Plug-In . SVG Version: 6.00 Build 0)  -->
<svg version="1.1" id="Layer_1" xmlns="http://www.w3.org/2000/svg" xmlns:xlink="http://www.w3.org/1999/xlink" x="0px" y="0px"
	 viewBox="0 0 24 24" style="enable-background:new 0 0 24 24;" xml:space="preserve">
<path d="M21.5,10.5c0.1,0,0.2,0,0.3,0c0,0,0,0,0,0c0.4,0,0.8-0.4,0.8-0.8c0-0.2-0.1-0.4-0.2-0.6C22.1,9.1,21.9,9,21.7,9c0,0,0,0,0,0
	c-0.2,0-0.4,0.1-0.6,0.2c-0.1,0.1-0.2,0.3-0.2,0.6c0,0.1,0,0.2,0,0.3l-1.6,1.6h-6.1c-0.1-0.6-0.2-1.3-0.5-1.8C12.3,8.7,12,7.4,12,6
	V5.6h-0.5l2-2c0.2-0.2,0.4-0.6,0.4-0.9c0-0.7-0.6-1.3-1.3-1.3c-0.3,0-0.7,0.1-0.9,0.4l-0.2,0.2c-0.2,0.2-0.3,0.5-0.3,0.8
	s0.1,0.6,0.3,0.8l0.1,0.1L12,3.2l-0.1-0.1c-0.1-0.1-0.1-0.2-0.1-0.3c0-0.1,0-0.2,0.1-0.3l0.2-0.2c0.1-0.1,0.3-0.2,0.4-0.2
	c0.3,0,0.6,0.3,0.6,0.6c0,0.2-0.1,0.3-0.2,0.4l-2.5,2.5H8.6H7.9H7.6c0-1.7-1.4-3.1-3.1-3.1S1.5,3.9,1.5,5.6c0,1.5,1.2,2.8,2.7,3
	c0,0.1,0,0.2-0.1,0.3L3.8,9.5C3.8,9.7,3.7,9.8,3.6,10c-0.4,0.9-0.5,1.8-0.4,2.8c0.2,1.9,1.6,3.5,3.4,4.1h0v1.4
	c0,0.2,0.1,0.3,0.3,0.3h0.4v2h-1c-0.9,0-1.7,0.8-1.7,1.7v0c0,0.2,0.1,0.3,0.3,0.3h6.8c0.2,0,0.3-0.1,0.3-0.3v0
	c0-0.9-0.8-1.7-1.7-1.7h-1v-2h0.4c0.2,0,0.3-0.1,0.3-0.3v-1.4h0c0.6-0.2,1.2-0.6,1.7-1c0.8-0.7,1.3-1.6,1.5-2.5l3.7,3.7h0.1v4.7
	h-2.3c-0.2,0-0.4,0.2-0.4,0.4c0,0.2,0.2,0.4,0.4,0.4H20c0.2,0,0.4-0.2,0.4-0.4c0-0.2-0.2-0.4-0.4-0.4h-2.3v-4.7h0.1l4.6-4.6v-0.8
	h-2.2L21.5,10.5z M21.6,9.6c0,0,0.1-0.1,0.2-0.1c0.1,0,0.1,0,0.2,0.1c0,0,0.1,0.1,0.1,0.2c0,0.1-0.1,0.2-0.2,0.2c0,0,0,0,0,0
	c-0.1,0-0.2-0.1-0.2-0.2C21.5,9.7,21.5,9.6,21.6,9.6z M10.8,6.3h0.5c0,1.4,0.3,2.7,0.9,3.8c0.2,0.3,0.3,0.7,0.3,1
	c-0.8-0.3-2-0.4-2.6-0.4c-0.7,0-1.6,0.3-2.7,1c-0.1-0.1-0.2-0.1-0.3-0.2c0.4-0.2,0.6-0.7,0.6-1.1C8.3,10.4,9,9.8,9,9
	c0-0.3-0.1-0.5-0.2-0.7L10.8,6.3z M6.9,9c0-0.4,0.3-0.7,0.7-0.7C8,8.3,8.3,8.6,8.3,9S8,9.7,7.6,9.7C7.2,9.7,6.9,9.4,6.9,9z M6.7,4.7
	C6.8,5,6.9,5.3,6.9,5.6H6.5H5.2h0L6.7,4.7z M4.9,3.3C5.5,3.4,6,3.7,6.4,4.2L4.9,5V3.3z M4.2,3.3V5L2.7,4.2C3,3.7,3.6,3.4,4.2,3.3z
	 M2.2,5.6c0-0.3,0.1-0.6,0.2-0.9l1.5,0.9L2.3,6.5C2.2,6.2,2.2,5.9,2.2,5.6z M2.7,7.1L4.5,6l0,0.3c0,0.4-0.1,0.9-0.1,1.3L4.3,8
	C3.6,7.9,3.1,7.6,2.7,7.1z M4.2,10.3c0.6-1.4,0.9-2.7,1-4h0h4.6L8.3,7.9C8.1,7.7,7.8,7.7,7.6,7.7C6.8,7.7,6.2,8.3,6.2,9
	c-0.7,0-1.4,0.6-1.4,1.4c0,0.1,0,0.3,0.1,0.4c-0.1,0-0.3,0-0.4,0c-0.1,0-0.3,0-0.5,0C4.1,10.6,4.2,10.4,4.2,10.3z M6.9,10.4
	c0,0.4-0.3,0.7-0.7,0.7c-0.4,0-0.7-0.3-0.7-0.7c0-0.4,0.5-0.8,0.9-0.6c0.1,0.2,0.3,0.3,0.4,0.4C6.9,10.2,6.9,10.3,6.9,10.4z
	 M10.3,21.3c0.4,0,0.8,0.3,1,0.7h-6c0.1-0.4,0.5-0.7,1-0.7H10.3z M7.9,20.6v-2h0.7v2H7.9z M9.3,17.9h-2V17l0.4,0.1c0,0,0.1,0,0.1,0
	c0.2,0,0.4,0,0.6,0c0.2,0,0.5,0,0.7-0.1L9.3,17V17.9z M11.2,15.4c-0.9,0.8-2.2,1.2-3.4,1.1c-2-0.2-3.6-1.8-3.9-3.8
	c-0.1-0.4,0-0.8,0-1.2c0.2-0.1,0.5-0.1,0.6-0.1c0.8,0,1.7,0.5,2.6,1c1,0.5,1.9,1.1,2.9,1.1c0.8,0,1.9-0.1,2.6-0.4
	C12.4,13.9,11.9,14.7,11.2,15.4z M12.7,12.1c-0.1,0.2-1.1,0.7-2.7,0.7c-0.6,0-1.3-0.3-2-0.7c0.8-0.4,1.5-0.7,2-0.7
	C11.7,11.4,12.6,11.8,12.7,12.1L12.7,12.1z M21.7,12.3l-4.1,4.1h-0.4l-3.9-3.9c0-0.1,0-0.1,0-0.2h5.4l-0.5,0.5l-0.1,0.1
	c-0.2-0.2-0.5-0.2-0.8-0.2c0,0,0,0,0,0c-0.3,0-0.6,0.1-0.8,0.3c-0.4,0.4-0.4,1.1-0.1,1.6l-0.2,0.2c-0.1,0.1-0.1,0.3,0,0.4
	c0.1,0.1,0.1,0.1,0.2,0.1c0,0,0,0,0,0c0.1,0,0.2,0,0.2-0.1l0.2-0.2c0.2,0.2,0.5,0.2,0.8,0.2c0,0,0,0,0,0c0.3,0,0.6-0.1,0.8-0.3
	c0.4-0.4,0.4-1.1,0.1-1.6l1-1.1L21.7,12.3L21.7,12.3z M17.2,14.4c-0.3-0.3-0.3-0.7-0.1-0.9c0.1-0.1,0.2-0.1,0.3-0.1c0,0,0,0,0,0
	c0.2,0,0.4,0.1,0.6,0.3c0.2,0.2,0.3,0.4,0.3,0.6c0,0.1,0,0.2-0.1,0.3c-0.1,0.1-0.2,0.1-0.3,0.1c0,0,0,0,0,0
	C17.6,14.6,17.4,14.6,17.2,14.4L17.2,14.4L17.2,14.4z"/>
</svg>
