<?xml version="1.0" encoding="utf-8"?>
<!-- Generator: Adobe Illustrator 18.0.0, SVG Export Plug-In . SVG Version: 6.00 Build 0)  -->
<!DOCTYPE svg PUBLIC "-//W3C//DTD SVG 1.1//EN" "http://www.w3.org/Graphics/SVG/1.1/DTD/svg11.dtd">
<svg version="1.1" id="Layer_1" xmlns="http://www.w3.org/2000/svg" xmlns:xlink="http://www.w3.org/1999/xlink" x="0px" y="0px"
	 viewBox="0 0 200 200" enable-background="new 0 0 200 200" xml:space="preserve">
<g>
	<path fill="#FFFFFF" d="M150.5,62.1c3.6,0,6.9-1.4,9.4-3.9c5.2-5.2,5.2-13.7,0-18.9c-5-5-13.8-5-18.9,0c-2.5,2.5-3.9,5.9-3.9,9.4
		s1.4,6.9,3.9,9.4C143.6,60.8,147,62.1,150.5,62.1z M145.8,44.1c1.3-1.3,2.9-1.9,4.7-1.9c1.8,0,3.5,0.7,4.7,1.9
		c2.6,2.6,2.6,6.8,0,9.4c-2.5,2.5-6.9,2.5-9.4,0c-1.3-1.3-2-2.9-2-4.7C143.9,47,144.6,45.3,145.8,44.1z"/>
	<path fill="#FFFFFF" d="M112.5,100.1c3.6,0,6.9-1.4,9.4-3.9c2.5-2.5,3.9-5.9,3.9-9.4s-1.4-6.9-3.9-9.4c-5-5-13.8-5-18.9,0
		c-2.5,2.5-3.9,5.9-3.9,9.4s1.4,6.9,3.9,9.4C105.6,98.8,109,100.1,112.5,100.1z M107.8,82.1c1.3-1.3,2.9-1.9,4.7-1.9
		s3.5,0.7,4.7,1.9c1.3,1.3,2,2.9,2,4.7c0,1.8-0.7,3.5-2,4.7c-2.5,2.5-6.9,2.5-9.4,0c-1.3-1.3-2-2.9-2-4.7
		C105.9,85,106.6,83.3,107.8,82.1z"/>
	<path fill="#FFFFFF" d="M122.3,72.4c0.7,0.7,1.5,1,2.4,1s1.7-0.3,2.4-1l9.4-9.4c1.3-1.3,1.3-3.4,0-4.7l-2.4-2.4
		c-1.3-1.3-3.4-1.3-4.7,0c-1.3,1.3-1.3,3.4,0,4.7l-4.7,4.7l0,0c-1.3-1.3-3.4-1.3-4.7,0c-1.3,1.3-1.3,3.4,0,4.7L122.3,72.4z"/>
	<path fill="#FFFFFF" d="M196.6,149.5c-0.1-0.4-0.2-0.7-0.3-1c0-0.1-0.1-0.1-0.1-0.2c-0.1-0.2-0.3-0.4-0.4-0.6l-7.6-7.6h8.6
		c1,0,1.9-0.4,2.5-1.1c0.6-0.7,0.9-1.7,0.8-2.7l-3.3-23.3c0-0.1,0-0.1-0.1-0.2c-0.1-0.3-0.2-0.6-0.3-0.9c-0.1-0.1-0.2-0.3-0.3-0.4
		c-0.1-0.2-0.3-0.4-0.4-0.5c-0.1-0.1-0.3-0.2-0.4-0.3c-0.1-0.1-0.3-0.2-0.4-0.3l-30-13.3c-0.4-0.2-0.9-0.3-1.4-0.3h-25.2
		c-0.2-0.7-0.5-1.3-0.7-1.9l21-21l13.5,4.9c2.1,1.1,4.4,1.6,6.8,1.6c4,0,7.7-1.5,10.5-4.3C195,70.3,195,60.9,189,55l-10.4-9.1
		c-3.2-2.8-3.5-3.3-4.3-4.7c-0.6-1-1.4-2.4-3.2-4.9c-2.2-3.1-8.9-9.2-12.8-11.1c-8.5-4-19.3-1.8-26,5.2c-1.1,1.1-2.2,2.7-3.2,4.7
		c-3.3,6.3-7.5,12-12.5,16.9c-4.8,4.8-10.4,8.9-16.8,12.4c-2,1.1-4,2.6-5.9,4.4c-7.1,6.9-9.2,17.4-5.2,26c0.3,0.6,0.6,1.2,1.1,1.9
		H36.7c-0.5,0-0.9,0.1-1.4,0.3l-30,13.3c-0.2,0.1-0.3,0.2-0.4,0.3c-0.2,0.1-0.3,0.2-0.4,0.3c-0.2,0.2-0.3,0.3-0.4,0.5
		c-0.1,0.1-0.2,0.2-0.3,0.4c-0.1,0.3-0.2,0.6-0.3,0.9c0,0.1-0.1,0.1-0.1,0.2L0,136.3c-0.1,1,0.1,1.9,0.8,2.7
		c0.6,0.7,1.6,1.1,2.5,1.1H12l-7.6,7.6c-0.2,0.2-0.3,0.4-0.4,0.6c0,0.1-0.1,0.1-0.1,0.2c-0.2,0.3-0.3,0.7-0.3,1c0,0,0,0,0,0.1
		L0.1,173c-0.1,1,0.1,1.9,0.8,2.7c0.6,0.7,1.6,1.1,2.5,1.1h193.3c1,0,1.9-0.4,2.5-1.1c0.6-0.7,0.9-1.7,0.8-2.7l-3.3-23.3
		C196.6,149.6,196.6,149.5,196.6,149.5z M180,133.4H63.3v-16.7h47.5l7.8,9c2.8,2.8,6.5,4.3,10.5,4.3c4,0,7.7-1.5,10.5-4.3
		c0.6-0.6,1.1-1.3,1.6-1.9c0-0.1,0.1-0.1,0.1-0.2c0.4-0.6,0.8-1.3,1.2-2c0,0,0-0.1,0-0.1c0.3-0.7,0.6-1.5,0.8-2.3c0,0,0-0.1,0-0.1
		c0.2-0.8,0.4-1.5,0.4-2.3c0,0,0-0.1,0-0.1h46.6l2.4,16.7L180,133.4L180,133.4z M162.6,103.4l15,6.7H143c-0.2-0.5-0.4-1.1-0.7-1.6
		l-1.8-5.1H162.6z M98.5,73.6c1.5-1.4,3-2.5,4.5-3.4c7-3.8,13.1-8.3,18.4-13.5c5.4-5.4,10-11.7,13.6-18.5c0.9-1.8,1.7-2.7,2.1-3.2
		c3.2-3.3,7.6-5.2,12-5.2c2.2,0,4.4,0.5,6.4,1.4c2.8,1.3,8.6,6.7,10.3,9c1.6,2.1,2.2,3.3,2.7,4.2c1.1,2,1.8,3.1,5.7,6.4l10.3,9
		c3.2,3.2,3.2,8.3,0,11.5c-2.5,2.5-6.5,3.1-9.6,1.4l-18.2-6.6l-25.4,25.4l-0.4,0.4c-0.8,1.1-1,1.4,1.7,9c0,0,0,0,0,0.1l0.6,1.6
		c0.8,2.2,1.7,4.8,2.9,8.1l0.2,0.5c0,0.1,0.1,0.1,0.1,0.2c0.4,0.7,0.6,1.5,0.8,2.3c0.1,0.6,0.1,1.3,0.1,1.9c0,0,0,0.1,0,0.1
		c-0.1,1.2-0.5,2.4-1.1,3.4c-0.1,0.1-0.1,0.2-0.2,0.3c-0.3,0.5-0.7,1-1.1,1.4c-3.1,3.1-8.6,2.9-11.4,0.2l-8.7-10l-0.4-0.5
		c-3.4-3.9-4.4-4.6-6.4-5.7c-0.9-0.5-2.1-1.2-4.2-2.7c-0.2-0.2-0.6-0.4-0.9-0.7c-0.3-0.2-0.5-0.5-0.8-0.8c-0.1-0.1-0.2-0.1-0.2-0.2
		c-0.3-0.3-0.7-0.7-1.1-1.1c-0.1-0.1-0.1-0.1-0.2-0.2c-0.4-0.4-0.8-0.9-1.3-1.4c-1.9-2.1-3.8-4.4-4.5-5.9
		C91.9,86,93.4,78.6,98.5,73.6z M96.1,104.3c0.2,0.2,0.4,0.4,0.6,0.6c0.2,0.2,0.4,0.4,0.7,0.6c0.3,0.3,0.6,0.5,0.8,0.8
		c0.1,0.1,0.3,0.3,0.4,0.4c0.4,0.4,0.8,0.7,1.2,0.9c0.7,0.5,1.3,0.9,1.9,1.3c0.2,0.1,0.4,0.2,0.5,0.3c0.4,0.2,0.7,0.5,1,0.6
		c0,0,0.1,0.1,0.2,0.1H68l6.7-6.7h20.5C95.5,103.8,95.8,104,96.1,104.3z M37.4,103.4h27.9l-6.7,6.7H22.4L37.4,103.4z M9.6,116.7
		h47.1v16.7H20H7.2L9.6,116.7z M178.6,140.1l6.7,6.7H14.7l6.7-6.7H178.6z M9.6,153.4h47.1v16.7H7.2L9.6,153.4z M63.3,170.1v-16.7
		h127.1l2.4,16.7H63.3z"/>
	<path fill="#FFFFFF" d="M153.3,120.1c-1.8,0-3.3,1.5-3.3,3.3v3.3c0,1.8,1.5,3.3,3.3,3.3s3.3-1.5,3.3-3.3v-3.3
		C156.7,121.5,155.2,120.1,153.3,120.1z"/>
	<path fill="#FFFFFF" d="M163.3,120.1c-1.8,0-3.3,1.5-3.3,3.3v3.3c0,1.8,1.5,3.3,3.3,3.3s3.3-1.5,3.3-3.3v-3.3
		C166.7,121.5,165.2,120.1,163.3,120.1z"/>
	<path fill="#FFFFFF" d="M173.3,120.1c-1.8,0-3.3,1.5-3.3,3.3v3.3c0,1.8,1.5,3.3,3.3,3.3s3.3-1.5,3.3-3.3v-3.3
		C176.7,121.5,175.2,120.1,173.3,120.1z"/>
</g>
</svg>
