<?xml version="1.0" encoding="utf-8"?>
<!-- Generator: Adobe Illustrator 24.2.1, SVG Export Plug-In . SVG Version: 6.00 Build 0)  -->
<svg version="1.1" id="Layer_1" xmlns="http://www.w3.org/2000/svg" xmlns:xlink="http://www.w3.org/1999/xlink" x="0px" y="0px"
	 viewBox="0 0 64 64" style="enable-background:new 0 0 64 64;" xml:space="preserve">
<g>
	<path d="M61.3,48.5c0.2-1.1,0.1-3.8-0.4-5.1c-1-2.7-3.6-4.4-6.6-4.4l0,0c-0.5,0-1,0.1-1.7,0.3c-1.1,0.3-2.2,0.6-3.4,0.7V9.8
		c0-0.5-0.3-0.9-0.8-1l-30-6c0,0-0.1,0-0.1,0c0,0-0.1,0-0.2,0l-12,1c-0.5,0-0.9,0.5-0.9,1v50.8l-2.6,5.2h17h2.2h13.7h16.3l-2.6-5.2
		v-1.8h1.3l1.8,3.9c0.6,1.8,2.3,3.1,4.2,3.1c2.5,0,4.5-2,4.4-4.5l-0.3-4.2c-0.1-1.3,0-1.4,0.1-1.9C61,49.8,61.1,49.4,61.3,48.5z
		 M40.2,39.3C39.5,39.1,38.8,39,38,39h-0.1c-2.9,0-5.6,1.8-6.5,4.4c-0.5,1.2-0.5,4-0.4,5.1c0.1,0.9,0.3,1.4,0.4,1.7
		c0.1,0.5,0.2,0.6,0.1,1.9l-0.2,2.7h-12V23.9l28,3.7v12.6C44.9,40.3,42.6,40,40.2,39.3z M7.3,24.7l4-0.3v30.4h-4V24.7z M13.3,24.2
		l4-0.3v30.9h-0.6h-3.4V24.2z M47.3,25.6l-28-3.7V5l28,5.6V25.6z M17.3,21.8l-4,0.3v-17l4-0.3V21.8z M11.3,5.3v17l-4,0.3v-17
		L11.3,5.3z M5.9,58.8l1-2h10.8l1,2H5.9z M20.9,58.8l-1-2h11.3c0,0.1,0,0.3,0.1,0.4c0,0,0,0.1,0,0.1c0,0.3,0.1,0.5,0.2,0.7
		c0,0,0,0.1,0.1,0.2c0.1,0.2,0.2,0.4,0.3,0.6L20.9,58.8L20.9,58.8z M39.3,58.8c0.1-0.1,0.1-0.2,0.2-0.3c0-0.1,0.1-0.1,0.1-0.2
		c0.1-0.2,0.2-0.4,0.3-0.6l0.4-0.9h7.4l1,2H39.3z M47.3,54.8h-6c0.1-0.2,0.2-0.4,0.3-0.6v0c0.1-0.2,0.1-0.3,0.2-0.4h5.5V54.8z
		 M59.3,48.2c-0.1,0.8-0.2,1.2-0.3,1.5c-0.2,0.7-0.3,1-0.2,2.6l0.3,4.1c0,1.3-1.1,2.5-2.4,2.5c-1.1,0-2-0.7-2.3-1.7l-2.4-5.3H41.1
		c-0.6,0-0.7,0-2.1,3l0,0l-0.2,0.3c0,0.1-0.1,0.1-0.1,0.2c0,0,0,0,0,0l0,0c-0.2,0.3-0.3,0.7-0.5,1.1L38,56.9L37.9,57
		c-0.3,1-1.2,1.7-2.3,1.7c-1.3,0-2.4-1.1-2.4-2.4l0.3-4.2c0.1-1.5,0-1.9-0.2-2.6c-0.1-0.3-0.2-0.7-0.3-1.5c-0.1-0.8,0-3.2,0.3-4.1
		c0.7-1.9,2.5-3.1,4.7-3.1l0,0c0.6,0,1.2,0.1,1.7,0.2c0.6,0.2,1.2,0.3,1.7,0.5h0c1.7,0.4,3.4,0.6,5,0.6c0.5,0,1,0,1.5-0.1
		c1.8-0.1,3.6-0.4,5.3-1c0.6-0.2,0.9-0.2,1.2-0.2c2.1,0,4,1.3,4.6,3.1C59.3,45,59.4,47.3,59.3,48.2z"/>
	<path d="M54.3,42.8c-2.2,0-4,1.8-4,4s1.8,4,4,4s4-1.8,4-4S56.5,42.8,54.3,42.8z M54.3,48.8c-1.1,0-2-0.9-2-2s0.9-2,2-2s2,0.9,2,2
		S55.4,48.8,54.3,48.8z"/>
	<path d="M38.1,42.8c-2.2,0-4,1.8-4,4s1.8,4,4,4s4-1.8,4-4S40.3,42.8,38.1,42.8z M38.1,48.8c-1.1,0-2-0.9-2-2s0.9-2,2-2s2,0.9,2,2
		S39.2,48.8,38.1,48.8z"/>
	<path d="M48.3,43.8c-0.5,0-1,0.5-1,1h-2c0-0.5-0.4-1-1-1c-0.5,0-1,0.5-1,1v1c0,0.5,0.5,1,1,1h4c0.6,0,1-0.5,1-1v-1
		C49.3,44.2,48.8,43.8,48.3,43.8z"/>
</g>
</svg>
