<?xml version="1.0" encoding="utf-8"?>
<!-- Generator: Adobe Illustrator 24.2.1, SVG Export Plug-In . SVG Version: 6.00 Build 0)  -->
<svg version="1.1" id="Layer_1" xmlns="http://www.w3.org/2000/svg" xmlns:xlink="http://www.w3.org/1999/xlink" x="0px" y="0px"
	 viewBox="0 0 24 24" style="enable-background:new 0 0 24 24;" xml:space="preserve">
<g>
	<path d="M20.3,2.4h-1.8c-0.2,0-0.3,0.1-0.3,0.3v3.9h0.8V5.1h1.3c0.7,0,1.3-0.6,1.3-1.3S21,2.4,20.3,2.4z M20.3,4.3h-1.3V3.2h1.3
		c0.3,0,0.6,0.3,0.6,0.6C20.9,4,20.6,4.3,20.3,4.3z"/>
	<path d="M23.9,4.3c0-2.3-1.9-4.2-4.2-4.2c-2.3,0-4.2,1.9-4.2,4.2c0,1.9,1.3,3.5,3.1,4V23h-1.3c-0.2,0-0.4,0.2-0.4,0.4
		s0.2,0.4,0.4,0.4h5c0.2,0,0.4-0.2,0.4-0.4S22.4,23,22.2,23h-1.3V8.3C22.6,7.8,23.9,6.2,23.9,4.3z M20.1,23h-0.8v-1l0.8-0.8L20.1,23
		L20.1,23z M20.1,20.2L19.3,21v-1.2l0.8-0.8V20.2z M20.1,17.9l-0.8,0.8v-1.2l0.8-0.8V17.9z M20.1,15.6l-0.8,0.8v-1.2l0.8-0.8V15.6z
		 M20.1,13.3l-0.8,0.8v-1.2l0.8-0.8L20.1,13.3L20.1,13.3z M20.1,11l-0.8,0.8v-1.2l0.8-0.8V11z M20.1,8.7l-0.8,0.8v-1
		c0.1,0,0.3,0,0.4,0s0.3,0,0.4,0L20.1,8.7L20.1,8.7z M19.7,7.7c-1.9,0-3.4-1.5-3.4-3.4s1.5-3.4,3.4-3.4s3.4,1.5,3.4,3.4
		C23.2,6.2,21.6,7.7,19.7,7.7z"/>
	<path d="M17.4,20.6v-1.3c0-0.7-0.5-1.3-1.2-1.5v-0.5c0-0.6-0.3-1.2-0.7-1.6h0.7c0.6,0,1.1-0.4,1.3-0.9c0.1-0.4,0-0.8-0.2-1.1
		c-0.2-0.3-0.6-0.5-1-0.5h-0.8c-0.3,0-0.5,0.2-0.5,0.5v1.3H15l-0.8-3.5c-0.2-1-1.1-1.8-2.1-1.8H5.6c-1,0-1.9,0.7-2.1,1.8l-0.8,3.5
		H2.6v-1.3c0-0.3-0.2-0.5-0.5-0.5H1.4c-0.4,0-0.8,0.2-1,0.5c-0.2,0.3-0.3,0.7-0.2,1.1c0.1,0.5,0.7,0.9,1.3,0.9h0.7
		c-0.4,0.4-0.7,1-0.7,1.6v0.5c-0.7,0.2-1.2,0.8-1.2,1.5v1.3c0,0.3,0.2,0.5,0.5,0.5h0.3v1.8c0,0.5,0.4,1,1,1h1.8c0.5,0,1-0.4,1-1
		v-0.6h8v0.6c0,0.5,0.4,1,1,1h1.8c0.5,0,1-0.4,1-1v-1.8h0.3C17.2,21.1,17.4,20.9,17.4,20.6z M15.9,13.9h0.5c0.3,0,0.5,0.2,0.5,0.5
		s-0.2,0.5-0.5,0.5h-0.5V13.9z M1.8,14.8H1.4c-0.3,0-0.5-0.2-0.5-0.5s0.2-0.5,0.5-0.5h0.5V14.8z M4.3,11.5c0.1-0.6,0.7-1.1,1.3-1.1
		h6.4c0.7,0,1.2,0.5,1.3,1.1l0.8,3.5h-0.1H3.6H3.5L4.3,11.5z M2.2,17.2c0-0.8,0.6-1.4,1.4-1.4h10.6c0.8,0,1.4,0.6,1.4,1.4v2H9.1H2.2
		V17.2z M1,20.3v-1.1c0-0.3,0.2-0.5,0.4-0.7v0.9c0,0.3,0.2,0.5,0.5,0.5h0.8l0.1,0.4L1,20.3L1,20.3z M4.1,22.9c0,0.1-0.1,0.2-0.2,0.2
		H2.1c-0.1,0-0.2-0.1-0.2-0.2v-1.8h1.2l0.3,0.8c0.1,0.2,0.3,0.3,0.5,0.3h0.1L4.1,22.9L4.1,22.9z M4.1,21.5l-0.6-1.6h5.6c0,0,0,0,0,0
		h5l-0.6,1.6L4.1,21.5L4.1,21.5z M15.8,22.9c0,0.1-0.1,0.2-0.2,0.2h-1.8c-0.1,0-0.2-0.1-0.2-0.2v-0.6h0.1c0.2,0,0.4-0.1,0.5-0.3
		l0.3-0.8h1.2L15.8,22.9L15.8,22.9z M16.7,20.3h-1.8l0.1-0.4h0.8c0.3,0,0.5-0.2,0.5-0.5v-0.9c0.2,0.1,0.4,0.4,0.4,0.7L16.7,20.3
		L16.7,20.3z"/>
	<path d="M4.4,16.1c-0.8,0-1.4,0.6-1.4,1.4s0.6,1.4,1.4,1.4c0.8,0,1.4-0.6,1.4-1.4S5.1,16.1,4.4,16.1z M4.4,18.1
		c-0.3,0-0.6-0.3-0.6-0.6c0-0.3,0.3-0.6,0.6-0.6s0.6,0.3,0.6,0.6C5,17.8,4.7,18.1,4.4,18.1z"/>
	<path d="M7.1,17.2h3.6c0.2,0,0.4-0.2,0.4-0.4s-0.2-0.4-0.4-0.4H7.1c-0.2,0-0.4,0.2-0.4,0.4S6.9,17.2,7.1,17.2z"/>
	<path d="M11.1,18.2c0-0.2-0.2-0.4-0.4-0.4H7.1c-0.2,0-0.4,0.2-0.4,0.4s0.2,0.4,0.4,0.4h3.6C10.9,18.6,11.1,18.4,11.1,18.2z"/>
	<path d="M13.3,18.9c0.8,0,1.4-0.6,1.4-1.4s-0.6-1.4-1.4-1.4s-1.4,0.6-1.4,1.4S12.6,18.9,13.3,18.9z M13.3,16.9
		c0.3,0,0.6,0.3,0.6,0.6c0,0.3-0.3,0.6-0.6,0.6s-0.6-0.3-0.6-0.6S13,16.9,13.3,16.9z"/>
</g>
</svg>
