<svg xmlns="http://www.w3.org/2000/svg" xmlns:xlink="http://www.w3.org/1999/xlink" viewBox="0 0 64 64" style="enable-background:new 0 0 64 64;" xml:space="preserve">
<g>
	<path d="M56.4,35.1l-7.2-1.4l0.2-0.9c0.2-0.9,0.5-1.8,0.6-2.8c0.5-0.1,0.9-0.5,0.9-1c0-0.7-0.1-1.5-0.4-2.2
		c0.1-0.7,0.2-1.4,0.2-2.2c0,0,0,0,0,0v0c0,0,0,0,0-0.1v0l0,0c0-0.2,0-0.3,0.1-0.5H51c2.2,0,4-1.8,4-4s-1.8-4-4-4v-5
		c0-0.3,0-0.5,0-0.8v0c0-0.1,0-0.2,0-0.3c0-0.1,0-0.3-0.1-0.4c0-0.1,0-0.1,0-0.2c0-0.1,0-0.2-0.1-0.3l0,0c-0.9-3-3.6-5-6.7-5h-2.6
		c-1.4,0-2.8-0.4-3.9-1.2c-2.2-1.5-5.2-0.9-6.7,1.3C30.3,4.9,30,5.9,30,6.8v0.3c0,1.2,0.4,2.3,1.2,3.2C31.1,10.9,31,11.4,31,12v4
		c-1,0-2,0.4-2.8,1.1C29,12.3,28.6,7.3,27,2.7C26.9,2.3,26.5,2,26.1,2h0c-0.4,0-0.8,0.3-0.9,0.7L19,19.9L12.9,2.7
		c-0.1-0.4-0.5-0.7-1-0.7c-0.4,0-0.8,0.3-0.9,0.7c-2.1,6.2-2.1,13-0.1,19.2l3.5,11L9.6,46.2c-3.9,0.2-7.1,3.2-7.6,7
		c-0.2,2.1,0.4,4.2,1.7,5.8c1.4,1.7,3.4,2.8,5.6,3c0.2,0,0.5,0,0.7,0c2,0,3.8-0.7,5.3-2c3.3-2.7,3.8-7.6,1-10.9
		c-0.3-0.4-0.7-0.8-1.1-1.1l2.2-5.3c0.4-0.9,0.9-1.7,1.5-2.4c0.4,0.4,0.7,0.9,1,1.4c0,0.1,0,0.1,0,0.2v10.3
		c-0.2,0.8-0.3,1.6-0.2,2.4c0,0.4,0.1,0.8,0.2,1.3V58c0,2.2,1.8,4,4,4h6c0.1,0,0.2,0,0.3-0.1L41,58.2l2.7,0.9
		c0.1,0.1,0.3,0.1,0.4,0.1l7.6,2.7c0.1,0,0.2,0.1,0.3,0.1h6c2.2,0,4-1.8,4-4V41.9C62,38.6,59.6,35.7,56.4,35.1z M51,21.3V18
		c1.1,0,2,0.9,2,2s-0.9,2-2,2V21.3z M47,28c-1.1,0-2.2-0.4-3-1c-0.7-0.6-1.7-0.9-2.6-1h-0.6c-1,0-1.9,0.4-2.6,1c-0.9,0.7-1.9,1-3,1
		h-1.9c0.5-2.3,2.5-4,4.9-4h6c2.4,0,4.4,1.7,4.9,4H47z M48.1,30c-0.2,0.8-0.3,1.5-0.5,2.2l-0.7,2.6c-0.4,1.3-1.5,2.2-2.9,2.2h-5.9
		c-1.4,0-2.5-0.9-2.9-2.2l-0.7-2.6c-0.2-0.7-0.4-1.5-0.5-2.2H35c1.5,0,3.1-0.5,4.3-1.5c0.4-0.3,0.9-0.5,1.4-0.5h0.6
		c0.5,0,1,0.2,1.4,0.5c1.2,1,2.7,1.5,4.3,1.5H48.1z M40.1,16.7L38.3,22H38c-1,0-1.9,0.2-2.8,0.6c-0.2-0.1-0.4-0.3-0.5-0.5l-1.5-4.9
		c1.3-1.6,2.3-3.3,3.2-5.2h9.5c0.8,1.9,1.9,3.6,3.2,5.2l-1.5,5.1c-0.1,0.2-0.3,0.3-0.4,0.4c-0.9-0.5-2-0.7-3-0.7h-3.6l1.6-4.7
		L40.1,16.7z M33,13.9V12c0-0.1,0-0.2,0-0.4c0.3,0.1,0.7,0.2,1.1,0.3C33.8,12.6,33.4,13.3,33,13.9z M33.4,23.7
		c-0.1,0.1-0.2,0.2-0.3,0.3c0-0.3,0-0.5,0-0.8C33.2,23.4,33.3,23.6,33.4,23.7z M48.7,23.9c0.1-0.1,0.1-0.1,0.2-0.2
		c0,0.1,0,0.2,0,0.4C48.9,24,48.8,23.9,48.7,23.9z M47.9,12H49v1.9C48.6,13.3,48.3,12.7,47.9,12z M32,6.8C32,5.3,33.3,4,34.8,4
		c0.6,0,1.1,0.2,1.6,0.5c1.5,1,3.2,1.5,5,1.5H44c2.4,0,4.4,1.6,4.9,3.9c0,0,0,0,0,0.1H34.8C33.3,10,32,8.7,32,7.2V6.8z M31,18v4
		c-1.1,0-2-0.9-2-2S29.9,18,31,18z M27.1,21.9c0.1-0.2,0.1-0.3,0.1-0.5C27.8,23,29.3,24,31,24h0.1c0,0.2,0,0.4,0.1,0.6l0,0
		c0,0,0,0,0,0c0.1,0.8,0.1,1.5,0.2,2.2C31.1,27.5,31,28.3,31,29c0,0.5,0.4,0.9,0.9,1c0.2,1,0.4,1.9,0.6,2.8l0.2,0.9l-7.1,1.4
		c-0.4,0.1-0.7,0.2-1.1,0.3l-0.9-2.5L27.1,21.9z M25.9,6.3c1.1,5,0.8,10.1-0.7,15l-2.7,8.5l-2.5-6.9L25.9,6.3z M15.7,41.9l-2.5,6
		c-0.2,0.4,0,1,0.4,1.2c1.8,1.2,2.8,3.2,2.7,5.3c-0.1,1.6-0.9,3-2.1,4c-1.3,1.1-2.9,1.6-4.6,1.5c-1.7-0.1-3.2-0.9-4.2-2.2
		c-1-1.2-1.5-2.8-1.3-4.3c0.4-3,3-5.3,6.1-5.3c0.1,0,0.1,0,0.2,0c0.4,0,0.8-0.2,1-0.7l4.1-11.4l0.5,1.6c0.1,0.3,0.3,0.5,0.5,0.6
		c0.4,0.2,0.8,0.4,1.2,0.7C16.7,39.8,16.1,40.8,15.7,41.9z M22,41.1C21.9,41.1,21.9,41.1,22,41.1c0-0.1,0-0.1,0-0.1
		c-0.6-1.1-1.3-2.1-2.2-2.9c-0.6-0.6-1.3-1.1-2-1.5l-1.2-3.9c0,0,0-0.1,0-0.1l-3.6-11.3c-1.5-4.8-1.8-10-0.7-15l13.8,38.8l-2.1,0.3
		l-1.5-3.6C22.2,41.6,22.1,41.4,22,41.1L22,41.1L22,41.1z M28.4,60c-0.2,0-0.4,0-0.5,0c-2.7,0-5.1-1.8-5.9-4.3l1.9-0.8
		c0.5,2,2.3,3.3,4.4,3.1c1.6-0.2,3-1.3,3.5-2.9l1,0.2l1,0.4C33,58,30.9,59.8,28.4,60z M25.8,54.3c0,0,0-0.1,0-0.1l0.3-0.1l3.7,0.7
		c-0.3,0.7-0.9,1.2-1.7,1.3C27,56.2,26,55.4,25.8,54.3z M34.8,58.3c0.4-0.6,0.7-1.3,0.9-1.9l2.3,0.8L34.8,58.3z M40.9,52.2l-1.7-0.3
		l-0.4,2l1.7,0.3c0,0.6,0.1,1.2,0.3,1.8l-7.5-2.6c0,0-0.1,0-0.1,0l-7-1.3c-0.2,0-0.4,0-0.6,0.1L22,53.5v-5.7l4.8-0.8l5.7,2.9
		c0.1,0.1,0.2,0.1,0.4,0.1l9,0.6C41.5,51.1,41.1,51.6,40.9,52.2z M60,54v4c0,1.1-0.9,2-2,2h-5.8l-7-2.5v0c-0.1,0-0.2-0.1-0.3-0.1
		l-0.4-0.2c-1.1-0.5-1.8-1.5-1.9-2.7l3.8,0.8L46,56.9l2,0.4l0.3-1.6l1.6,0.3c0.2,1.1,1.1,2,2.2,2.2c0.2,0,0.4,0.1,0.5,0.1
		c1.5,0,2.7-1.2,2.7-2.7c0-1.5-1.2-2.7-2.7-2.7c-0.9,0-1.8,0.5-2.3,1.3l-1.6-0.3l0.3-1.6l-2-0.4l-0.3,1.6l-3.8-0.8
		c0.5-1,1.6-1.7,2.8-1.7l14.3,1V54z M51.9,55.5c0.1-0.3,0.4-0.6,0.7-0.6c0,0,0.1,0,0.1,0c0.4,0.1,0.7,0.5,0.6,0.9
		c-0.1,0.4-0.5,0.7-0.9,0.6C52.1,56.3,51.8,55.9,51.9,55.5C51.9,55.5,51.9,55.5,51.9,55.5z M60,49.9l-9.3-0.7l4.4-2.2l4.8,0.8V49.9z
		 M60,45.8L55.2,45c-0.2,0-0.4,0-0.6,0.1L52,46.4V43h-2v4.4L48.7,48l-10.4,0.4L33.3,48l-0.4-0.2c-0.6-0.4-1.2-0.8-1.8-1V43h-2v2.9
		l-0.9-0.4l-2.9-8.2c0.3-0.1,0.5-0.2,0.8-0.2l7.3-1.5c0.7,2.1,2.6,3.4,4.7,3.4h5.9c2.2,0,4.1-1.4,4.7-3.4L56,37c2.3,0.5,4,2.5,4,4.9
		V45.8z M38,18.5c0,0.8-0.7,1.5-1.5,1.5S35,19.3,35,18.5s0.7-1.5,1.5-1.5S38,17.7,38,18.5z M44,18.5c0-0.8,0.7-1.5,1.5-1.5
		s1.5,0.7,1.5,1.5S46.3,20,45.5,20S44,19.3,44,18.5z M10.6,50.1c-2.2-0.2-4.2,1.3-4.5,3.5l0,0c-0.1,1,0.2,2.1,0.8,2.9
		c1.4,1.8,4,2,5.7,0.6c0.8-0.7,1.3-1.6,1.5-2.6c0.1-1-0.2-2.1-0.8-2.9C12.6,50.8,11.6,50.2,10.6,50.1z M12.2,54.3
		C12,55.4,11,56.2,9.9,56c-0.5-0.1-1.1-0.3-1.4-0.8c-0.3-0.4-0.5-0.9-0.4-1.4c0.2-1.1,1.2-1.9,2.4-1.7c0.5,0.1,1,0.3,1.3,0.7
		C12.1,53.3,12.2,53.8,12.2,54.3L12.2,54.3z M18,32h2v2h-2V32z"/>
</g>
</svg>
