<?xml version="1.0" encoding="utf-8"?>
<!-- Generator: Adobe Illustrator 24.2.1, SVG Export Plug-In . SVG Version: 6.00 Build 0)  -->
<svg version="1.1" id="Layer_1" xmlns="http://www.w3.org/2000/svg" xmlns:xlink="http://www.w3.org/1999/xlink" x="0px" y="0px"
	 viewBox="0 0 64 64" style="enable-background:new 0 0 64 64;" xml:space="preserve">
<g>
	<rect x="24.7" y="28.2" transform="matrix(0.7071 -0.7071 0.7071 0.7071 -14.2726 27.1352)" width="1.8" height="5.2"/>
	<rect x="19.2" y="33.7" transform="matrix(0.7071 -0.7071 0.7071 0.7071 -19.742 24.8696)" width="1.8" height="5.2"/>
	<rect x="22" y="28.4" transform="matrix(0.7071 -0.7071 0.7071 0.7071 -17.0071 26.0021)" width="1.8" height="10.3"/>
	<path d="M56.6,29.4v-4c0-1-0.8-1.8-1.8-1.8H53v-6.4c0-1.5-1.2-2.7-2.7-2.7h-1.8c-1.5,0-2.7,1.2-2.7,2.7v6.4h-1.8
		c-1,0-1.8,0.8-1.8,1.8v4c-2.3,1.4-3.6,3.8-3.6,6.4v4.6c-0.5-0.3-1.1-0.4-1.7-0.4h-2V23c0-0.5-0.2-0.9-0.5-1.3l-4.9-4.9v-2.4
		c0-1-0.8-1.8-1.8-1.8h-1.8v-1.8c0-1,0.8-1.8,1.8-1.8h3.6c0.9,0,1.7,0.4,2.2,1.1l1.3,1.7c0.4,0.5,1,0.9,1.7,0.9c1.2,0,2.1-1,2.1-2.1
		V9.8c0-3.5-2.9-6.4-6.4-6.4H16.5c-1,0-1.8,0.8-1.8,1.8v1.8c0,1,0.8,1.8,1.8,1.8h1.8c1,0,1.8,0.8,1.8,1.8v1.8h-1.8
		c-1,0-1.8,0.8-1.8,1.8v2.4l-4.9,4.9C11.2,22,11,22.5,11,23v16.9H7.2c-1.9,0-3.5,1.6-3.5,3.5c0,0.1,0,0.3,0,0.4L5,54.3
		c0.4,3.2,3.1,5.6,6.3,5.6h21.3c2.7,0,5-1.7,6-4.1c0.6,2.4,2.7,4.1,5.3,4.1h10.9c3,0,5.5-2.5,5.5-5.5V35.8
		C60.3,33.1,58.9,30.7,56.6,29.4z M47.5,17.1c0-0.5,0.4-0.9,0.9-0.9h1.8c0.5,0,0.9,0.4,0.9,0.9v6.4h-3.6V17.1z M43.9,25.3h10.9V29
		H43.9V25.3z M27.4,14.4v1.8h-1.8v-1.8H27.4z M22,16.2v-1.8h1.8v1.8H22z M18.3,7.1h-1.8V5.3H32c2.5,0,4.6,2,4.6,4.6v0.6
		c0,0.3-0.4,0.4-0.5,0.2l-1.3-1.7c-0.9-1.1-2.2-1.8-3.6-1.8h-3.6c-1.3,0-2.5,0.7-3.1,1.8h-2.8C20.8,7.8,19.7,7.1,18.3,7.1z M22,10.7
		h1.8v1.8H22V10.7z M18.3,14.4h1.8v1.8h-1.8V14.4z M12.9,23.5h7.3v-1.8h-6l3.6-3.6H28l3.6,3.6h-7.8v1.8h9.1v16.4h-1.8V28.1
		c0-1.5-1.2-2.7-2.7-2.7H17.4c-1.5,0-2.7,1.2-2.7,2.7v11.9h-1.8V23.5z M29.3,39.9H16.5V28.1c0-0.5,0.4-0.9,0.9-0.9h10.9
		c0.5,0,0.9,0.4,0.9,0.9V39.9z M7.2,41.7h29.5c0.9,0,1.7,0.7,1.7,1.7c0,0.1,0,0.1,0,0.2l-0.2,1.8H5.8l-0.2-1.8c0-0.1,0-0.1,0-0.2
		C5.6,42.5,6.3,41.7,7.2,41.7z M34.5,47.2l-0.9,6.5c-0.1,0.4-0.5,0.8-0.9,0.8H11.3c-0.5,0-0.8-0.3-0.9-0.8l-0.9-6.5H34.5z
		 M37.1,54.1c-0.3,2.3-2.2,4-4.5,4H11.3c-2.3,0-4.3-1.7-4.5-4L6,47.2h1.6l1,6.8c0.2,1.3,1.4,2.4,2.7,2.4h21.3c1.4,0,2.5-1,2.7-2.4
		l1-6.8h1.6L37.1,54.1z M54.8,58.1H43.9c-2,0-3.6-1.6-3.6-3.6V36.3h5.5v-1.8h-5.3c0.4-1.5,1.4-2.9,2.8-3.6h12.3
		c1.4,0.8,2.4,2.1,2.8,3.6H47.5v1.8h10.9v18.2C58.4,56.5,56.8,58.1,54.8,58.1z"/>
	<path d="M49.3,38.1c-4,0-7.3,3.3-7.3,7.3v9.1c0,1,0.8,1.8,1.8,1.8h10.9c1,0,1.8-0.8,1.8-1.8v-9.1C56.6,41.4,53.3,38.1,49.3,38.1z
		 M54.8,54.5H43.9v-9.1c0-3,2.5-5.5,5.5-5.5s5.5,2.5,5.5,5.5L54.8,54.5z"/>
	<path d="M49.3,41.7c-2,0-3.6,6.2-3.6,7.3c0,2,1.6,3.6,3.6,3.6S53,51,53,49C53,47.9,51.3,41.7,49.3,41.7z M49.3,50.9
		c-1,0-1.8-0.8-1.8-1.8c0-1.1,1.1-4.1,1.8-5.2c0.7,1.1,1.8,4.1,1.8,5.2C51.1,50,50.3,50.9,49.3,50.9z"/>
</g>
</svg>
